{
.appVersion = "1282";
customParameters = (
{
name = glyphOrder;
value = (
.notdef,
space,
nirugu,
A.init,
A.medi,
A.fina,
A.isol,
Ah.init,
Ah.medi,
Ah.fina,
Ah.isol,
N.init,
N.medi,
N.fina,
N.isol,
W.init,
W.medi,
W.fina,
W.isol,
H.init,
H.medi,
H.fina,
H.isol,
Gh.init,
Gh.medi,
Gh.fina,
Gh.isol,
U.init,
U.medi,
U.fina,
U.isol,
O.init,
O.medi,
O.fina,
O.isol,
Ue.init,
Ue.medi,
Ue.fina,
Ue.isol,
I.init,
I.medi,
I.fina,
I.isol,
Y.init,
Y.medi,
Y.fina,
Y.isol,
G.init,
G.medi,
G.fina,
G.isol,
K.init,
K.medi,
K.fina,
K.isol,
D.init,
D.medi,
D.fina,
D.isol,
M.init,
M.medi,
M.fina,
M.isol,
S.init,
S.medi,
S.fina,
S.isol,
Sh.init,
Sh.medi,
Sh.fina,
Sh.isol,
B.init,
B.medi,
B.fina,
B.isol,
P.init,
P.medi,
P.fina,
P.isol,
F.init,
F.medi,
F.fina,
F.isol,
Ch.init,
Ch.medi,
Ch.fina,
Ch.isol,
J.init,
J.medi,
J.fina,
J.isol,
C.init,
C.medi,
C.fina,
C.isol,
Z.init,
Z.medi,
Z.fina,
Z.isol,
R.init,
R.medi,
R.fina,
R.isol,
T.init,
T.medi,
T.fina,
T.isol,
Dh.init,
Dh.medi,
Dh.fina,
Dh.isol,
L.init,
L.medi,
L.fina,
L.isol,
Rh.init,
Rh.medi,
Rh.fina,
Rh.isol,
H2.init,
H2.medi,
H2.fina,
H2.isol,
Zr.init,
Zr.medi,
Zr.fina,
Zr.isol,
Cr.init,
Cr.medi,
Cr.fina,
Cr.isol,
m,
n,
r,
t,
d,
ch,
ng,
b,
l,
sh,
s,
a,
h,
e,
y,
cr,
zr,
i,
o,
oe,
ue,
u,
e2,
p,
j,
k,
f,
g,
w,
h2,
rh,
lh,
z,
c,
a.fina,
o.medi,
o.fina,
a.init.v1,
o.fina.v1,
i.medi,
i.medi.v1,
ng.medi,
l.fina,
n.init,
n.init.v1,
ue.init.v1,
h.medi,
s.fina,
ch.medi,
ch.init,
r.init,
r.medi,
r.fina,
t.medi,
t.init,
d.init.v1,
d.init,
s.medi,
h.fina,
h.fina.v1,
s.init,
ng.init,
ng.fina,
n.medi.v2,
n.fina,
n.fina.v1,
i.fina,
i.init,
a.medi.v1,
a.medi.v2,
e.init,
e.init.v1,
e.medi,
u.fina,
oe.fina,
l.init,
l.medi,
m.fina,
h.init,
sh.init,
sh.medi,
sh.fina,
s.fina.v1,
h2.medi,
rh.init,
rh.medi,
a.v1,
a.init,
e2.medi,
c.init,
j.medi,
y.init,
w.init,
w.medi,
y.medi,
cr.fina,
cr.init,
cr.medi,
zr.medi,
zr.init,
zr.fina,
w.fina.v1,
b.fina,
p.fina,
ue.isol.v1,
u.init,
u.medi,
u.medi.v1,
oe.init,
oe.medi.v2,
ue.init,
h2.fina,
ch.fina,
o.init,

glyphs = (
{
glyphname = .notdef;
lastChange = "2019-12-27 09:15:23 +0000";
layers = (
{
layerId = "E91C2A68-9D13-40A3-B48F-6510F845363B";
paths = (
{
closed = 1;
nodes = (
"410 800 LINE",
"93 800 LINE",
"93 -200 LINE",
"410 -200 LINE"
);
},
{
closed = 1;
nodes = (
"333 118 LINE",
"333 5 LINE",
"167 5 LINE",
"167 118 LINE"
);
},
{
closed = 1;
nodes = (
"300 85 LINE",
"200 85 LINE",
"200 38 LINE",
"300 38 LINE"
);
},
{
closed = 1;
nodes = (
"333 291 LINE",
"333 178 LINE",
"167 178 LINE",
"167 291 LINE",
"200 291 LINE",
"200 211 LINE",
"300 211 LINE",
"300 258 LINE",
"267 258 LINE",
"267 235 LINE",
"233 235 LINE",
"233 291 LINE"
);
},
{
closed = 1;
nodes = (
"333 413 LINE",
"333 313 LINE",
"167 313 LINE",
"167 347 LINE",
"300 347 LINE",
"300 413 LINE"
);
},
{
closed = 1;
nodes = (
"333 473 LINE",
"333 440 LINE",
"267 440 LINE",
"267 370 LINE",
"167 370 LINE",
"167 403 LINE",
"233 403 LINE",
"233 440 LINE",
"167 440 LINE",
"167 473 LINE"
);
},
{
closed = 1;
nodes = (
"233 570 LINE",
"200 570 LINE",
"200 534 LINE",
"233 534 LINE"
);
},
{
closed = 1;
nodes = (
"267 604 LINE",
"267 534 LINE",
"333 534 LINE",
"333 500 LINE",
"167 500 LINE",
"167 604 LINE"
);
},
{
closed = 1;
nodes = (
"333 733 LINE",
"333 700 LINE",
"267 700 LINE",
"267 663 LINE",
"333 663 LINE",
"333 630 LINE",
"167 630 LINE",
"167 663 LINE",
"233 663 LINE",
"233 700 LINE",
"168 700 LINE",
"168 733 LINE"
);
},
{
closed = 1;
nodes = (
"333 -18 LINE",
"333 -51 LINE",
"301 -51 LINE",
"231 -98 LINE",
"333 -98 LINE",
"333 -131 LINE",
"167 -131 LINE",
"167 -98 LINE",
"237 -51 LINE",
"167 -51 LINE",
"167 -18 LINE"
);
}
);
width = 500;
}
);
note = .notdef;
},
{
color = 3;
glyphname = nirugu;
lastChange = "2019-12-27 14:32:58 +0000";
layers = (
{
layerId = "E91C2A68-9D13-40A3-B48F-6510F845363B";
paths = (
{
closed = 1;
nodes = (
"0 364 LINE",
"188 364 LINE",
"188 444 LINE",
"0 444 LINE"
);
}
);
width = 168;
}
);
unicode = 180A;
},
{
color = 3;
glyphname = A.init;
lastChange = "2019-12-27 14:32:58 +0000";
layers = (
{
layerId = "E91C2A68-9D13-40A3-B48F-6510F845363B";
paths = (
{
closed = 1;
nodes = (
"226 74 LINE",
"292 74 LINE",
"302 219 LINE SMOOTH",
"310 329 OFFCURVE",
"337 364 OFFCURVE",
"445 364 CURVE",
"522 364 LINE",
"522 444 LINE",
"444 444 LINE SMOOTH",
"360 444 OFFCURVE",
"307 416 OFFCURVE",
"285 361 CURVE",
"281 361 LINE",
"278 445 LINE SMOOTH",
"273 575 OFFCURVE",
"248 653 OFFCURVE",
"139 653 CURVE",
"100 653 OFFCURVE",
"57 643 OFFCURVE",
"10 623 CURVE",
"10 550 LINE",
"52 567 OFFCURVE",
"88 575 OFFCURVE",
"118 575 CURVE",
"180 575 OFFCURVE",
"194 522 OFFCURVE",
"200 437 CURVE"
);
}
);
width = 492;
}
);
},
{
color = 3;
glyphname = A.fina;
lastChange = "2019-12-27 14:32:58 +0000";
layers = (
{
layerId = "E91C2A68-9D13-40A3-B48F-6510F845363B";
paths = (
{
closed = 1;
nodes = (
"228 53 LINE",
"228 156 LINE SMOOTH",
"228 299 OFFCURVE",
"245 429 OFFCURVE",
"277 547 CURVE",
"309 666 OFFCURVE",
"357 762 OFFCURVE",
"417 836 CURVE",
"325 836 LINE",
"273 768 OFFCURVE",
"231 674 OFFCURVE",
"199 555 CURVE",
"167 435 OFFCURVE",
"151 302 OFFCURVE",
"151 156 CURVE",
"58 210 OFFCURVE",
"41 312 OFFCURVE",
"41 444 CURVE",
"-33 444 LINE",
"-33 364 LINE SMOOTH",
"-33 206 OFFCURVE",
"67 63 OFFCURVE",
"228 53 CURVE"
);
}
);
width = 427;
}
);
},
{
color = 3;
glyphname = Ah.isol;
lastChange = "2019-12-27 14:32:58 +0000";
layers = (
{
layerId = "E91C2A68-9D13-40A3-B48F-6510F845363B";
paths = (
{
closed = 1;
nodes = (
"164 -264 LINE",
"246 -264 LINE",
"232 -240 OFFCURVE",
"225 -214 OFFCURVE",
"225 -187 CURVE",
"225 -125 OFFCURVE",
"244 -91 OFFCURVE",
"292 -31 CURVE",
"340 29 OFFCURVE",
"374 82 OFFCURVE",
"394 123 CURVE",
"415 165 OFFCURVE",
"425 206 OFFCURVE",
"425 245 CURVE",
"425 373 OFFCURVE",
"348 444 OFFCURVE",
"194 444 CURVE",
"118 444 LINE",
"100 364 LINE",
"193 364 LINE SMOOTH",
"300 364 OFFCURVE",
"347 325 OFFCURVE",
"347 245 CURVE",
"347 214 OFFCURVE",
"339 183 OFFCURVE",
"323 152 CURVE",
"307 121 OFFCURVE",
"280 80 OFFCURVE",
"240 28 CURVE",
"183 -46 OFFCURVE",
"145 -112 OFFCURVE",
"145 -187 CURVE",
"145 -217 OFFCURVE",
"151 -243 OFFCURVE",
"164 -264 CURVE"
);
}
);
width = 470;
}
);
},
{
color = 3;
glyphname = N.init;
lastChange = "2019-12-27 14:32:58 +0000";
layers = (
{
components = (
{
name = A.init;
}
);
layerId = "E91C2A68-9D13-40A3-B48F-6510F845363B";
paths = (
{
closed = 1;
nodes = (
"262 -163 LINE",
"295 -128 OFFCURVE",
"341 -90 OFFCURVE",
"401 -47 CURVE",
"340 22 LINE",
"301 -17 OFFCURVE",
"261 -65 OFFCURVE",
"219 -124 CURVE"
);
}
);
width = 492;
}
);
},
{
color = 3;
glyphname = N.medi;
lastChange = "2019-12-27 14:56:20 +0000";
layers = (
{
components = (
{
name = a.medi;
}
);
layerId = "E91C2A68-9D13-40A3-B48F-6510F845363B";
paths = (
{
closed = 1;
nodes = (
"45 -163 LINE",
"78 -128 OFFCURVE",
"124 -90 OFFCURVE",
"184 -47 CURVE",
"123 22 LINE",
"84 -17 OFFCURVE",
"44 -65 OFFCURVE",
"2 -124 CURVE"
);
}
);
width = 284;
}
);
},
{
color = 3;
glyphname = N.fina;
lastChange = "2019-12-27 14:32:58 +0000";
layers = (
{
components = (
{
name = A.fina;
}
);
layerId = "E91C2A68-9D13-40A3-B48F-6510F845363B";
paths = (
{
closed = 1;
nodes = (
"182 -185 LINE",
"215 -150 OFFCURVE",
"261 -112 OFFCURVE",
"321 -69 CURVE",
"260 0 LINE",
"221 -39 OFFCURVE",
"181 -87 OFFCURVE",
"139 -146 CURVE"
);
}
);
width = 427;
}
);
},
{
color = 3;
glyphname = W.medi;
lastChange = "2019-12-27 14:32:58 +0000";
layers = (
{
layerId = "E91C2A68-9D13-40A3-B48F-6510F845363B";
paths = (
{
closed = 1;
nodes = (
"309 -119 LINE",
"346 -119 OFFCURVE",
"377 -106 OFFCURVE",
"392 -85 CURVE",
"392 6 LINE",
"373 -22 OFFCURVE",
"345 -36 OFFCURVE",
"309 -36 CURVE",
"244 -36 OFFCURVE",
"202 49 OFFCURVE",
"156 152 CURVE",
"124 224 OFFCURVE",
"99 294 OFFCURVE",
"79 364 CURVE",
"488 364 LINE",
"488 444 LINE",
"0 444 LINE",
"0 364 LINE",
"20 292 OFFCURVE",
"42 223 OFFCURVE",
"68 157 CURVE",
"133 -6 OFFCURVE",
"187 -119 OFFCURVE",
"309 -119 CURVE"
);
}
);
width = 458;
}
);
},
{
color = 3;
glyphname = W.fina;
lastChange = "2019-12-27 14:32:58 +0000";
layers = (
{
layerId = "E91C2A68-9D13-40A3-B48F-6510F845363B";
paths = (
{
closed = 1;
nodes = (
"309 -119 LINE",
"346 -119 OFFCURVE",
"377 -106 OFFCURVE",
"392 -85 CURVE",
"392 6 LINE",
"373 -22 OFFCURVE",
"345 -36 OFFCURVE",
"309 -36 CURVE",
"244 -36 OFFCURVE",
"202 49 OFFCURVE",
"156 152 CURVE",
"124 224 OFFCURVE",
"99 294 OFFCURVE",
"79 364 CURVE",
"488 364 LINE SMOOTH",
"559 364 OFFCURVE",
"586 333 OFFCURVE",
"586 279 CURVE",
"586 235 OFFCURVE",
"579 196 OFFCURVE",
"564 162 CURVE",
"638 162 LINE",
"655 199 OFFCURVE",
"663 238 OFFCURVE",
"663 279 CURVE",
"663 389 OFFCURVE",
"604 444 OFFCURVE",
"488 444 CURVE",
"0 444 LINE",
"0 364 LINE",
"20 292 OFFCURVE",
"42 223 OFFCURVE",
"68 157 CURVE",
"132 -6 OFFCURVE",
"187 -119 OFFCURVE",
"309 -119 CURVE"
);
}
);
width = 708;
}
);
},
{
color = 3;
glyphname = H.init;
lastChange = "2019-12-27 14:32:58 +0000";
layers = (
{
layerId = "E91C2A68-9D13-40A3-B48F-6510F845363B";
paths = (
{
closed = 1;
nodes = (
"221 96 LINE",
"299 96 LINE",
"289 268 OFFCURVE",
"258 377 OFFCURVE",
"206 423 CURVE",
"214 574 OFFCURVE",
"272 644 OFFCURVE",
"362 644 CURVE",
"462 644 OFFCURVE",
"512 563 OFFCURVE",
"512 378 CURVE",
"512 279 OFFCURVE",
"506 185 OFFCURVE",
"495 96 CURVE",
"573 96 LINE",
"587 192 OFFCURVE",
"594 281 OFFCURVE",
"594 364 CURVE",
"818 364 LINE",
"818 444 LINE",
"591 444 LINE",
"573 633 OFFCURVE",
"497 727 OFFCURVE",
"362 727 CURVE",
"222 727 OFFCURVE",
"142 609 OFFCURVE",
"129 451 CURVE",
"96 450 OFFCURVE",
"68 444 OFFCURVE",
"45 433 CURVE",
"45 353 LINE",
"62 362 OFFCURVE",
"84 366 OFFCURVE",
"112 366 CURVE",
"192 366 OFFCURVE",
"210 233 OFFCURVE",
"221 96 CURVE"
);
}
);
width = 788;
}
);
},
{
color = 3;
glyphname = H.fina;
lastChange = "2019-12-27 14:32:58 +0000";
layers = (
{
layerId = "E91C2A68-9D13-40A3-B48F-6510F845363B";
paths = (
{
closed = 1;
nodes = (
"506 74 LINE",
"506 186 LINE SMOOTH",
"506 361 OFFCURVE",
"535 516 OFFCURVE",
"618 666 CURVE",
"525 666 LINE",
"459 536 OFFCURVE",
"427 376 OFFCURVE",
"427 188 CURVE",
"340 237 OFFCURVE",
"321 318 OFFCURVE",
"321 444 CURVE",
"0 444 LINE",
"0 364 LINE",
"19 96 LINE",
"85 96 LINE",
"104 364 LINE",
"251 364 LINE",
"251 214 OFFCURVE",
"359 74 OFFCURVE",
"506 74 CURVE"
);
}
);
width = 663;
}
);
},
{
color = 3;
glyphname = Gh.init;
lastChange = "2019-12-27 14:32:58 +0000";
layers = (
{
components = (
{
name = H.init;
}
);
layerId = "E91C2A68-9D13-40A3-B48F-6510F845363B";
paths = (
{
closed = 1;
nodes = (
"215 -141 LINE",
"248 -106 OFFCURVE",
"294 -68 OFFCURVE",
"354 -25 CURVE",
"293 44 LINE",
"254 5 OFFCURVE",
"214 -43 OFFCURVE",
"172 -102 CURVE"
);
},
{
closed = 1;
nodes = (
"391 -218 LINE",
"424 -183 OFFCURVE",
"470 -145 OFFCURVE",
"530 -102 CURVE",
"469 -33 LINE",
"430 -72 OFFCURVE",
"390 -120 OFFCURVE",
"348 -179 CURVE"
);
}
);
width = 788;
}
);
},
{
color = 3;
glyphname = Gh.medi;
lastChange = "2019-12-27 14:32:58 +0000";
layers = (
{
components = (
{
name = a.medi.v1;
}
);
layerId = "E91C2A68-9D13-40A3-B48F-6510F845363B";
paths = (
{
closed = 1;
nodes = (
"45 -163 LINE",
"78 -128 OFFCURVE",
"124 -90 OFFCURVE",
"184 -47 CURVE",
"123 22 LINE",
"84 -17 OFFCURVE",
"44 -65 OFFCURVE",
"2 -124 CURVE"
);
},
{
closed = 1;
nodes = (
"328 -163 LINE",
"361 -128 OFFCURVE",
"407 -90 OFFCURVE",
"467 -47 CURVE",
"406 22 LINE",
"367 -17 OFFCURVE",
"327 -65 OFFCURVE",
"285 -124 CURVE"
);
}
);
width = 568;
}
);
},
{
color = 3;
glyphname = Gh.fina;
lastChange = "2019-12-27 14:32:58 +0000";
layers = (
{
components = (
{
name = H.fina;
}
);
layerId = "E91C2A68-9D13-40A3-B48F-6510F845363B";
paths = (
{
closed = 1;
nodes = (
"243 -141 LINE",
"276 -106 OFFCURVE",
"322 -68 OFFCURVE",
"382 -25 CURVE",
"321 44 LINE",
"282 5 OFFCURVE",
"242 -43 OFFCURVE",
"200 -102 CURVE"
);
},
{
closed = 1;
nodes = (
"462 -196 LINE",
"495 -161 OFFCURVE",
"541 -123 OFFCURVE",
"601 -80 CURVE",
"540 -11 LINE",
"501 -50 OFFCURVE",
"461 -98 OFFCURVE",
"419 -157 CURVE"
);
}
);
width = 663;
}
);
},
{
color = 3;
glyphname = U.init;
lastChange = "2019-12-27 14:32:58 +0000";
layers = (
{
layerId = "E91C2A68-9D13-40A3-B48F-6510F845363B";
paths = (
{
closed = 1;
nodes = (
"242 40 LINE",
"369 40 OFFCURVE",
"440 123 OFFCURVE",
"440 249 CURVE",
"440 294 OFFCURVE",
"433 333 OFFCURVE",
"420 364 CURVE",
"648 364 LINE",
"648 444 LINE",
"90 444 LINE",
"59 392 OFFCURVE",
"45 336 OFFCURVE",
"45 260 CURVE",
"45 123 OFFCURVE",
"111 40 OFFCURVE",
"242 40 CURVE"
);
},
{
closed = 1;
nodes = (
"242 123 LINE",
"164 123 OFFCURVE",
"124 169 OFFCURVE",
"124 262 CURVE",
"124 303 OFFCURVE",
"131 336 OFFCURVE",
"144 364 CURVE",
"341 364 LINE",
"354 333 OFFCURVE",
"361 295 OFFCURVE",
"361 251 CURVE",
"361 166 OFFCURVE",
"315 123 OFFCURVE",
"242 123 CURVE"
);
}
);
width = 618;
}
);
},
{
color = 3;
glyphname = U.medi;
lastChange = "2019-12-27 14:32:58 +0000";
layers = (
{
layerId = "E91C2A68-9D13-40A3-B48F-6510F845363B";
paths = (
{
closed = 1;
nodes = (
"197 40 LINE",
"324 40 OFFCURVE",
"395 123 OFFCURVE",
"395 249 CURVE",
"395 293 OFFCURVE",
"388 331 OFFCURVE",
"373 364 CURVE",
"603 364 LINE",
"603 444 LINE",
"0 444 LINE",
"0 364 LINE",
"20 364 LINE",
"7 333 OFFCURVE",
"0 294 OFFCURVE",
"0 249 CURVE",
"0 117 OFFCURVE",
"68 40 OFFCURVE",
"197 40 CURVE"
);
},
{
closed = 1;
nodes = (
"197 123 LINE",
"118 123 OFFCURVE",
"79 166 OFFCURVE",
"79 251 CURVE",
"79 295 OFFCURVE",
"86 333 OFFCURVE",
"99 364 CURVE",
"296 364 LINE",
"309 333 OFFCURVE",
"316 295 OFFCURVE",
"316 251 CURVE",
"316 166 OFFCURVE",
"271 123 OFFCURVE",
"197 123 CURVE"
);
}
);
width = 573;
}
);
},
{
color = 3;
glyphname = U.fina;
lastChange = "2019-12-27 14:32:58 +0000";
layers = (
{
layerId = "E91C2A68-9D13-40A3-B48F-6510F845363B";
paths = (
{
closed = 1;
nodes = (
"225 40 LINE",
"331 40 OFFCURVE",
"405 137 OFFCURVE",
"405 275 CURVE",
"405 316 OFFCURVE",
"395 403 OFFCURVE",
"382 444 CURVE",
"78 444 LINE",
"82 592 OFFCURVE",
"151 699 OFFCURVE",
"289 699 CURVE",
"427 699 OFFCURVE",
"496 573 OFFCURVE",
"509 409 CURVE",
"589 419 LINE",
"575 616 OFFCURVE",
"469 782 OFFCURVE",
"289 782 CURVE",
"95 782 OFFCURVE",
"-1 624 OFFCURVE",
"-1 408 CURVE",
"-1 164 OFFCURVE",
"71 40 OFFCURVE",
"225 40 CURVE"
);
},
{
closed = 1;
nodes = (
"218 123 LINE",
"127 123 OFFCURVE",
"81 203 OFFCURVE",
"78 364 CURVE",
"316 364 LINE",
"323 343 OFFCURVE",
"326 313 OFFCURVE",
"326 275 CURVE",
"326 190 OFFCURVE",
"291 123 OFFCURVE",
"218 123 CURVE"
);
}
);
width = 634;
}
);
},
{
color = 3;
glyphname = U.isol;
lastChange = "2019-12-27 14:56:14 +0000";
layers = (
{
layerId = "E91C2A68-9D13-40A3-B48F-6510F845363B";
paths = (
{
closed = 1;
nodes = (
"271 40 LINE",
"377 40 OFFCURVE",
"451 137 OFFCURVE",
"451 275 CURVE",
"451 316 OFFCURVE",
"441 403 OFFCURVE",
"428 444 CURVE",
"124 444 LINE",
"128 592 OFFCURVE",
"197 699 OFFCURVE",
"335 699 CURVE",
"473 699 OFFCURVE",
"542 573 OFFCURVE",
"555 409 CURVE",
"635 419 LINE",
"621 616 OFFCURVE",
"515 782 OFFCURVE",
"335 782 CURVE",
"141 782 OFFCURVE",
"45 624 OFFCURVE",
"45 408 CURVE",
"45 164 OFFCURVE",
"117 40 OFFCURVE",
"271 40 CURVE"
);
},
{
closed = 1;
nodes = (
"264 123 LINE",
"173 123 OFFCURVE",
"127 203 OFFCURVE",
"124 364 CURVE",
"362 364 LINE",
"369 343 OFFCURVE",
"372 313 OFFCURVE",
"372 275 CURVE",
"372 190 OFFCURVE",
"337 123 OFFCURVE",
"264 123 CURVE"
);
}
);
width = 680;
}
);
},
{
color = 3;
glyphname = O.fina;
lastChange = "2019-12-27 14:32:58 +0000";
layers = (
{
layerId = "E91C2A68-9D13-40A3-B48F-6510F845363B";
paths = (
{
closed = 1;
nodes = (
"197 40 LINE",
"324 40 OFFCURVE",
"395 123 OFFCURVE",
"395 249 CURVE",
"395 314 OFFCURVE",
"378 388 OFFCURVE",
"348 444 CURVE",
"0 444 LINE",
"0 364 LINE",
"20 364 LINE",
"7 333 OFFCURVE",
"0 294 OFFCURVE",
"0 249 CURVE",
"0 116 OFFCURVE",
"69 40 OFFCURVE",
"197 40 CURVE"
);
},
{
closed = 1;
nodes = (
"197 123 LINE",
"118 123 OFFCURVE",
"79 166 OFFCURVE",
"79 251 CURVE",
"79 295 OFFCURVE",
"86 333 OFFCURVE",
"99 364 CURVE",
"294 364 LINE",
"309 330 OFFCURVE",
"316 292 OFFCURVE",
"316 251 CURVE",
"316 166 OFFCURVE",
"271 123 OFFCURVE",
"197 123 CURVE"
);
}
);
width = 440;
}
);
},
{
color = 3;
glyphname = Ue.fina;
lastChange = "2019-12-27 14:32:58 +0000";
layers = (
{
layerId = "E91C2A68-9D13-40A3-B48F-6510F845363B";
paths = (
{
closed = 1;
nodes = (
"197 40 LINE",
"324 40 OFFCURVE",
"395 123 OFFCURVE",
"395 249 CURVE",
"395 293 OFFCURVE",
"388 331 OFFCURVE",
"373 364 CURVE",
"523 364 LINE SMOOTH",
"594 364 OFFCURVE",
"621 333 OFFCURVE",
"621 279 CURVE",
"621 236 OFFCURVE",
"614 197 OFFCURVE",
"599 162 CURVE",
"673 162 LINE",
"690 198 OFFCURVE",
"698 237 OFFCURVE",
"698 279 CURVE",
"698 389 OFFCURVE",
"640 444 OFFCURVE",
"523 444 CURVE",
"0 444 LINE",
"0 364 LINE",
"20 364 LINE",
"7 333 OFFCURVE",
"0 294 OFFCURVE",
"0 249 CURVE",
"0 116 OFFCURVE",
"69 40 OFFCURVE",
"197 40 CURVE"
);
},
{
closed = 1;
nodes = (
"197 123 LINE",
"118 123 OFFCURVE",
"79 166 OFFCURVE",
"79 251 CURVE",
"79 295 OFFCURVE",
"86 333 OFFCURVE",
"99 364 CURVE",
"296 364 LINE",
"309 333 OFFCURVE",
"316 295 OFFCURVE",
"316 251 CURVE",
"316 166 OFFCURVE",
"271 123 OFFCURVE",
"197 123 CURVE"
);
}
);
width = 743;
}
);
},
{
color = 3;
glyphname = I.medi;
lastChange = "2019-12-27 14:32:58 +0000";
layers = (
{
layerId = "E91C2A68-9D13-40A3-B48F-6510F845363B";
paths = (
{
closed = 1;
nodes = (
"173 -67 LINE",
"246 -31 LINE",
"173 100 OFFCURVE",
"117 231 OFFCURVE",
"79 364 CURVE",
"391 364 LINE",
"391 444 LINE",
"0 444 LINE",
"0 364 LINE",
"37 224 OFFCURVE",
"94 80 OFFCURVE",
"173 -67 CURVE"
);
}
);
width = 361;
}
);
},
{
color = 3;
glyphname = I.fina;
lastChange = "2019-12-27 14:32:58 +0000";
layers = (
{
layerId = "E91C2A68-9D13-40A3-B48F-6510F845363B";
paths = (
{
closed = 1;
nodes = (
"127 42 LINE",
"198 85 LINE",
"120 194 OFFCURVE",
"77 285 OFFCURVE",
"77 407 CURVE",
"77 567 OFFCURVE",
"134 644 OFFCURVE",
"226 644 CURVE",
"314 644 OFFCURVE",
"366 546 OFFCURVE",
"376 376 CURVE",
"456 386 LINE",
"446 568 OFFCURVE",
"381 727 OFFCURVE",
"226 727 CURVE",
"74 727 OFFCURVE",
"-2 586 OFFCURVE",
"-2 407 CURVE",
"-2 292 OFFCURVE",
"41 170 OFFCURVE",
"127 42 CURVE"
);
}
);
width = 501;
}
);
},
{
color = 3;
glyphname = Y.medi;
lastChange = "2019-12-27 14:32:58 +0000";
layers = (
{
layerId = "E91C2A68-9D13-40A3-B48F-6510F845363B";
paths = (
{
closed = 1;
nodes = (
"65 -119 LINE",
"94 -95 OFFCURVE",
"198 -27 OFFCURVE",
"233 -7 CURVE",
"179 94 OFFCURVE",
"105 262 OFFCURVE",
"78 364 CURVE",
"391 364 LINE",
"391 444 LINE",
"0 444 LINE",
"0 364 LINE",
"29 252 OFFCURVE",
"71 139 OFFCURVE",
"126 25 CURVE",
"91 -4 OFFCURVE",
"59 -36 OFFCURVE",
"27 -70 CURVE"
);
}
);
width = 361;
}
);
},
{
color = 3;
glyphname = G.init;
lastChange = "2019-12-27 15:02:24 +0000";
layers = (
{
layerId = "E91C2A68-9D13-40A3-B48F-6510F845363B";
paths = (
{
closed = 1;
nodes = (
"174 42 LINE",
"245 85 LINE",
"167 194 OFFCURVE",
"124 285 OFFCURVE",
"124 407 CURVE",
"124 567 OFFCURVE",
"181 644 OFFCURVE",
"273 644 CURVE",
"393 644 OFFCURVE",
"417 530 OFFCURVE",
"428 364 CURVE",
"502 364 LINE",
"492 610 OFFCURVE",
"421 727 OFFCURVE",
"273 727 CURVE",
"132 727 OFFCURVE",
"45 601 OFFCURVE",
"45 407 CURVE",
"45 292 OFFCURVE",
"88 170 OFFCURVE",
"174 42 CURVE"
);
}
);
width = 428;
}
);
},
{
color = 3;
glyphname = G.medi;
lastChange = "2019-12-27 15:02:24 +0000";
layers = (
{
layerId = "E91C2A68-9D13-40A3-B48F-6510F845363B";
paths = (
{
closed = 1;
nodes = (
"127 42 LINE",
"198 85 LINE",
"120 194 OFFCURVE",
"77 285 OFFCURVE",
"77 407 CURVE",
"77 567 OFFCURVE",
"134 644 OFFCURVE",
"226 644 CURVE",
"346 644 OFFCURVE",
"370 530 OFFCURVE",
"381 364 CURVE",
"455 364 LINE",
"445 610 OFFCURVE",
"374 727 OFFCURVE",
"226 727 CURVE",
"85 727 OFFCURVE",
"-2 601 OFFCURVE",
"-2 407 CURVE",
"-2 292 OFFCURVE",
"41 170 OFFCURVE",
"127 42 CURVE"
);
}
);
width = 381;
}
);
},
{
color = 3;
glyphname = G.fina;
lastChange = "2019-12-27 15:02:24 +0000";
layers = (
{
layerId = "E91C2A68-9D13-40A3-B48F-6510F845363B";
paths = (
{
closed = 1;
nodes = (
"362 -264 LINE",
"444 -264 LINE",
"430 -238 OFFCURVE",
"423 -213 OFFCURVE",
"423 -187 CURVE",
"423 -126 OFFCURVE",
"443 -93 OFFCURVE",
"490 -31 CURVE",
"542 37 OFFCURVE",
"577 91 OFFCURVE",
"595 131 CURVE",
"613 171 OFFCURVE",
"623 209 OFFCURVE",
"623 245 CURVE",
"623 373 OFFCURVE",
"545 444 OFFCURVE",
"392 444 CURVE",
"0 444 LINE",
"0 364 LINE",
"37 224 OFFCURVE",
"94 80 OFFCURVE",
"173 -67 CURVE",
"246 -31 LINE",
"173 100 OFFCURVE",
"117 231 OFFCURVE",
"79 364 CURVE",
"391 364 LINE SMOOTH",
"498 364 OFFCURVE",
"545 325 OFFCURVE",
"545 245 CURVE",
"545 197 OFFCURVE",
"531 166 OFFCURVE",
"503 120 CURVE",
"488 95 OFFCURVE",
"466 64 OFFCURVE",
"438 28 CURVE",
"382 -44 OFFCURVE",
"343 -108 OFFCURVE",
"343 -187 CURVE",
"343 -216 OFFCURVE",
"349 -242 OFFCURVE",
"362 -264 CURVE"
);
}
);
width = 668;
}
);
},
{
color = 3;
glyphname = K.init;
lastChange = "2019-12-27 14:32:58 +0000";
layers = (
{
layerId = "E91C2A68-9D13-40A3-B48F-6510F845363B";
paths = (
{
closed = 1;
nodes = (
"174 42 LINE",
"245 85 LINE",
"175 181 OFFCURVE",
"135 269 OFFCURVE",
"125 364 CURVE",
"285 364 LINE",
"285 444 LINE",
"125 444 LINE",
"133 576 OFFCURVE",
"188 644 OFFCURVE",
"273 644 CURVE",
"393 644 OFFCURVE",
"417 530 OFFCURVE",
"428 364 CURVE",
"502 364 LINE",
"492 610 OFFCURVE",
"421 727 OFFCURVE",
"273 727 CURVE",
"133 727 OFFCURVE",
"45 601 OFFCURVE",
"45 407 CURVE",
"45 292 OFFCURVE",
"88 170 OFFCURVE",
"174 42 CURVE"
);
}
);
width = 428;
}
);
},
{
color = 3;
glyphname = K.fina;
lastChange = "2019-12-27 14:32:58 +0000";
layers = (
{
layerId = "E91C2A68-9D13-40A3-B48F-6510F845363B";
paths = (
{
closed = 1;
nodes = (
"259 -264 LINE",
"341 -264 LINE",
"327 -238 OFFCURVE",
"320 -213 OFFCURVE",
"320 -187 CURVE",
"320 -121 OFFCURVE",
"348 -76 OFFCURVE",
"403 -7 CURVE",
"450 52 OFFCURVE",
"489 108 OFFCURVE",
"518 163 CURVE",
"556 234 OFFCURVE",
"575 304 OFFCURVE",
"575 388 CURVE",
"575 588 OFFCURVE",
"475 727 OFFCURVE",
"284 727 CURVE",
"104 727 OFFCURVE",
"-2 601 OFFCURVE",
"-2 407 CURVE",
"-2 292 OFFCURVE",
"41 170 OFFCURVE",
"127 42 CURVE",
"198 85 LINE",
"126 185 OFFCURVE",
"87 270 OFFCURVE",
"79 364 CURVE",
"238 364 LINE",
"238 444 LINE",
"78 444 LINE",
"90 579 OFFCURVE",
"167 644 OFFCURVE",
"284 644 CURVE",
"422 644 OFFCURVE",
"497 542 OFFCURVE",
"497 388 CURVE",
"497 306 OFFCURVE",
"479 244 OFFCURVE",
"438 174 CURVE",
"418 140 OFFCURVE",
"389 98 OFFCURVE",
"350 50 CURVE",
"281 -35 OFFCURVE",
"240 -98 OFFCURVE",
"240 -187 CURVE",
"240 -214 OFFCURVE",
"247 -240 OFFCURVE",
"259 -264 CURVE"
);
}
);
width = 620;
}
);
},
{
color = 3;
glyphname = D.medi;
lastChange = "2019-12-27 14:32:58 +0000";
layers = (
{
layerId = "E91C2A68-9D13-40A3-B48F-6510F845363B";
paths = (
{
closed = 1;
nodes = (
"319 -157 LINE",
"419 -157 OFFCURVE",
"491 -83 OFFCURVE",
"491 27 CURVE",
"491 152 OFFCURVE",
"414 232 OFFCURVE",
"290 232 CURVE",
"228 232 OFFCURVE",
"174 201 OFFCURVE",
"142 154 CURVE",
"117 225 OFFCURVE",
"96 295 OFFCURVE",
"79 364 CURVE",
"643 364 LINE",
"643 444 LINE",
"0 444 LINE",
"0 364 LINE",
"23 266 OFFCURVE",
"50 174 OFFCURVE",
"84 88 CURVE",
"141 -55 OFFCURVE",
"201 -157 OFFCURVE",
"319 -157 CURVE"
);
},
{
closed = 1;
nodes = (
"319 -77 LINE",
"263 -77 OFFCURVE",
"217 -33 OFFCURVE",
"172 76 CURVE",
"195 123 OFFCURVE",
"239 153 OFFCURVE",
"290 153 CURVE",
"373 153 OFFCURVE",
"413 103 OFFCURVE",
"413 27 CURVE",
"413 -38 OFFCURVE",
"375 -77 OFFCURVE",
"319 -77 CURVE"
);
}
);
width = 613;
}
);
},
{
color = 3;
glyphname = D.fina;
lastChange = "2019-12-27 14:32:58 +0000";
layers = (
{
layerId = "E91C2A68-9D13-40A3-B48F-6510F845363B";
paths = (
{
closed = 1;
nodes = (
"319 -157 LINE",
"419 -157 OFFCURVE",
"491 -83 OFFCURVE",
"491 27 CURVE",
"491 152 OFFCURVE",
"414 232 OFFCURVE",
"290 232 CURVE",
"228 232 OFFCURVE",
"174 201 OFFCURVE",
"142 154 CURVE",
"117 225 OFFCURVE",
"96 295 OFFCURVE",
"79 364 CURVE",
"643 364 LINE SMOOTH",
"713 364 OFFCURVE",
"741 333 OFFCURVE",
"741 279 CURVE",
"741 236 OFFCURVE",
"734 197 OFFCURVE",
"719 162 CURVE",
"793 162 LINE",
"810 197 OFFCURVE",
"818 236 OFFCURVE",
"818 279 CURVE",
"818 389 OFFCURVE",
"760 444 OFFCURVE",
"643 444 CURVE",
"0 444 LINE",
"0 364 LINE",
"23 266 OFFCURVE",
"50 174 OFFCURVE",
"84 88 CURVE",
"141 -55 OFFCURVE",
"201 -157 OFFCURVE",
"319 -157 CURVE"
);
},
{
closed = 1;
nodes = (
"319 -77 LINE",
"263 -77 OFFCURVE",
"217 -33 OFFCURVE",
"172 76 CURVE",
"195 123 OFFCURVE",
"239 153 OFFCURVE",
"290 153 CURVE",
"373 153 OFFCURVE",
"413 103 OFFCURVE",
"413 27 CURVE",
"413 -38 OFFCURVE",
"375 -77 OFFCURVE",
"319 -77 CURVE"
);
}
);
width = 863;
}
);
},
{
color = 3;
glyphname = M.medi;
lastChange = "2019-12-27 14:32:58 +0000";
layers = (
{
layerId = "E91C2A68-9D13-40A3-B48F-6510F845363B";
paths = (
{
closed = 1;
nodes = (
"19 96 LINE",
"85 96 LINE",
"104 364 LINE",
"314 364 LINE",
"314 444 LINE",
"84 444 LINE",
"81 519 OFFCURVE",
"71 583 OFFCURVE",
"54 639 CURVE",
"90 639 LINE SMOOTH",
"170 639 OFFCURVE",
"226 641 OFFCURVE",
"269 677 CURVE",
"269 754 LINE",
"217 723 OFFCURVE",
"165 719 OFFCURVE",
"90 719 CURVE",
"-31 719 LINE",
"-31 653 LINE",
"0 581 OFFCURVE",
"12 518 OFFCURVE",
"14 444 CURVE",
"0 444 LINE",
"0 364 LINE"
);
}
);
width = 284;
}
);
},
{
color = 3;
glyphname = M.fina;
lastChange = "2019-12-27 14:32:58 +0000";
layers = (
{
layerId = "E91C2A68-9D13-40A3-B48F-6510F845363B";
paths = (
{
closed = 1;
nodes = (
"270 74 LINE",
"270 186 LINE SMOOTH",
"270 395 OFFCURVE",
"322 544 OFFCURVE",
"445 718 CURVE",
"346 718 LINE",
"239 571 OFFCURVE",
"191 396 OFFCURVE",
"191 183 CURVE",
"99 234 OFFCURVE",
"73 300 OFFCURVE",
"70 449 CURVE",
"69 506 OFFCURVE",
"63 558 OFFCURVE",
"49 606 CURVE",
"118 606 OFFCURVE",
"174 610 OFFCURVE",
"213 644 CURVE",
"213 722 LINE",
"169 690 OFFCURVE",
"117 686 OFFCURVE",
"45 686 CURVE",
"-27 686 LINE",
"-27 620 LINE",
"-9 564 OFFCURVE",
"0 507 OFFCURVE",
"0 449 CURVE",
"0 364 LINE SMOOTH",
"0 212 OFFCURVE",
"112 77 OFFCURVE",
"270 74 CURVE"
);
}
);
width = 455;
}
);
},
{
color = 3;
glyphname = S.medi;
lastChange = "2019-12-27 14:32:58 +0000";
layers = (
{
layerId = "E91C2A68-9D13-40A3-B48F-6510F845363B";
paths = (
{
closed = 1;
nodes = (
"28 73 LINE",
"105 73 LINE",
"97 106 OFFCURVE",
"93 148 OFFCURVE",
"93 199 CURVE",
"93 350 OFFCURVE",
"123 481 OFFCURVE",
"197 617 CURVE",
"201 617 LINE",
"217 419 OFFCURVE",
"256 247 OFFCURVE",
"334 73 CURVE",
"419 73 LINE",
"373 168 OFFCURVE",
"337 265 OFFCURVE",
"313 364 CURVE",
"611 364 LINE",
"611 444 LINE",
"296 444 LINE",
"279 539 OFFCURVE",
"271 636 OFFCURVE",
"271 734 CURVE",
"190 734 LINE",
"125 645 OFFCURVE",
"79 548 OFFCURVE",
"50 444 CURVE",
"0 444 LINE",
"0 364 LINE SMOOTH",
"0 276 OFFCURVE",
"11 159 OFFCURVE",
"28 73 CURVE"
);
}
);
width = 581;
}
);
},
{
color = 3;
glyphname = S.fina;
lastChange = "2019-12-27 14:32:58 +0000";
layers = (
{
layerId = "E91C2A68-9D13-40A3-B48F-6510F845363B";
paths = (
{
closed = 1;
nodes = (
"27 73 LINE",
"105 73 LINE",
"92 124 OFFCURVE",
"86 191 OFFCURVE",
"86 276 CURVE",
"86 395 OFFCURVE",
"111 495 OFFCURVE",
"166 613 CURVE",
"170 613 LINE",
"179 519 OFFCURVE",
"197 431 OFFCURVE",
"222 350 CURVE",
"247 268 OFFCURVE",
"283 187 OFFCURVE",
"328 106 CURVE",
"408 106 LINE",
"449 309 OFFCURVE",
"520 478 OFFCURVE",
"640 642 CURVE",
"543 642 LINE",
"457 520 OFFCURVE",
"392 375 OFFCURVE",
"358 223 CURVE",
"354 223 LINE",
"313 308 OFFCURVE",
"283 392 OFFCURVE",
"265 475 CURVE",
"247 558 OFFCURVE",
"238 644 OFFCURVE",
"238 734 CURVE",
"157 734 LINE",
"94 640 OFFCURVE",
"53 543 OFFCURVE",
"32 444 CURVE",
"0 444 LINE",
"0 364 LINE SMOOTH",
"0 276 OFFCURVE",
"11 168 OFFCURVE",
"27 73 CURVE"
);
}
);
width = 685;
}
);
},
{
color = 3;
glyphname = Sh.init;
lastChange = "2019-12-27 14:32:58 +0000";
layers = (
{
components = (
{
name = s;
}
);
layerId = "E91C2A68-9D13-40A3-B48F-6510F845363B";
paths = (
{
closed = 1;
nodes = (
"210 777 LINE",
"243 812 OFFCURVE",
"289 850 OFFCURVE",
"349 893 CURVE",
"288 962 LINE",
"249 923 OFFCURVE",
"209 875 OFFCURVE",
"167 816 CURVE"
);
},
{
closed = 1;
nodes = (
"417 777 LINE",
"450 812 OFFCURVE",
"496 850 OFFCURVE",
"556 893 CURVE",
"495 962 LINE",
"456 923 OFFCURVE",
"416 875 OFFCURVE",
"374 816 CURVE"
);
}
);
width = 681;
}
);
},
{
color = 3;
glyphname = Sh.medi;
lastChange = "2019-12-27 14:32:58 +0000";
layers = (
{
components = (
{
name = S.medi;
}
);
layerId = "E91C2A68-9D13-40A3-B48F-6510F845363B";
paths = (
{
closed = 1;
nodes = (
"140 777 LINE",
"173 812 OFFCURVE",
"219 850 OFFCURVE",
"279 893 CURVE",
"218 962 LINE",
"179 923 OFFCURVE",
"139 875 OFFCURVE",
"97 816 CURVE"
);
},
{
closed = 1;
nodes = (
"347 777 LINE",
"380 812 OFFCURVE",
"426 850 OFFCURVE",
"486 893 CURVE",
"425 962 LINE",
"386 923 OFFCURVE",
"346 875 OFFCURVE",
"304 816 CURVE"
);
}
);
width = 581;
}
);
},
{
color = 3;
glyphname = Sh.fina;
lastChange = "2019-12-27 14:32:58 +0000";
layers = (
{
components = (
{
name = S.fina;
}
);
layerId = "E91C2A68-9D13-40A3-B48F-6510F845363B";
paths = (
{
closed = 1;
nodes = (
"108 777 LINE",
"141 812 OFFCURVE",
"187 850 OFFCURVE",
"247 893 CURVE",
"186 962 LINE",
"147 923 OFFCURVE",
"107 875 OFFCURVE",
"65 816 CURVE"
);
},
{
closed = 1;
nodes = (
"315 777 LINE",
"348 812 OFFCURVE",
"394 850 OFFCURVE",
"454 893 CURVE",
"393 962 LINE",
"354 923 OFFCURVE",
"314 875 OFFCURVE",
"272 816 CURVE"
);
}
);
width = 685;
}
);
},
{
color = 3;
glyphname = B.init;
lastChange = "2019-12-27 14:32:58 +0000";
layers = (
{
layerId = "E91C2A68-9D13-40A3-B48F-6510F845363B";
paths = (
{
closed = 1;
nodes = (
"273 40 LINE",
"376 40 OFFCURVE",
"451 138 OFFCURVE",
"451 275 CURVE",
"451 312 OFFCURVE",
"440 410 OFFCURVE",
"428 444 CURVE",
"124 444 LINE",
"126 590 OFFCURVE",
"198 699 OFFCURVE",
"335 699 CURVE",
"467 699 OFFCURVE",
"552 576 OFFCURVE",
"557 364 CURVE",
"631 364 LINE",
"631 586 OFFCURVE",
"531 782 OFFCURVE",
"335 782 CURVE",
"141 782 OFFCURVE",
"45 624 OFFCURVE",
"45 408 CURVE",
"45 162 OFFCURVE",
"118 40 OFFCURVE",
"273 40 CURVE"
);
},
{
closed = 1;
nodes = (
"264 123 LINE",
"173 123 OFFCURVE",
"126 203 OFFCURVE",
"124 364 CURVE",
"362 364 LINE",
"369 345 OFFCURVE",
"372 315 OFFCURVE",
"372 275 CURVE",
"372 190 OFFCURVE",
"337 123 OFFCURVE",
"264 123 CURVE"
);
}
);
width = 557;
}
);
},
{
color = 3;
glyphname = B.fina;
lastChange = "2019-12-27 14:32:58 +0000";
layers = (
{
layerId = "E91C2A68-9D13-40A3-B48F-6510F845363B";
paths = (
{
closed = 1;
nodes = (
"397 -264 LINE",
"479 -264 LINE",
"465 -238 OFFCURVE",
"458 -213 OFFCURVE",
"458 -187 CURVE",
"458 -119 OFFCURVE",
"482 -79 OFFCURVE",
"536 -7 CURVE",
"638 130 OFFCURVE",
"702 243 OFFCURVE",
"702 388 CURVE",
"702 632 OFFCURVE",
"569 782 OFFCURVE",
"344 782 CURVE",
"123 782 OFFCURVE",
"-1 640 OFFCURVE",
"-1 408 CURVE",
"-1 164 OFFCURVE",
"71 40 OFFCURVE",
"225 40 CURVE",
"328 40 OFFCURVE",
"405 136 OFFCURVE",
"405 275 CURVE",
"405 316 OFFCURVE",
"395 403 OFFCURVE",
"382 444 CURVE",
"78 444 LINE",
"82 606 OFFCURVE",
"182 699 OFFCURVE",
"344 699 CURVE",
"523 699 OFFCURVE",
"623 583 OFFCURVE",
"623 388 CURVE",
"623 260 OFFCURVE",
"577 173 OFFCURVE",
"484 50 CURVE",
"419 -35 OFFCURVE",
"378 -102 OFFCURVE",
"378 -187 CURVE",
"378 -214 OFFCURVE",
"384 -239 OFFCURVE",
"397 -264 CURVE"
);
},
{
closed = 1;
nodes = (
"218 123 LINE",
"127 123 OFFCURVE",
"81 203 OFFCURVE",
"78 364 CURVE",
"316 364 LINE",
"323 343 OFFCURVE",
"326 313 OFFCURVE",
"326 275 CURVE",
"326 190 OFFCURVE",
"291 123 OFFCURVE",
"218 123 CURVE"
);
}
);
width = 747;
}
);
},
{
color = 3;
glyphname = P.init;
lastChange = "2019-12-27 14:32:58 +0000";
layers = (
{
layerId = "E91C2A68-9D13-40A3-B48F-6510F845363B";
paths = (
{
closed = 1;
nodes = (
"62 42 LINE",
"109 68 OFFCURVE",
"162 73 OFFCURVE",
"231 73 CURVE",
"346 73 OFFCURVE",
"418 158 OFFCURVE",
"418 275 CURVE",
"418 332 OFFCURVE",
"411 388 OFFCURVE",
"397 444 CURVE",
"124 444 LINE",
"126 588 OFFCURVE",
"194 699 OFFCURVE",
"330 699 CURVE",
"462 699 OFFCURVE",
"547 578 OFFCURVE",
"552 364 CURVE",
"626 364 LINE",
"626 586 OFFCURVE",
"526 782 OFFCURVE",
"330 782 CURVE",
"138 782 OFFCURVE",
"45 624 OFFCURVE",
"45 408 CURVE",
"45 364 LINE",
"329 364 LINE",
"335 344 OFFCURVE",
"339 314 OFFCURVE",
"339 275 CURVE",
"339 201 OFFCURVE",
"298 153 OFFCURVE",
"231 153 CURVE",
"166 153 OFFCURVE",
"104 150 OFFCURVE",
"62 122 CURVE"
);
}
);
width = 552;
}
);
},
{
color = 3;
glyphname = P.fina;
lastChange = "2019-12-27 14:32:58 +0000";
layers = (
{
layerId = "E91C2A68-9D13-40A3-B48F-6510F845363B";
paths = (
{
closed = 1;
nodes = (
"365 -264 LINE",
"447 -264 LINE",
"433 -238 OFFCURVE",
"426 -213 OFFCURVE",
"426 -187 CURVE",
"426 -120 OFFCURVE",
"450 -79 OFFCURVE",
"504 -7 CURVE",
"605 128 OFFCURVE",
"670 244 OFFCURVE",
"670 388 CURVE",
"670 631 OFFCURVE",
"544 782 OFFCURVE",
"321 782 CURVE",
"122 782 OFFCURVE",
"0 638 OFFCURVE",
"0 408 CURVE",
"0 364 LINE",
"284 364 LINE",
"291 344 OFFCURVE",
"294 314 OFFCURVE",
"294 275 CURVE",
"294 201 OFFCURVE",
"253 153 OFFCURVE",
"186 153 CURVE",
"121 153 OFFCURVE",
"60 150 OFFCURVE",
"16 122 CURVE",
"16 42 LINE",
"63 67 OFFCURVE",
"116 73 OFFCURVE",
"186 73 CURVE",
"301 73 OFFCURVE",
"373 158 OFFCURVE",
"373 275 CURVE",
"373 332 OFFCURVE",
"366 388 OFFCURVE",
"352 444 CURVE",
"79 444 LINE",
"83 595 OFFCURVE",
"167 699 OFFCURVE",
"322 699 CURVE",
"503 699 OFFCURVE",
"591 576 OFFCURVE",
"591 388 CURVE",
"591 258 OFFCURVE",
"546 176 OFFCURVE",
"452 50 CURVE",
"386 -38 OFFCURVE",
"346 -100 OFFCURVE",
"346 -187 CURVE",
"346 -217 OFFCURVE",
"353 -243 OFFCURVE",
"365 -264 CURVE"
);
}
);
width = 715;
}
);
},
{
color = 3;
glyphname = F.init;
lastChange = "2019-12-27 14:32:58 +0000";
layers = (
{
layerId = "E91C2A68-9D13-40A3-B48F-6510F845363B";
paths = (
{
closed = 1;
nodes = (
"199 -182 LINE",
"289 -182 LINE",
"264 -148 OFFCURVE",
"251 -108 OFFCURVE",
"251 -63 CURVE",
"251 -25 OFFCURVE",
"258 9 OFFCURVE",
"271 40 CURVE",
"275 40 LINE SMOOTH",
"376 40 OFFCURVE",
"451 138 OFFCURVE",
"451 274 CURVE",
"451 311 OFFCURVE",
"440 410 OFFCURVE",
"428 444 CURVE",
"124 444 LINE",
"126 590 OFFCURVE",
"198 699 OFFCURVE",
"335 699 CURVE",
"467 699 OFFCURVE",
"552 576 OFFCURVE",
"557 364 CURVE",
"631 364 LINE",
"631 586 OFFCURVE",
"532 782 OFFCURVE",
"336 782 CURVE",
"141 782 OFFCURVE",
"45 624 OFFCURVE",
"45 408 CURVE",
"45 202 OFFCURVE",
"96 83 OFFCURVE",
"201 50 CURVE",
"180 14 OFFCURVE",
"169 -24 OFFCURVE",
"169 -64 CURVE",
"169 -113 OFFCURVE",
"179 -152 OFFCURVE",
"199 -182 CURVE"
);
},
{
closed = 1;
nodes = (
"264 123 LINE",
"173 123 OFFCURVE",
"126 203 OFFCURVE",
"124 364 CURVE",
"362 364 LINE",
"369 345 OFFCURVE",
"372 315 OFFCURVE",
"372 275 CURVE",
"372 190 OFFCURVE",
"337 123 OFFCURVE",
"264 123 CURVE"
);
}
);
width = 557;
}
);
},
{
color = 3;
glyphname = F.fina;
lastChange = "2019-12-27 14:32:58 +0000";
layers = (
{
layerId = "E91C2A68-9D13-40A3-B48F-6510F845363B";
paths = (
{
closed = 1;
nodes = (
"397 -264 LINE",
"479 -264 LINE",
"465 -238 OFFCURVE",
"458 -213 OFFCURVE",
"458 -187 CURVE",
"458 -119 OFFCURVE",
"482 -79 OFFCURVE",
"536 -7 CURVE",
"594 70 OFFCURVE",
"636 139 OFFCURVE",
"663 199 CURVE",
"690 259 OFFCURVE",
"702 324 OFFCURVE",
"702 390 CURVE",
"702 634 OFFCURVE",
"569 782 OFFCURVE",
"344 782 CURVE",
"123 782 OFFCURVE",
"-1 640 OFFCURVE",
"-1 408 CURVE",
"-1 203 OFFCURVE",
"49 83 OFFCURVE",
"155 50 CURVE",
"134 13 OFFCURVE",
"123 -25 OFFCURVE",
"123 -64 CURVE",
"123 -112 OFFCURVE",
"133 -152 OFFCURVE",
"153 -182 CURVE",
"243 -182 LINE",
"218 -148 OFFCURVE",
"205 -108 OFFCURVE",
"205 -63 CURVE",
"205 -25 OFFCURVE",
"212 9 OFFCURVE",
"225 40 CURVE",
"228 40 LINE SMOOTH",
"330 40 OFFCURVE",
"405 138 OFFCURVE",
"405 275 CURVE",
"405 316 OFFCURVE",
"395 403 OFFCURVE",
"382 444 CURVE",
"78 444 LINE",
"82 606 OFFCURVE",
"182 699 OFFCURVE",
"344 699 CURVE",
"523 699 OFFCURVE",
"623 583 OFFCURVE",
"623 388 CURVE",
"623 330 OFFCURVE",
"613 277 OFFCURVE",
"594 230 CURVE",
"575 183 OFFCURVE",
"539 123 OFFCURVE",
"484 50 CURVE",
"420 -35 OFFCURVE",
"378 -102 OFFCURVE",
"378 -187 CURVE",
"378 -214 OFFCURVE",
"384 -239 OFFCURVE",
"397 -264 CURVE"
);
},
{
closed = 1;
nodes = (
"218 123 LINE",
"127 123 OFFCURVE",
"81 203 OFFCURVE",
"78 364 CURVE",
"316 364 LINE",
"323 343 OFFCURVE",
"326 313 OFFCURVE",
"326 275 CURVE",
"326 190 OFFCURVE",
"291 123 OFFCURVE",
"218 123 CURVE"
);
}
);
width = 747;
}
);
},
{
color = 3;
glyphname = Ch.medi;
lastChange = "2019-12-27 14:32:58 +0000";
layers = (
{
layerId = "E91C2A68-9D13-40A3-B48F-6510F845363B";
paths = (
{
closed = 1;
nodes = (
"0 16 LINE",
"68 57 OFFCURVE",
"138 63 OFFCURVE",
"235 63 CURVE",
"356 63 LINE",
"356 129 LINE",
"329 209 OFFCURVE",
"315 280 OFFCURVE",
"315 364 CURVE",
"560 364 LINE",
"560 444 LINE",
"0 444 LINE",
"0 364 LINE",
"241 364 LINE",
"241 279 OFFCURVE",
"251 206 OFFCURVE",
"271 143 CURVE",
"235 143 LINE SMOOTH",
"141 143 OFFCURVE",
"63 141 OFFCURVE",
"0 101 CURVE"
);
}
);
width = 530;
}
);
},
{
color = 3;
glyphname = Ch.fina;
lastChange = "2019-12-27 14:32:58 +0000";
layers = (
{
layerId = "E91C2A68-9D13-40A3-B48F-6510F845363B";
paths = (
{
closed = 1;
nodes = (
"0 16 LINE",
"68 57 OFFCURVE",
"138 63 OFFCURVE",
"235 63 CURVE",
"356 63 LINE",
"356 129 LINE",
"329 209 OFFCURVE",
"315 280 OFFCURVE",
"315 364 CURVE",
"560 364 LINE SMOOTH",
"630 364 OFFCURVE",
"658 333 OFFCURVE",
"658 279 CURVE",
"658 236 OFFCURVE",
"651 197 OFFCURVE",
"636 162 CURVE",
"710 162 LINE",
"727 197 OFFCURVE",
"735 236 OFFCURVE",
"735 279 CURVE",
"735 389 OFFCURVE",
"677 444 OFFCURVE",
"560 444 CURVE",
"0 444 LINE",
"0 364 LINE",
"241 364 LINE",
"241 279 OFFCURVE",
"251 206 OFFCURVE",
"271 143 CURVE",
"235 143 LINE SMOOTH",
"141 143 OFFCURVE",
"63 141 OFFCURVE",
"0 101 CURVE"
);
}
);
width = 780;
}
);
},
{
color = 3;
glyphname = J.medi;
lastChange = "2019-12-27 14:32:58 +0000";
layers = (
{
layerId = "E91C2A68-9D13-40A3-B48F-6510F845363B";
paths = (
{
closed = 1;
nodes = (
"0 5 LINE",
"43 44 OFFCURVE",
"89 77 OFFCURVE",
"137 103 CURVE",
"245 161 LINE SMOOTH",
"318 200 OFFCURVE",
"351 262 OFFCURVE",
"351 364 CURVE",
"560 364 LINE",
"560 444 LINE",
"0 444 LINE",
"0 364 LINE",
"274 364 LINE",
"274 293 OFFCURVE",
"255 254 OFFCURVE",
"196 222 CURVE",
"114 178 LINE SMOOTH",
"59 149 OFFCURVE",
"22 122 OFFCURVE",
"0 100 CURVE"
);
}
);
width = 530;
}
);
},
{
color = 3;
glyphname = J.fina;
lastChange = "2019-12-27 14:32:58 +0000";
layers = (
{
layerId = "E91C2A68-9D13-40A3-B48F-6510F845363B";
paths = (
{
closed = 1;
nodes = (
"0 5 LINE",
"43 44 OFFCURVE",
"89 77 OFFCURVE",
"137 103 CURVE",
"245 161 LINE SMOOTH",
"319 201 OFFCURVE",
"351 262 OFFCURVE",
"351 364 CURVE",
"560 364 LINE SMOOTH",
"630 364 OFFCURVE",
"658 333 OFFCURVE",
"658 279 CURVE",
"658 236 OFFCURVE",
"651 197 OFFCURVE",
"636 162 CURVE",
"710 162 LINE",
"727 197 OFFCURVE",
"735 236 OFFCURVE",
"735 279 CURVE",
"735 389 OFFCURVE",
"677 444 OFFCURVE",
"560 444 CURVE",
"0 444 LINE",
"0 364 LINE",
"274 364 LINE",
"274 293 OFFCURVE",
"255 254 OFFCURVE",
"196 222 CURVE",
"114 178 LINE SMOOTH",
"60 149 OFFCURVE",
"22 122 OFFCURVE",
"0 100 CURVE"
);
}
);
width = 780;
}
);
},
{
color = 3;
glyphname = C.medi;
lastChange = "2019-12-27 14:32:58 +0000";
layers = (
{
layerId = "E91C2A68-9D13-40A3-B48F-6510F845363B";
paths = (
{
closed = 1;
nodes = (
"423 -171 LINE",
"507 -171 OFFCURVE",
"564 -117 OFFCURVE",
"564 -32 CURVE",
"564 43 OFFCURVE",
"514 100 OFFCURVE",
"433 100 CURVE",
"394 100 OFFCURVE",
"361 85 OFFCURVE",
"342 62 CURVE",
"339 63 LINE",
"336 82 OFFCURVE",
"335 103 OFFCURVE",
"335 125 CURVE",
"335 210 OFFCURVE",
"343 278 OFFCURVE",
"369 364 CURVE",
"685 364 LINE",
"685 444 LINE",
"0 444 LINE",
"0 364 LINE",
"294 364 LINE",
"275 296 OFFCURVE",
"266 223 OFFCURVE",
"266 143 CURVE",
"235 143 LINE SMOOTH",
"141 143 OFFCURVE",
"63 141 OFFCURVE",
"0 101 CURVE",
"0 16 LINE",
"68 57 OFFCURVE",
"138 63 OFFCURVE",
"235 63 CURVE",
"267 63 LINE",
"274 -57 OFFCURVE",
"323 -171 OFFCURVE",
"423 -171 CURVE"
);
},
{
closed = 1;
nodes = (
"427 -99 LINE",
"384 -99 OFFCURVE",
"358 -55 OFFCURVE",
"350 -8 CURVE",
"360 19 OFFCURVE",
"390 37 OFFCURVE",
"423 37 CURVE",
"468 37 OFFCURVE",
"494 9 OFFCURVE",
"494 -32 CURVE",
"494 -71 OFFCURVE",
"470 -99 OFFCURVE",
"427 -99 CURVE"
);
}
);
width = 655;
}
);
},
{
color = 3;
glyphname = C.fina;
lastChange = "2019-12-27 14:32:58 +0000";
layers = (
{
layerId = "E91C2A68-9D13-40A3-B48F-6510F845363B";
paths = (
{
closed = 1;
nodes = (
"423 -171 LINE",
"507 -171 OFFCURVE",
"564 -117 OFFCURVE",
"564 -32 CURVE",
"564 43 OFFCURVE",
"514 100 OFFCURVE",
"433 100 CURVE",
"394 100 OFFCURVE",
"361 85 OFFCURVE",
"342 62 CURVE",
"339 63 LINE",
"336 82 OFFCURVE",
"335 103 OFFCURVE",
"335 125 CURVE",
"335 210 OFFCURVE",
"343 278 OFFCURVE",
"369 364 CURVE",
"685 364 LINE",
"755 364 OFFCURVE",
"783 333 OFFCURVE",
"783 279 CURVE",
"783 236 OFFCURVE",
"776 197 OFFCURVE",
"761 162 CURVE",
"835 162 LINE",
"852 197 OFFCURVE",
"860 236 OFFCURVE",
"860 279 CURVE",
"860 389 OFFCURVE",
"802 444 OFFCURVE",
"685 444 CURVE",
"0 444 LINE",
"0 364 LINE",
"294 364 LINE",
"275 296 OFFCURVE",
"266 223 OFFCURVE",
"266 143 CURVE",
"235 143 LINE SMOOTH",
"141 143 OFFCURVE",
"63 141 OFFCURVE",
"0 101 CURVE",
"0 16 LINE",
"68 57 OFFCURVE",
"138 63 OFFCURVE",
"235 63 CURVE",
"267 63 LINE",
"274 -57 OFFCURVE",
"323 -171 OFFCURVE",
"423 -171 CURVE"
);
},
{
closed = 1;
nodes = (
"427 -99 LINE",
"384 -99 OFFCURVE",
"358 -55 OFFCURVE",
"350 -8 CURVE",
"360 19 OFFCURVE",
"390 37 OFFCURVE",
"423 37 CURVE",
"468 37 OFFCURVE",
"494 9 OFFCURVE",
"494 -32 CURVE",
"494 -71 OFFCURVE",
"470 -99 OFFCURVE",
"427 -99 CURVE"
);
}
);
width = 905;
}
);
},
{
color = 3;
glyphname = Z.medi;
lastChange = "2019-12-27 14:32:58 +0000";
layers = (
{
layerId = "E91C2A68-9D13-40A3-B48F-6510F845363B";
paths = (
{
closed = 1;
nodes = (
"449 -119 LINE",
"488 -119 OFFCURVE",
"517 -108 OFFCURVE",
"534 -85 CURVE",
"534 6 LINE",
"513 -22 OFFCURVE",
"486 -36 OFFCURVE",
"452 -36 CURVE",
"369 -36 OFFCURVE",
"339 43 OFFCURVE",
"339 151 CURVE",
"339 217 OFFCURVE",
"349 288 OFFCURVE",
"369 364 CURVE",
"608 364 LINE",
"608 444 LINE",
"0 444 LINE",
"0 364 LINE",
"294 364 LINE",
"275 296 OFFCURVE",
"266 223 OFFCURVE",
"266 143 CURVE",
"235 143 LINE SMOOTH",
"141 143 OFFCURVE",
"63 141 OFFCURVE",
"0 101 CURVE",
"0 16 LINE",
"68 57 OFFCURVE",
"138 63 OFFCURVE",
"235 63 CURVE",
"270 63 LINE",
"286 -50 OFFCURVE",
"349 -119 OFFCURVE",
"449 -119 CURVE"
);
}
);
width = 578;
}
);
},
{
color = 3;
glyphname = Z.fina;
lastChange = "2019-12-27 14:32:58 +0000";
layers = (
{
layerId = "E91C2A68-9D13-40A3-B48F-6510F845363B";
paths = (
{
closed = 1;
nodes = (
"449 -119 LINE",
"488 -119 OFFCURVE",
"517 -108 OFFCURVE",
"534 -85 CURVE",
"534 6 LINE",
"513 -22 OFFCURVE",
"486 -36 OFFCURVE",
"452 -36 CURVE",
"369 -36 OFFCURVE",
"339 43 OFFCURVE",
"339 151 CURVE",
"339 217 OFFCURVE",
"349 288 OFFCURVE",
"369 364 CURVE",
"608 364 LINE SMOOTH",
"679 364 OFFCURVE",
"706 333 OFFCURVE",
"706 279 CURVE",
"706 236 OFFCURVE",
"699 197 OFFCURVE",
"684 162 CURVE",
"758 162 LINE",
"775 198 OFFCURVE",
"783 237 OFFCURVE",
"783 279 CURVE",
"783 389 OFFCURVE",
"725 444 OFFCURVE",
"608 444 CURVE",
"0 444 LINE",
"0 364 LINE",
"294 364 LINE",
"275 296 OFFCURVE",
"266 223 OFFCURVE",
"266 143 CURVE",
"235 143 LINE SMOOTH",
"141 143 OFFCURVE",
"63 141 OFFCURVE",
"0 101 CURVE",
"0 16 LINE",
"68 57 OFFCURVE",
"138 63 OFFCURVE",
"235 63 CURVE",
"270 63 LINE",
"286 -50 OFFCURVE",
"349 -119 OFFCURVE",
"449 -119 CURVE"
);
}
);
width = 828;
}
);
},
{
color = 3;
glyphname = R.medi;
lastChange = "2019-12-27 14:32:58 +0000";
layers = (
{
layerId = "E91C2A68-9D13-40A3-B48F-6510F845363B";
paths = (
{
closed = 1;
nodes = (
"181 -131 LINE",
"254 -96 LINE",
"209 -13 OFFCURVE",
"174 67 OFFCURVE",
"146 143 CURVE",
"230 143 LINE SMOOTH",
"320 143 OFFCURVE",
"357 97 OFFCURVE",
"357 13 CURVE",
"357 -19 OFFCURVE",
"352 -44 OFFCURVE",
"342 -65 CURVE",
"421 -65 LINE",
"432 -38 OFFCURVE",
"437 -9 OFFCURVE",
"437 24 CURVE",
"437 144 OFFCURVE",
"362 223 OFFCURVE",
"233 223 CURVE",
"117 223 LINE",
"103 265 OFFCURVE",
"90 312 OFFCURVE",
"78 364 CURVE",
"589 364 LINE",
"589 444 LINE",
"0 444 LINE",
"0 364 LINE",
"39 198 OFFCURVE",
"99 33 OFFCURVE",
"181 -131 CURVE"
);
}
);
width = 559;
}
);
},
{
color = 3;
glyphname = R.fina;
lastChange = "2019-12-27 14:32:58 +0000";
layers = (
{
layerId = "E91C2A68-9D13-40A3-B48F-6510F845363B";
paths = (
{
closed = 1;
nodes = (
"137 12 LINE",
"208 55 LINE",
"162 119 OFFCURVE",
"128 179 OFFCURVE",
"107 236 CURVE",
"193 236 LINE SMOOTH",
"275 236 OFFCURVE",
"309 192 OFFCURVE",
"309 115 CURVE",
"309 88 OFFCURVE",
"304 65 OFFCURVE",
"294 47 CURVE",
"374 47 LINE",
"385 68 OFFCURVE",
"390 95 OFFCURVE",
"390 126 CURVE",
"390 241 OFFCURVE",
"319 315 OFFCURVE",
"196 315 CURVE",
"85 315 LINE",
"80 339 OFFCURVE",
"77 370 OFFCURVE",
"77 407 CURVE",
"77 536 OFFCURVE",
"120 642 OFFCURVE",
"229 642 CURVE",
"317 642 OFFCURVE",
"369 558 OFFCURVE",
"379 409 CURVE",
"459 419 LINE",
"448 591 OFFCURVE",
"381 725 OFFCURVE",
"229 725 CURVE",
"74 725 OFFCURVE",
"-2 587 OFFCURVE",
"-2 407 CURVE",
"-2 284 OFFCURVE",
"44 152 OFFCURVE",
"137 12 CURVE"
);
}
);
width = 504;
}
);
},
{
color = 3;
glyphname = T.medi;
lastChange = "2019-12-27 14:32:58 +0000";
layers = (
{
layerId = "E91C2A68-9D13-40A3-B48F-6510F845363B";
paths = (
{
closed = 1;
nodes = (
"359 96 LINE",
"425 96 LINE",
"444 364 LINE",
"654 364 LINE",
"654 444 LINE",
"414 444 LINE",
"406 640 OFFCURVE",
"361 777 OFFCURVE",
"197 777 CURVE",
"79 777 OFFCURVE",
"-1 691 OFFCURVE",
"-1 563 CURVE",
"-1 522 OFFCURVE",
"7 482 OFFCURVE",
"24 444 CURVE",
"0 444 LINE",
"0 364 LINE",
"340 364 LINE"
);
},
{
closed = 1;
nodes = (
"101 444 LINE",
"86 471 OFFCURVE",
"78 511 OFFCURVE",
"78 563 CURVE",
"78 642 OFFCURVE",
"121 694 OFFCURVE",
"197 694 CURVE",
"301 694 OFFCURVE",
"329 584 OFFCURVE",
"334 444 CURVE"
);
}
);
width = 624;
}
);
},
{
color = 3;
glyphname = T.fina;
lastChange = "2019-12-27 14:32:58 +0000";
layers = (
{
layerId = "E91C2A68-9D13-40A3-B48F-6510F845363B";
paths = (
{
closed = 1;
nodes = (
"359 96 LINE",
"425 96 LINE",
"444 364 LINE",
"654 364 LINE SMOOTH",
"725 364 OFFCURVE",
"752 333 OFFCURVE",
"752 279 CURVE",
"752 235 OFFCURVE",
"745 196 OFFCURVE",
"730 162 CURVE",
"804 162 LINE",
"821 199 OFFCURVE",
"829 238 OFFCURVE",
"829 279 CURVE",
"829 389 OFFCURVE",
"771 444 OFFCURVE",
"654 444 CURVE",
"414 444 LINE",
"406 643 OFFCURVE",
"361 777 OFFCURVE",
"197 777 CURVE",
"79 777 OFFCURVE",
"-1 691 OFFCURVE",
"-1 563 CURVE",
"-1 522 OFFCURVE",
"7 482 OFFCURVE",
"24 444 CURVE",
"0 444 LINE",
"0 364 LINE",
"340 364 LINE"
);
},
{
closed = 1;
nodes = (
"101 444 LINE",
"86 471 OFFCURVE",
"78 511 OFFCURVE",
"78 563 CURVE",
"78 642 OFFCURVE",
"121 694 OFFCURVE",
"197 694 CURVE",
"301 694 OFFCURVE",
"329 584 OFFCURVE",
"334 444 CURVE"
);
}
);
width = 874;
}
);
},
{
color = 3;
glyphname = Dh.medi;
lastChange = "2019-12-27 14:32:58 +0000";
layers = (
{
layerId = "E91C2A68-9D13-40A3-B48F-6510F845363B";
paths = (
{
closed = 1;
nodes = (
"197 40 LINE",
"324 40 OFFCURVE",
"395 123 OFFCURVE",
"395 249 CURVE",
"395 293 OFFCURVE",
"388 331 OFFCURVE",
"373 364 CURVE",
"573 364 LINE",
"592 96 LINE",
"658 96 LINE",
"677 364 LINE",
"887 364 LINE",
"887 444 LINE",
"0 444 LINE",
"0 364 LINE",
"20 364 LINE",
"7 333 OFFCURVE",
"0 294 OFFCURVE",
"0 249 CURVE",
"0 116 OFFCURVE",
"69 40 OFFCURVE",
"197 40 CURVE"
);
},
{
closed = 1;
nodes = (
"197 123 LINE",
"118 123 OFFCURVE",
"79 166 OFFCURVE",
"79 251 CURVE",
"79 295 OFFCURVE",
"86 333 OFFCURVE",
"99 364 CURVE",
"296 364 LINE",
"309 333 OFFCURVE",
"316 295 OFFCURVE",
"316 251 CURVE",
"316 166 OFFCURVE",
"271 123 OFFCURVE",
"197 123 CURVE"
);
}
);
width = 857;
}
);
},
{
color = 3;
glyphname = Dh.fina;
lastChange = "2019-12-27 14:32:58 +0000";
layers = (
{
layerId = "E91C2A68-9D13-40A3-B48F-6510F845363B";
paths = (
{
closed = 1;
nodes = (
"197 40 LINE",
"324 40 OFFCURVE",
"395 123 OFFCURVE",
"395 249 CURVE",
"395 293 OFFCURVE",
"388 331 OFFCURVE",
"373 364 CURVE",
"540 364 LINE",
"540 207 OFFCURVE",
"640 63 OFFCURVE",
"801 53 CURVE",
"801 156 LINE SMOOTH",
"801 398 OFFCURVE",
"853 665 OFFCURVE",
"990 836 CURVE",
"898 836 LINE",
"776 677 OFFCURVE",
"724 399 OFFCURVE",
"724 156 CURVE",
"631 211 OFFCURVE",
"614 307 OFFCURVE",
"614 444 CURVE",
"0 444 LINE",
"0 364 LINE",
"20 364 LINE",
"7 333 OFFCURVE",
"0 294 OFFCURVE",
"0 249 CURVE",
"0 116 OFFCURVE",
"69 40 OFFCURVE",
"197 40 CURVE"
);
},
{
closed = 1;
nodes = (
"197 123 LINE",
"118 123 OFFCURVE",
"79 166 OFFCURVE",
"79 251 CURVE",
"79 295 OFFCURVE",
"86 333 OFFCURVE",
"99 364 CURVE",
"296 364 LINE",
"309 333 OFFCURVE",
"316 295 OFFCURVE",
"316 251 CURVE",
"316 166 OFFCURVE",
"271 123 OFFCURVE",
"197 123 CURVE"
);
}
);
width = 1000;
}
);
},
{
color = 3;
glyphname = L.medi;
lastChange = "2019-12-27 14:32:58 +0000";
layers = (
{
layerId = "E91C2A68-9D13-40A3-B48F-6510F845363B";
paths = (
{
closed = 1;
nodes = (
"19 96 LINE",
"85 96 LINE",
"104 364 LINE",
"314 364 LINE",
"314 444 LINE",
"86 444 LINE",
"88 518 OFFCURVE",
"109 581 OFFCURVE",
"148 653 CURVE",
"148 719 LINE",
"28 719 LINE SMOOTH",
"-43 719 OFFCURVE",
"-102 721 OFFCURVE",
"-152 755 CURVE",
"-152 677 LINE",
"-112 642 OFFCURVE",
"-54 639 OFFCURVE",
"28 639 CURVE",
"62 639 LINE",
"34 580 OFFCURVE",
"19 515 OFFCURVE",
"16 444 CURVE",
"0 444 LINE",
"0 364 LINE"
);
}
);
width = 284;
}
);
},
{
color = 3;
glyphname = L.fina;
lastChange = "2019-12-27 14:32:58 +0000";
layers = (
{
layerId = "E91C2A68-9D13-40A3-B48F-6510F845363B";
paths = (
{
closed = 1;
nodes = (
"244 45 LINE",
"244 157 LINE SMOOTH",
"244 334 OFFCURVE",
"269 496 OFFCURVE",
"338 653 CURVE",
"338 714 LINE",
"162 714 LINE SMOOTH",
"116 714 OFFCURVE",
"80 716 OFFCURVE",
"55 721 CURVE",
"31 726 OFFCURVE",
"6 735 OFFCURVE",
"-18 750 CURVE",
"-18 672 LINE",
"0 657 OFFCURVE",
"21 647 OFFCURVE",
"46 642 CURVE",
"71 637 OFFCURVE",
"110 634 OFFCURVE",
"162 634 CURVE",
"240 634 LINE",
"190 503 OFFCURVE",
"165 345 OFFCURVE",
"165 159 CURVE",
"68 213 OFFCURVE",
"48 313 OFFCURVE",
"48 444 CURVE",
"-33 444 LINE",
"-33 364 LINE SMOOTH",
"-33 197 OFFCURVE",
"85 51 OFFCURVE",
"244 45 CURVE"
);
}
);
width = 383;
}
);
},
{
color = 3;
glyphname = Rh.fina;
lastChange = "2019-12-27 14:32:58 +0000";
layers = (
{
layerId = "E91C2A68-9D13-40A3-B48F-6510F845363B";
paths = (
{
closed = 1;
nodes = (
"336 -117 LINE",
"408 -117 OFFCURVE",
"462 -83 OFFCURVE",
"499 -14 CURVE",
"433 27 LINE",
"416 -12 OFFCURVE",
"379 -35 OFFCURVE",
"336 -35 CURVE",
"171 -35 OFFCURVE",
"78 178 OFFCURVE",
"78 372 CURVE",
"78 576 OFFCURVE",
"180 715 OFFCURVE",
"333 715 CURVE",
"412 715 OFFCURVE",
"456 680 OFFCURVE",
"481 592 CURVE",
"479 590 LINE",
"466 599 OFFCURVE",
"451 603 OFFCURVE",
"434 603 CURVE",
"395 603 OFFCURVE",
"352 593 OFFCURVE",
"305 573 CURVE",
"305 500 LINE",
"346 517 OFFCURVE",
"382 525 OFFCURVE",
"413 525 CURVE",
"473 525 OFFCURVE",
"491 483 OFFCURVE",
"497 404 CURVE",
"521 74 LINE",
"587 74 LINE",
"597 219 LINE SMOOTH",
"605 333 OFFCURVE",
"631 364 OFFCURVE",
"740 364 CURVE",
"817 364 LINE SMOOTH",
"888 364 OFFCURVE",
"915 333 OFFCURVE",
"915 279 CURVE",
"915 236 OFFCURVE",
"908 197 OFFCURVE",
"893 162 CURVE",
"967 162 LINE",
"984 198 OFFCURVE",
"992 237 OFFCURVE",
"992 279 CURVE",
"992 389 OFFCURVE",
"934 444 OFFCURVE",
"817 444 CURVE",
"739 444 LINE SMOOTH",
"655 444 OFFCURVE",
"602 416 OFFCURVE",
"580 361 CURVE",
"576 361 LINE",
"573 444 LINE SMOOTH",
"565 676 OFFCURVE",
"487 792 OFFCURVE",
"333 792 CURVE",
"137 792 OFFCURVE",
"-1 608 OFFCURVE",
"-1 374 CURVE",
"-1 123 OFFCURVE",
"119 -117 OFFCURVE",
"336 -117 CURVE"
);
}
);
width = 1037;
}
);
},
{
color = 3;
glyphname = H2.medi;
lastChange = "2019-12-27 14:32:58 +0000";
layers = (
{
layerId = "E91C2A68-9D13-40A3-B48F-6510F845363B";
paths = (
{
closed = 1;
nodes = (
"140 -182 LINE",
"409 -57 LINE",
"334 82 OFFCURVE",
"297 215 OFFCURVE",
"295 364 CURVE",
"551 364 LINE",
"551 444 LINE",
"219 444 LINE",
"219 366 LINE SMOOTH",
"219 220 OFFCURVE",
"247 93 OFFCURVE",
"303 -17 CURVE",
"179 -72 LINE",
"104 70 OFFCURVE",
"75 200 OFFCURVE",
"75 364 CURVE",
"75 444 LINE",
"0 444 LINE",
"0 364 LINE SMOOTH",
"0 166 OFFCURVE",
"45 -6 OFFCURVE",
"140 -182 CURVE"
);
}
);
width = 521;
}
);
},
{
color = 3;
glyphname = H2.fina;
lastChange = "2019-12-27 14:32:58 +0000";
layers = (
{
layerId = "E91C2A68-9D13-40A3-B48F-6510F845363B";
paths = (
{
closed = 1;
nodes = (
"140 -182 LINE",
"409 -57 LINE",
"334 82 OFFCURVE",
"297 215 OFFCURVE",
"295 364 CURVE",
"551 364 LINE SMOOTH",
"622 364 OFFCURVE",
"649 333 OFFCURVE",
"649 279 CURVE",
"649 235 OFFCURVE",
"642 196 OFFCURVE",
"627 162 CURVE",
"701 162 LINE",
"718 199 OFFCURVE",
"726 238 OFFCURVE",
"726 279 CURVE",
"726 389 OFFCURVE",
"667 444 OFFCURVE",
"551 444 CURVE",
"219 444 LINE",
"219 366 LINE SMOOTH",
"219 220 OFFCURVE",
"247 93 OFFCURVE",
"303 -17 CURVE",
"179 -72 LINE",
"104 70 OFFCURVE",
"75 200 OFFCURVE",
"75 364 CURVE",
"75 444 LINE",
"0 444 LINE",
"0 364 LINE SMOOTH",
"0 166 OFFCURVE",
"45 -6 OFFCURVE",
"140 -182 CURVE"
);
}
);
width = 771;
}
);
},
{
color = 10;
glyphname = m;
lastChange = "2019-12-27 14:09:00 +0000";
layers = (
{
layerId = "E91C2A68-9D13-40A3-B48F-6510F845363B";
paths = (
{
closed = 1;
nodes = (
"226 74 LINE",
"292 74 LINE",
"302 219 LINE SMOOTH",
"309 326 OFFCURVE",
"335 364 OFFCURVE",
"445 364 CURVE",
"522 364 LINE",
"522 444 LINE",
"444 444 LINE SMOOTH",
"360 444 OFFCURVE",
"307 416 OFFCURVE",
"285 361 CURVE",
"281 361 LINE",
"278 484 OFFCURVE",
"270 602 OFFCURVE",
"229 693 CURVE",
"265 693 LINE SMOOTH",
"320 693 OFFCURVE",
"359 696 OFFCURVE",
"383 701 CURVE",
"407 706 OFFCURVE",
"428 717 OFFCURVE",
"444 731 CURVE",
"444 808 LINE",
"427 796 OFFCURVE",
"405 788 OFFCURVE",
"380 782 CURVE",
"355 776 OFFCURVE",
"317 773 OFFCURVE",
"265 773 CURVE",
"144 773 LINE",
"144 716 LINE",
"163 698 OFFCURVE",
"178 674 OFFCURVE",
"189 646 CURVE",
"176 650 OFFCURVE",
"159 653 OFFCURVE",
"139 653 CURVE",
"100 653 OFFCURVE",
"57 643 OFFCURVE",
"10 623 CURVE",
"10 550 LINE",
"52 567 OFFCURVE",
"88 575 OFFCURVE",
"118 575 CURVE",
"180 575 OFFCURVE",
"194 522 OFFCURVE",
"200 437 CURVE"
);
}
);
width = 567;
}
);
},
{
color = 10;
glyphname = n;
lastChange = "2019-12-27 14:09:05 +0000";
layers = (
{
components = (
{
name = A.init;
}
);
layerId = "E91C2A68-9D13-40A3-B48F-6510F845363B";
paths = (
{
closed = 1;
nodes = (
"262 -163 LINE",
"295 -128 OFFCURVE",
"341 -90 OFFCURVE",
"401 -47 CURVE",
"340 22 LINE",
"301 -17 OFFCURVE",
"261 -65 OFFCURVE",
"219 -124 CURVE"
);
}
);
width = 567;
}
);
},
{
color = 10;
glyphname = r;
lastChange = "2019-12-27 14:09:26 +0000";
layers = (
{
layerId = "E91C2A68-9D13-40A3-B48F-6510F845363B";
paths = (
{
closed = 1;
nodes = (
"240 -131 LINE",
"313 -96 LINE",
"271 -17 OFFCURVE",
"234 63 OFFCURVE",
"205 143 CURVE",
"289 143 LINE SMOOTH",
"379 143 OFFCURVE",
"416 97 OFFCURVE",
"416 13 CURVE",
"416 -19 OFFCURVE",
"411 -44 OFFCURVE",
"401 -65 CURVE",
"480 -65 LINE",
"491 -38 OFFCURVE",
"496 -9 OFFCURVE",
"496 24 CURVE",
"496 144 OFFCURVE",
"421 223 OFFCURVE",
"292 223 CURVE",
"176 223 LINE",
"161 268 OFFCURVE",
"148 314 OFFCURVE",
"137 364 CURVE",
"648 364 LINE",
"648 444 LINE",
"45 444 LINE",
"72 267 OFFCURVE",
"137 76 OFFCURVE",
"240 -131 CURVE"
);
}
);
width = 693;
}
);
},
{
color = 10;
glyphname = t;
lastChange = "2019-12-27 14:09:29 +0000";
layers = (
{
layerId = "E91C2A68-9D13-40A3-B48F-6510F845363B";
paths = (
{
closed = 1;
nodes = (
"405 96 LINE",
"471 96 LINE",
"490 364 LINE",
"700 364 LINE",
"700 444 LINE",
"460 444 LINE",
"448 680 OFFCURVE",
"388 777 OFFCURVE",
"243 777 CURVE",
"122 777 OFFCURVE",
"45 686 OFFCURVE",
"45 563 CURVE",
"45 497 OFFCURVE",
"61 421 OFFCURVE",
"91 364 CURVE",
"386 364 LINE"
);
},
{
closed = 1;
nodes = (
"147 444 LINE",
"132 473 OFFCURVE",
"124 512 OFFCURVE",
"124 563 CURVE",
"124 646 OFFCURVE",
"171 694 OFFCURVE",
"243 694 CURVE",
"333 694 OFFCURVE",
"374 616 OFFCURVE",
"380 444 CURVE"
);
}
);
width = 745;
}
);
},
{
color = 10;
glyphname = d;
lastChange = "2019-12-27 14:10:08 +0000";
layers = (
{
layerId = "E91C2A68-9D13-40A3-B48F-6510F845363B";
paths = (
{
closed = 1;
nodes = (
"379 -157 LINE",
"480 -157 OFFCURVE",
"551 -84 OFFCURVE",
"551 27 CURVE",
"551 153 OFFCURVE",
"474 232 OFFCURVE",
"350 232 CURVE",
"288 232 OFFCURVE",
"234 201 OFFCURVE",
"202 154 CURVE",
"177 225 OFFCURVE",
"156 295 OFFCURVE",
"139 364 CURVE",
"703 364 LINE",
"703 444 LINE",
"45 444 LINE",
"62 342 OFFCURVE",
"89 238 OFFCURVE",
"128 131 CURVE",
"187 -32 OFFCURVE",
"250 -157 OFFCURVE",
"379 -157 CURVE"
);
},
{
closed = 1;
nodes = (
"379 -77 LINE",
"323 -77 OFFCURVE",
"277 -33 OFFCURVE",
"232 76 CURVE",
"255 123 OFFCURVE",
"299 153 OFFCURVE",
"350 153 CURVE",
"433 153 OFFCURVE",
"473 103 OFFCURVE",
"473 27 CURVE",
"473 -38 OFFCURVE",
"435 -77 OFFCURVE",
"379 -77 CURVE"
);
}
);
width = 748;
}
);
},
{
color = 10;
glyphname = ch;
lastChange = "2019-12-27 14:10:11 +0000";
layers = (
{
layerId = "E91C2A68-9D13-40A3-B48F-6510F845363B";
paths = (
{
closed = 1;
nodes = (
"162 16 LINE",
"230 57 OFFCURVE",
"300 63 OFFCURVE",
"397 63 CURVE",
"518 63 LINE",
"518 129 LINE",
"491 209 OFFCURVE",
"477 280 OFFCURVE",
"477 364 CURVE",
"722 364 LINE",
"722 444 LINE",
"63 444 LINE",
"45 364 LINE",
"403 364 LINE",
"403 280 OFFCURVE",
"413 207 OFFCURVE",
"433 143 CURVE",
"397 143 LINE SMOOTH",
"303 143 OFFCURVE",
"225 140 OFFCURVE",
"162 101 CURVE"
);
}
);
width = 767;
}
);
},
{
color = 10;
glyphname = l;
lastChange = "2019-12-27 14:10:20 +0000";
layers = (
{
layerId = "E91C2A68-9D13-40A3-B48F-6510F845363B";
paths = (
{
closed = 1;
nodes = (
"226 74 LINE",
"292 74 LINE",
"302 219 LINE SMOOTH",
"310 330 OFFCURVE",
"336 364 OFFCURVE",
"445 364 CURVE",
"522 364 LINE",
"522 444 LINE",
"444 444 LINE SMOOTH",
"360 444 OFFCURVE",
"307 416 OFFCURVE",
"285 361 CURVE",
"281 361 LINE",
"278 445 LINE SMOOTH",
"276 500 OFFCURVE",
"270 542 OFFCURVE",
"259 573 CURVE",
"266 640 OFFCURVE",
"292 698 OFFCURVE",
"339 766 CURVE",
"339 832 LINE",
"219 832 LINE SMOOTH",
"151 832 OFFCURVE",
"86 835 OFFCURVE",
"39 868 CURVE",
"39 790 LINE",
"80 754 OFFCURVE",
"142 752 OFFCURVE",
"219 752 CURVE",
"247 752 LINE",
"228 723 OFFCURVE",
"212 686 OFFCURVE",
"200 642 CURVE",
"182 649 OFFCURVE",
"162 653 OFFCURVE",
"139 653 CURVE",
"100 653 OFFCURVE",
"57 643 OFFCURVE",
"10 623 CURVE",
"10 550 LINE",
"52 567 OFFCURVE",
"88 575 OFFCURVE",
"118 575 CURVE",
"180 575 OFFCURVE",
"194 520 OFFCURVE",
"200 437 CURVE"
);
}
);
width = 567;
}
);
},
{
color = 10;
glyphname = sh;
lastChange = "2019-12-27 14:10:23 +0000";
layers = (
{
components = (
{
name = s;
}
);
layerId = "E91C2A68-9D13-40A3-B48F-6510F845363B";
paths = (
{
closed = 1;
nodes = (
"210 777 LINE",
"243 812 OFFCURVE",
"289 850 OFFCURVE",
"349 893 CURVE",
"288 962 LINE",
"249 923 OFFCURVE",
"209 875 OFFCURVE",
"167 816 CURVE"
);
},
{
closed = 1;
nodes = (
"417 777 LINE",
"450 812 OFFCURVE",
"496 850 OFFCURVE",
"556 893 CURVE",
"495 962 LINE",
"456 923 OFFCURVE",
"416 875 OFFCURVE",
"374 816 CURVE"
);
}
);
width = 756;
}
);
},
{
color = 10;
glyphname = s;
lastChange = "2019-12-27 14:10:25 +0000";
layers = (
{
layerId = "E91C2A68-9D13-40A3-B48F-6510F845363B";
paths = (
{
closed = 1;
nodes = (
"443 73 LINE",
"519 73 LINE",
"497 178 OFFCURVE",
"477 273 OFFCURVE",
"454 364 CURVE",
"711 364 LINE",
"711 444 LINE",
"433 444 LINE",
"406 545 OFFCURVE",
"378 642 OFFCURVE",
"349 734 CURVE",
"255 734 LINE",
"234 608 OFFCURVE",
"215 525 OFFCURVE",
"199 486 CURVE",
"183 446 OFFCURVE",
"160 427 OFFCURVE",
"130 427 CURVE",
"104 427 OFFCURVE",
"76 433 OFFCURVE",
"45 446 CURVE",
"45 371 LINE",
"74 354 OFFCURVE",
"104 346 OFFCURVE",
"135 346 CURVE",
"216 346 OFFCURVE",
"249 394 OFFCURVE",
"273 480 CURVE",
"287 532 OFFCURVE",
"297 579 OFFCURVE",
"302 620 CURVE",
"306 620 LINE",
"327 562 OFFCURVE",
"350 484 OFFCURVE",
"374 387 CURVE",
"398 291 OFFCURVE",
"421 186 OFFCURVE",
"443 73 CURVE"
);
}
);
width = 756;
}
);
},
{
color = 10;
glyphname = a;
lastChange = "2019-12-27 14:10:27 +0000";
layers = (
{
layerId = "E91C2A68-9D13-40A3-B48F-6510F845363B";
paths = (
{
closed = 1;
nodes = (
"730 53 LINE",
"730 156 LINE SMOOTH",
"730 398 OFFCURVE",
"781 666 OFFCURVE",
"919 836 CURVE",
"827 836 LINE",
"706 677 OFFCURVE",
"653 397 OFFCURVE",
"653 156 CURVE",
"560 210 OFFCURVE",
"543 312 OFFCURVE",
"543 444 CURVE",
"444 444 LINE SMOOTH",
"360 444 OFFCURVE",
"307 416 OFFCURVE",
"285 361 CURVE",
"281 361 LINE",
"278 445 LINE SMOOTH",
"273 575 OFFCURVE",
"248 653 OFFCURVE",
"139 653 CURVE",
"100 653 OFFCURVE",
"57 643 OFFCURVE",
"10 623 CURVE",
"10 550 LINE",
"52 567 OFFCURVE",
"88 575 OFFCURVE",
"118 575 CURVE",
"179 575 OFFCURVE",
"194 520 OFFCURVE",
"200 437 CURVE",
"226 74 LINE",
"292 74 LINE",
"302 219 LINE SMOOTH",
"310 330 OFFCURVE",
"336 364 OFFCURVE",
"445 364 CURVE",
"469 364 LINE",
"469 205 OFFCURVE",
"570 63 OFFCURVE",
"730 53 CURVE"
);
}
);
width = 929;
}
);
},
{
color = 10;
glyphname = y;
lastChange = "2019-12-27 14:10:34 +0000";
layers = (
{
layerId = "E91C2A68-9D13-40A3-B48F-6510F845363B";
paths = (
{
closed = 1;
nodes = (
"125 -119 LINE",
"154 -95 OFFCURVE",
"258 -27 OFFCURVE",
"293 -7 CURVE",
"239 94 OFFCURVE",
"165 262 OFFCURVE",
"138 364 CURVE",
"451 364 LINE",
"451 444 LINE",
"45 444 LINE",
"67 310 OFFCURVE",
"123 152 OFFCURVE",
"186 25 CURVE",
"151 -4 OFFCURVE",
"119 -36 OFFCURVE",
"87 -70 CURVE"
);
}
);
width = 496;
}
);
},
{
color = 10;
glyphname = cr;
lastChange = "2019-12-27 14:10:37 +0000";
layers = (
{
layerId = "E91C2A68-9D13-40A3-B48F-6510F845363B";
paths = (
{
closed = 1;
nodes = (
"242 40 LINE",
"369 40 OFFCURVE",
"440 123 OFFCURVE",
"440 249 CURVE",
"440 294 OFFCURVE",
"433 333 OFFCURVE",
"420 364 CURVE",
"549 364 LINE",
"536 331 OFFCURVE",
"529 293 OFFCURVE",
"529 249 CURVE",
"529 116 OFFCURVE",
"598 40 OFFCURVE",
"726 40 CURVE",
"852 40 OFFCURVE",
"924 122 OFFCURVE",
"924 249 CURVE",
"924 294 OFFCURVE",
"917 333 OFFCURVE",
"902 364 CURVE",
"1132 364 LINE",
"1132 444 LINE",
"90 444 LINE",
"59 392 OFFCURVE",
"45 336 OFFCURVE",
"45 260 CURVE",
"45 123 OFFCURVE",
"111 40 OFFCURVE",
"242 40 CURVE"
);
},
{
closed = 1;
nodes = (
"242 123 LINE",
"164 123 OFFCURVE",
"124 169 OFFCURVE",
"124 262 CURVE",
"124 303 OFFCURVE",
"131 336 OFFCURVE",
"144 364 CURVE",
"341 364 LINE",
"354 333 OFFCURVE",
"361 295 OFFCURVE",
"361 251 CURVE",
"361 166 OFFCURVE",
"315 123 OFFCURVE",
"242 123 CURVE"
);
},
{
closed = 1;
nodes = (
"726 123 LINE",
"647 123 OFFCURVE",
"608 166 OFFCURVE",
"608 251 CURVE",
"608 294 OFFCURVE",
"615 332 OFFCURVE",
"628 364 CURVE",
"825 364 LINE",
"838 332 OFFCURVE",
"845 294 OFFCURVE",
"845 251 CURVE",
"845 166 OFFCURVE",
"799 123 OFFCURVE",
"726 123 CURVE"
);
}
);
width = 1177;
}
);
},
{
color = 10;
glyphname = i;
lastChange = "2019-12-27 14:11:30 +0000";
layers = (
{
layerId = "E91C2A68-9D13-40A3-B48F-6510F845363B";
paths = (
{
closed = 1;
nodes = (
"619 42 LINE",
"691 85 LINE",
"617 188 OFFCURVE",
"569 287 OFFCURVE",
"569 407 CURVE",
"569 544 OFFCURVE",
"626 609 OFFCURVE",
"718 609 CURVE",
"806 609 OFFCURVE",
"857 525 OFFCURVE",
"868 376 CURVE",
"948 386 LINE",
"938 552 OFFCURVE",
"871 692 OFFCURVE",
"718 692 CURVE",
"582 692 OFFCURVE",
"502 595 OFFCURVE",
"491 444 CURVE",
"444 444 LINE SMOOTH",
"360 444 OFFCURVE",
"307 416 OFFCURVE",
"285 361 CURVE",
"281 361 LINE",
"278 445 LINE SMOOTH",
"273 575 OFFCURVE",
"248 653 OFFCURVE",
"139 653 CURVE",
"100 653 OFFCURVE",
"57 643 OFFCURVE",
"10 623 CURVE",
"10 550 LINE",
"52 567 OFFCURVE",
"88 575 OFFCURVE",
"118 575 CURVE",
"179 575 OFFCURVE",
"194 520 OFFCURVE",
"200 437 CURVE",
"226 74 LINE",
"292 74 LINE",
"302 219 LINE SMOOTH",
"309 326 OFFCURVE",
"335 364 OFFCURVE",
"445 364 CURVE",
"492 364 LINE",
"501 260 OFFCURVE",
"544 152 OFFCURVE",
"619 42 CURVE"
);
}
);
width = 993;
}
);
},
{
color = 10;
glyphname = o;
lastChange = "2019-12-27 14:11:30 +0000";
layers = (
{
layerId = "E91C2A68-9D13-40A3-B48F-6510F845363B";
paths = (
{
closed = 1;
nodes = (
"689 40 LINE",
"816 40 OFFCURVE",
"887 123 OFFCURVE",
"887 249 CURVE",
"887 311 OFFCURVE",
"869 392 OFFCURVE",
"840 444 CURVE",
"444 444 LINE SMOOTH",
"360 444 OFFCURVE",
"307 416 OFFCURVE",
"285 361 CURVE",
"281 361 LINE",
"278 445 LINE SMOOTH",
"273 575 OFFCURVE",
"248 653 OFFCURVE",
"139 653 CURVE",
"100 653 OFFCURVE",
"57 643 OFFCURVE",
"10 623 CURVE",
"10 550 LINE",
"52 567 OFFCURVE",
"88 575 OFFCURVE",
"118 575 CURVE",
"179 575 OFFCURVE",
"194 520 OFFCURVE",
"200 437 CURVE",
"226 74 LINE",
"292 74 LINE",
"302 219 LINE SMOOTH",
"309 326 OFFCURVE",
"335 364 OFFCURVE",
"445 364 CURVE",
"512 364 LINE",
"499 333 OFFCURVE",
"492 294 OFFCURVE",
"492 249 CURVE",
"492 116 OFFCURVE",
"562 40 OFFCURVE",
"689 40 CURVE"
);
},
{
closed = 1;
nodes = (
"689 123 LINE",
"610 123 OFFCURVE",
"571 166 OFFCURVE",
"571 251 CURVE",
"571 294 OFFCURVE",
"578 332 OFFCURVE",
"591 364 CURVE",
"786 364 LINE",
"801 329 OFFCURVE",
"808 291 OFFCURVE",
"808 251 CURVE",
"808 166 OFFCURVE",
"763 123 OFFCURVE",
"689 123 CURVE"
);
}
);
width = 932;
}
);
},
{
color = 10;
glyphname = oe;
lastChange = "2019-12-27 14:11:30 +0000";
layers = (
{
layerId = "E91C2A68-9D13-40A3-B48F-6510F845363B";
paths = (
{
closed = 1;
nodes = (
"689 40 LINE",
"816 40 OFFCURVE",
"887 123 OFFCURVE",
"887 249 CURVE",
"887 293 OFFCURVE",
"880 331 OFFCURVE",
"865 364 CURVE",
"1015 364 LINE SMOOTH",
"1085 364 OFFCURVE",
"1113 333 OFFCURVE",
"1113 279 CURVE",
"1113 235 OFFCURVE",
"1105 196 OFFCURVE",
"1091 162 CURVE",
"1165 162 LINE",
"1182 199 OFFCURVE",
"1190 238 OFFCURVE",
"1190 279 CURVE",
"1190 389 OFFCURVE",
"1132 444 OFFCURVE",
"1015 444 CURVE",
"444 444 LINE SMOOTH",
"360 444 OFFCURVE",
"307 416 OFFCURVE",
"285 361 CURVE",
"281 361 LINE",
"278 445 LINE SMOOTH",
"273 575 OFFCURVE",
"248 653 OFFCURVE",
"139 653 CURVE",
"100 653 OFFCURVE",
"57 643 OFFCURVE",
"10 623 CURVE",
"10 550 LINE",
"52 567 OFFCURVE",
"88 575 OFFCURVE",
"118 575 CURVE",
"179 575 OFFCURVE",
"194 520 OFFCURVE",
"200 437 CURVE",
"226 74 LINE",
"292 74 LINE",
"302 219 LINE SMOOTH",
"310 330 OFFCURVE",
"336 364 OFFCURVE",
"445 364 CURVE",
"512 364 LINE",
"499 333 OFFCURVE",
"492 294 OFFCURVE",
"492 249 CURVE",
"492 116 OFFCURVE",
"562 40 OFFCURVE",
"689 40 CURVE"
);
},
{
closed = 1;
nodes = (
"689 123 LINE",
"610 123 OFFCURVE",
"571 166 OFFCURVE",
"571 251 CURVE",
"571 294 OFFCURVE",
"578 332 OFFCURVE",
"591 364 CURVE",
"788 364 LINE",
"801 332 OFFCURVE",
"808 294 OFFCURVE",
"808 251 CURVE",
"808 166 OFFCURVE",
"763 123 OFFCURVE",
"689 123 CURVE"
);
}
);
width = 1235;
}
);
},
{
color = 10;
glyphname = e2;
lastChange = "2019-12-27 14:11:30 +0000";
layers = (
{
layerId = "E91C2A68-9D13-40A3-B48F-6510F845363B";
paths = (
{
closed = 1;
nodes = (
"801 -119 LINE",
"838 -119 OFFCURVE",
"870 -106 OFFCURVE",
"884 -85 CURVE",
"884 6 LINE",
"865 -22 OFFCURVE",
"837 -36 OFFCURVE",
"801 -36 CURVE",
"736 -36 OFFCURVE",
"693 51 OFFCURVE",
"648 153 CURVE",
"617 224 OFFCURVE",
"591 294 OFFCURVE",
"571 364 CURVE",
"980 364 LINE SMOOTH",
"1051 364 OFFCURVE",
"1078 333 OFFCURVE",
"1078 279 CURVE",
"1078 236 OFFCURVE",
"1071 197 OFFCURVE",
"1056 162 CURVE",
"1130 162 LINE",
"1146 197 OFFCURVE",
"1155 236 OFFCURVE",
"1155 279 CURVE",
"1155 389 OFFCURVE",
"1097 444 OFFCURVE",
"980 444 CURVE",
"444 444 LINE SMOOTH",
"360 444 OFFCURVE",
"307 416 OFFCURVE",
"285 361 CURVE",
"281 361 LINE",
"278 445 LINE SMOOTH",
"273 575 OFFCURVE",
"248 653 OFFCURVE",
"139 653 CURVE",
"100 653 OFFCURVE",
"57 643 OFFCURVE",
"10 623 CURVE",
"10 550 LINE",
"52 567 OFFCURVE",
"88 575 OFFCURVE",
"118 575 CURVE",
"179 575 OFFCURVE",
"194 520 OFFCURVE",
"200 437 CURVE",
"226 74 LINE",
"292 74 LINE",
"302 219 LINE SMOOTH",
"309 326 OFFCURVE",
"335 364 OFFCURVE",
"445 364 CURVE",
"492 364 LINE",
"515 280 OFFCURVE",
"541 203 OFFCURVE",
"570 132 CURVE",
"632 -21 OFFCURVE",
"684 -119 OFFCURVE",
"801 -119 CURVE"
);
}
);
width = 1200;
}
);
},
{
color = 10;
glyphname = p;
lastChange = "2019-12-27 14:10:55 +0000";
layers = (
{
layerId = "E91C2A68-9D13-40A3-B48F-6510F845363B";
paths = (
{
closed = 1;
nodes = (
"62 42 LINE",
"109 68 OFFCURVE",
"162 73 OFFCURVE",
"231 73 CURVE",
"346 73 OFFCURVE",
"418 158 OFFCURVE",
"418 275 CURVE",
"418 332 OFFCURVE",
"411 388 OFFCURVE",
"397 444 CURVE",
"124 444 LINE",
"126 588 OFFCURVE",
"194 699 OFFCURVE",
"330 699 CURVE",
"468 699 OFFCURVE",
"537 571 OFFCURVE",
"550 409 CURVE",
"630 419 LINE",
"616 614 OFFCURVE",
"511 782 OFFCURVE",
"330 782 CURVE",
"138 782 OFFCURVE",
"45 624 OFFCURVE",
"45 408 CURVE",
"45 364 LINE",
"329 364 LINE",
"335 344 OFFCURVE",
"339 314 OFFCURVE",
"339 275 CURVE",
"339 201 OFFCURVE",
"298 153 OFFCURVE",
"231 153 CURVE",
"166 153 OFFCURVE",
"104 150 OFFCURVE",
"62 122 CURVE"
);
}
);
width = 675;
}
);
},
{
color = 10;
glyphname = j;
lastChange = "2019-12-27 14:10:57 +0000";
layers = (
{
layerId = "E91C2A68-9D13-40A3-B48F-6510F845363B";
paths = (
{
closed = 1;
nodes = (
"233 -67 LINE",
"306 -31 LINE",
"233 100 OFFCURVE",
"177 231 OFFCURVE",
"139 364 CURVE",
"451 364 LINE",
"451 444 LINE",
"45 444 LINE",
"73 275 OFFCURVE",
"139 110 OFFCURVE",
"233 -67 CURVE"
);
}
);
width = 496;
}
);
},
{
color = 10;
glyphname = k;
lastChange = "2019-12-27 14:10:59 +0000";
layers = (
{
layerId = "E91C2A68-9D13-40A3-B48F-6510F845363B";
paths = (
{
closed = 1;
nodes = (
"174 42 LINE",
"245 85 LINE",
"173 185 OFFCURVE",
"134 270 OFFCURVE",
"126 364 CURVE",
"285 364 LINE",
"285 444 LINE",
"125 444 LINE",
"133 579 OFFCURVE",
"189 644 OFFCURVE",
"273 644 CURVE",
"362 644 OFFCURVE",
"414 573 OFFCURVE",
"426 409 CURVE",
"505 419 LINE",
"493 591 OFFCURVE",
"425 727 OFFCURVE",
"273 727 CURVE",
"133 727 OFFCURVE",
"45 602 OFFCURVE",
"45 408 CURVE",
"45 293 OFFCURVE",
"88 170 OFFCURVE",
"174 42 CURVE"
);
}
);
width = 550;
}
);
},
{
color = 10;
glyphname = f;
lastChange = "2019-12-27 14:11:02 +0000";
layers = (
{
layerId = "E91C2A68-9D13-40A3-B48F-6510F845363B";
paths = (
{
closed = 1;
nodes = (
"199 -182 LINE",
"289 -182 LINE",
"264 -148 OFFCURVE",
"251 -108 OFFCURVE",
"251 -63 CURVE",
"251 -25 OFFCURVE",
"258 9 OFFCURVE",
"271 40 CURVE",
"274 40 LINE SMOOTH",
"375 40 OFFCURVE",
"451 136 OFFCURVE",
"451 274 CURVE",
"451 311 OFFCURVE",
"440 410 OFFCURVE",
"428 444 CURVE",
"124 444 LINE",
"126 590 OFFCURVE",
"198 699 OFFCURVE",
"335 699 CURVE",
"476 699 OFFCURVE",
"543 567 OFFCURVE",
"555 409 CURVE",
"635 419 LINE",
"622 614 OFFCURVE",
"516 782 OFFCURVE",
"335 782 CURVE",
"141 782 OFFCURVE",
"45 624 OFFCURVE",
"45 408 CURVE",
"45 202 OFFCURVE",
"96 83 OFFCURVE",
"201 50 CURVE",
"180 14 OFFCURVE",
"169 -24 OFFCURVE",
"169 -64 CURVE",
"169 -113 OFFCURVE",
"179 -152 OFFCURVE",
"199 -182 CURVE"
);
},
{
closed = 1;
nodes = (
"264 123 LINE",
"173 123 OFFCURVE",
"126 203 OFFCURVE",
"124 364 CURVE",
"362 364 LINE",
"369 345 OFFCURVE",
"372 314 OFFCURVE",
"372 274 CURVE",
"372 189 OFFCURVE",
"336 123 OFFCURVE",
"264 123 CURVE"
);
}
);
width = 680;
}
);
},
{
color = 10;
glyphname = g;
lastChange = "2019-12-27 14:11:04 +0000";
layers = (
{
components = (
{
name = H.init;
}
);
layerId = "E91C2A68-9D13-40A3-B48F-6510F845363B";
paths = (
{
closed = 1;
nodes = (
"215 -141 LINE",
"248 -106 OFFCURVE",
"294 -68 OFFCURVE",
"354 -25 CURVE",
"293 44 LINE",
"254 5 OFFCURVE",
"214 -43 OFFCURVE",
"172 -102 CURVE"
);
},
{
closed = 1;
nodes = (
"391 -218 LINE",
"424 -183 OFFCURVE",
"470 -145 OFFCURVE",
"530 -102 CURVE",
"469 -33 LINE",
"430 -72 OFFCURVE",
"390 -120 OFFCURVE",
"348 -179 CURVE"
);
}
);
width = 863;
}
);
},
{
color = 10;
glyphname = w;
lastChange = "2019-12-27 14:11:05 +0000";
layers = (
{
layerId = "E91C2A68-9D13-40A3-B48F-6510F845363B";
paths = (
{
closed = 1;
nodes = (
"371 -119 LINE",
"408 -119 OFFCURVE",
"439 -106 OFFCURVE",
"454 -85 CURVE",
"454 6 LINE",
"435 -22 OFFCURVE",
"407 -36 OFFCURVE",
"371 -36 CURVE",
"306 -36 OFFCURVE",
"264 49 OFFCURVE",
"218 152 CURVE",
"186 224 OFFCURVE",
"161 294 OFFCURVE",
"141 364 CURVE",
"550 364 LINE",
"550 444 LINE",
"45 444 LINE",
"70 311 OFFCURVE",
"115 177 OFFCURVE",
"181 41 CURVE",
"228 -56 OFFCURVE",
"279 -119 OFFCURVE",
"371 -119 CURVE"
);
}
);
width = 595;
}
);
},
{
color = 10;
glyphname = h2;
lastChange = "2019-12-27 14:11:07 +0000";
layers = (
{
layerId = "E91C2A68-9D13-40A3-B48F-6510F845363B";
paths = (
{
closed = 1;
nodes = (
"632 -182 LINE",
"901 -57 LINE",
"827 82 OFFCURVE",
"790 215 OFFCURVE",
"787 364 CURVE",
"1043 364 LINE",
"1043 444 LINE",
"711 444 LINE",
"711 366 LINE SMOOTH",
"711 221 OFFCURVE",
"739 94 OFFCURVE",
"795 -17 CURVE",
"671 -72 LINE",
"596 69 OFFCURVE",
"567 199 OFFCURVE",
"567 364 CURVE",
"567 444 LINE",
"444 444 LINE SMOOTH",
"360 444 OFFCURVE",
"307 416 OFFCURVE",
"285 361 CURVE",
"281 361 LINE",
"278 445 LINE SMOOTH",
"273 575 OFFCURVE",
"248 653 OFFCURVE",
"139 653 CURVE",
"100 653 OFFCURVE",
"57 643 OFFCURVE",
"10 623 CURVE",
"10 550 LINE",
"52 567 OFFCURVE",
"88 575 OFFCURVE",
"118 575 CURVE",
"179 575 OFFCURVE",
"194 520 OFFCURVE",
"200 437 CURVE",
"226 74 LINE",
"292 74 LINE",
"302 219 LINE SMOOTH",
"309 326 OFFCURVE",
"335 364 OFFCURVE",
"445 364 CURVE",
"492 364 LINE",
"492 166 OFFCURVE",
"537 -6 OFFCURVE",
"632 -182 CURVE"
);
}
);
width = 1088;
}
);
},
{
color = 10;
glyphname = rh;
lastChange = "2019-12-27 14:11:09 +0000";
layers = (
{
layerId = "E91C2A68-9D13-40A3-B48F-6510F845363B";
paths = (
{
closed = 1;
nodes = (
"382 -117 LINE",
"454 -117 OFFCURVE",
"508 -83 OFFCURVE",
"545 -14 CURVE",
"479 27 LINE",
"461 -12 OFFCURVE",
"425 -35 OFFCURVE",
"382 -35 CURVE",
"219 -35 OFFCURVE",
"124 173 OFFCURVE",
"124 374 CURVE",
"124 559 OFFCURVE",
"213 715 OFFCURVE",
"379 715 CURVE",
"458 715 OFFCURVE",
"501 680 OFFCURVE",
"527 592 CURVE",
"525 590 LINE",
"512 599 OFFCURVE",
"497 603 OFFCURVE",
"480 603 CURVE",
"441 603 OFFCURVE",
"398 593 OFFCURVE",
"351 573 CURVE",
"351 500 LINE",
"393 517 OFFCURVE",
"428 525 OFFCURVE",
"459 525 CURVE",
"519 525 OFFCURVE",
"537 482 OFFCURVE",
"543 404 CURVE",
"567 74 LINE",
"633 74 LINE",
"643 219 LINE SMOOTH",
"651 332 OFFCURVE",
"676 364 OFFCURVE",
"786 364 CURVE",
"863 364 LINE",
"863 444 LINE",
"785 444 LINE SMOOTH",
"701 444 OFFCURVE",
"648 416 OFFCURVE",
"626 361 CURVE",
"622 361 LINE",
"619 444 LINE SMOOTH",
"611 676 OFFCURVE",
"533 792 OFFCURVE",
"379 792 CURVE",
"175 792 OFFCURVE",
"45 597 OFFCURVE",
"45 374 CURVE",
"45 131 OFFCURVE",
"161 -117 OFFCURVE",
"382 -117 CURVE"
);
}
);
width = 908;
}
);
},
{
color = 10;
glyphname = lh;
lastChange = "2019-12-27 14:11:11 +0000";
layers = (
{
layerId = "E91C2A68-9D13-40A3-B48F-6510F845363B";
paths = (
{
closed = 1;
nodes = (
"632 -182 LINE",
"901 -57 LINE",
"827 82 OFFCURVE",
"790 215 OFFCURVE",
"787 364 CURVE",
"1043 364 LINE",
"1043 444 LINE",
"711 444 LINE",
"711 366 LINE SMOOTH",
"711 221 OFFCURVE",
"739 94 OFFCURVE",
"795 -17 CURVE",
"671 -72 LINE",
"596 69 OFFCURVE",
"567 199 OFFCURVE",
"567 364 CURVE",
"567 444 LINE",
"444 444 LINE SMOOTH",
"360 444 OFFCURVE",
"307 416 OFFCURVE",
"285 361 CURVE",
"281 361 LINE",
"278 445 LINE SMOOTH",
"276 500 OFFCURVE",
"270 542 OFFCURVE",
"259 573 CURVE",
"266 640 OFFCURVE",
"292 698 OFFCURVE",
"339 766 CURVE",
"339 832 LINE",
"219 832 LINE SMOOTH",
"151 832 OFFCURVE",
"86 835 OFFCURVE",
"39 868 CURVE",
"39 790 LINE",
"80 754 OFFCURVE",
"142 752 OFFCURVE",
"219 752 CURVE",
"247 752 LINE",
"228 723 OFFCURVE",
"212 686 OFFCURVE",
"200 642 CURVE",
"182 649 OFFCURVE",
"162 653 OFFCURVE",
"139 653 CURVE",
"100 653 OFFCURVE",
"57 643 OFFCURVE",
"10 623 CURVE",
"10 550 LINE",
"52 567 OFFCURVE",
"88 575 OFFCURVE",
"118 575 CURVE",
"179 575 OFFCURVE",
"194 520 OFFCURVE",
"200 437 CURVE",
"226 74 LINE",
"292 74 LINE",
"302 219 LINE SMOOTH",
"309 326 OFFCURVE",
"335 364 OFFCURVE",
"445 364 CURVE",
"492 364 LINE",
"492 166 OFFCURVE",
"537 -6 OFFCURVE",
"632 -182 CURVE"
);
}
);
width = 1088;
}
);
},
{
color = 10;
glyphname = z;
lastChange = "2019-12-27 14:11:14 +0000";
layers = (
{
layerId = "E91C2A68-9D13-40A3-B48F-6510F845363B";
paths = (
{
closed = 1;
nodes = (
"611 -119 LINE",
"650 -119 OFFCURVE",
"679 -108 OFFCURVE",
"696 -85 CURVE",
"696 6 LINE",
"676 -22 OFFCURVE",
"648 -36 OFFCURVE",
"614 -36 CURVE",
"531 -36 OFFCURVE",
"501 43 OFFCURVE",
"501 151 CURVE",
"501 216 OFFCURVE",
"511 287 OFFCURVE",
"531 364 CURVE",
"770 364 LINE",
"770 444 LINE",
"63 444 LINE",
"45 364 LINE",
"456 364 LINE",
"438 296 OFFCURVE",
"428 223 OFFCURVE",
"428 143 CURVE",
"397 143 LINE SMOOTH",
"303 143 OFFCURVE",
"225 140 OFFCURVE",
"162 101 CURVE",
"162 16 LINE",
"230 57 OFFCURVE",
"300 63 OFFCURVE",
"397 63 CURVE",
"432 63 LINE",
"447 -46 OFFCURVE",
"508 -119 OFFCURVE",
"611 -119 CURVE"
);
}
);
width = 815;
}
);
},
{
color = 10;
glyphname = c;
lastChange = "2019-12-27 14:11:17 +0000";
layers = (
{
layerId = "E91C2A68-9D13-40A3-B48F-6510F845363B";
paths = (
{
closed = 1;
nodes = (
"585 -171 LINE",
"667 -171 OFFCURVE",
"726 -120 OFFCURVE",
"726 -32 CURVE",
"726 43 OFFCURVE",
"676 100 OFFCURVE",
"595 100 CURVE",
"556 100 OFFCURVE",
"523 85 OFFCURVE",
"504 62 CURVE",
"501 63 LINE",
"499 82 OFFCURVE",
"497 103 OFFCURVE",
"497 125 CURVE",
"497 210 OFFCURVE",
"505 278 OFFCURVE",
"531 364 CURVE",
"847 364 LINE",
"847 444 LINE",
"63 444 LINE",
"45 364 LINE",
"456 364 LINE",
"438 296 OFFCURVE",
"428 223 OFFCURVE",
"428 143 CURVE",
"397 143 LINE SMOOTH",
"303 143 OFFCURVE",
"225 140 OFFCURVE",
"162 101 CURVE",
"162 16 LINE",
"230 57 OFFCURVE",
"300 63 OFFCURVE",
"397 63 CURVE",
"429 63 LINE",
"437 -58 OFFCURVE",
"485 -171 OFFCURVE",
"585 -171 CURVE"
);
},
{
closed = 1;
nodes = (
"589 -99 LINE",
"546 -99 OFFCURVE",
"520 -55 OFFCURVE",
"512 -8 CURVE",
"522 19 OFFCURVE",
"552 37 OFFCURVE",
"585 37 CURVE",
"629 37 OFFCURVE",
"656 8 OFFCURVE",
"656 -32 CURVE",
"656 -71 OFFCURVE",
"632 -99 OFFCURVE",
"589 -99 CURVE"
);
}
);
width = 892;
}
);
},
{
color = 9;
glyphname = i.medi.v1;
lastChange = "2019-12-27 10:40:57 +0000";
layers = (
{
layerId = "E91C2A68-9D13-40A3-B48F-6510F845363B";
paths = (
{
closed = 1;
nodes = (
"391 -67 LINE",
"464 -31 LINE",
"391 100 OFFCURVE",
"335 231 OFFCURVE",
"297 364 CURVE",
"609 364 LINE",
"609 444 LINE",
"0 444 LINE",
"0 364 LINE",
"19 96 LINE",
"85 96 LINE",
"104 364 LINE",
"218 364 LINE",
"256 220 OFFCURVE",
"313 77 OFFCURVE",
"391 -67 CURVE"
);
}
);
width = 579;
}
);
},
{
color = 9;
glyphname = ng.medi;
lastChange = "2019-12-27 10:40:57 +0000";
layers = (
{
layerId = "E91C2A68-9D13-40A3-B48F-6510F845363B";
paths = (
{
closed = 1;
nodes = (
"338 70 LINE",
"412 112 LINE",
"356 205 OFFCURVE",
"321 292 OFFCURVE",
"321 396 CURVE",
"321 500 OFFCURVE",
"364 563 OFFCURVE",
"444 563 CURVE",
"516 563 OFFCURVE",
"566 499 OFFCURVE",
"574 364 CURVE",
"648 364 LINE",
"641 521 OFFCURVE",
"581 646 OFFCURVE",
"444 646 CURVE",
"327 646 OFFCURVE",
"258 561 OFFCURVE",
"245 444 CURVE",
"0 444 LINE",
"0 364 LINE",
"19 96 LINE",
"85 96 LINE",
"104 364 LINE",
"243 364 LINE",
"249 271 OFFCURVE",
"280 173 OFFCURVE",
"338 70 CURVE"
);
}
);
width = 574;
}
);
},
{
color = 9;
glyphname = ng.fina;
lastChange = "2019-12-27 10:40:57 +0000";
layers = (
{
layerId = "E91C2A68-9D13-40A3-B48F-6510F845363B";
paths = (
{
closed = 1;
nodes = (
"536 -264 LINE",
"618 -264 LINE",
"604 -240 OFFCURVE",
"597 -214 OFFCURVE",
"597 -187 CURVE",
"597 -130 OFFCURVE",
"617 -91 OFFCURVE",
"664 -31 CURVE",
"740 66 OFFCURVE",
"797 153 OFFCURVE",
"797 245 CURVE",
"797 373 OFFCURVE",
"720 444 OFFCURVE",
"566 444 CURVE",
"0 444 LINE",
"0 364 LINE",
"19 96 LINE",
"85 96 LINE",
"104 364 LINE",
"218 364 LINE",
"256 220 OFFCURVE",
"313 77 OFFCURVE",
"391 -67 CURVE",
"464 -31 LINE",
"391 100 OFFCURVE",
"335 231 OFFCURVE",
"297 364 CURVE",
"565 364 LINE SMOOTH",
"672 364 OFFCURVE",
"719 325 OFFCURVE",
"719 245 CURVE",
"719 172 OFFCURVE",
"674 110 OFFCURVE",
"612 28 CURVE",
"558 -44 OFFCURVE",
"517 -109 OFFCURVE",
"517 -187 CURVE",
"517 -217 OFFCURVE",
"523 -243 OFFCURVE",
"536 -264 CURVE"
);
}
);
width = 842;
}
);
},
{
color = 9;
glyphname = n.fina.v1;
lastChange = "2019-12-27 10:40:57 +0000";
layers = (
{
components = (
{
name = A.fina;
}
);
layerId = "E91C2A68-9D13-40A3-B48F-6510F845363B";
paths = (
{
closed = 1;
nodes = (
"182 -185 LINE",
"215 -150 OFFCURVE",
"261 -112 OFFCURVE",
"321 -69 CURVE",
"260 0 LINE",
"221 -39 OFFCURVE",
"181 -87 OFFCURVE",
"139 -146 CURVE"
);
}
);
width = 427;
}
);
},
{
color = 9;
glyphname = i.init;
lastChange = "2019-12-27 10:40:57 +0000";
layers = (
{
layerId = "E91C2A68-9D13-40A3-B48F-6510F845363B";
paths = (
{
closed = 1;
nodes = (
"626 -67 LINE",
"699 -31 LINE",
"626 100 OFFCURVE",
"570 231 OFFCURVE",
"532 364 CURVE",
"844 364 LINE",
"844 444 LINE",
"444 444 LINE SMOOTH",
"360 444 OFFCURVE",
"307 416 OFFCURVE",
"285 361 CURVE",
"281 361 LINE",
"278 445 LINE SMOOTH",
"273 575 OFFCURVE",
"248 653 OFFCURVE",
"139 653 CURVE",
"100 653 OFFCURVE",
"57 643 OFFCURVE",
"10 623 CURVE",
"10 550 LINE",
"52 567 OFFCURVE",
"88 575 OFFCURVE",
"118 575 CURVE",
"179 575 OFFCURVE",
"194 520 OFFCURVE",
"200 437 CURVE",
"226 74 LINE",
"292 74 LINE",
"302 219 LINE SMOOTH",
"310 330 OFFCURVE",
"336 364 OFFCURVE",
"445 364 CURVE",
"453 364 LINE",
"491 221 OFFCURVE",
"548 78 OFFCURVE",
"626 -67 CURVE"
);
}
);
width = 814;
}
);
},
{
color = 9;
glyphname = a.medi.v1;
lastChange = "2019-12-27 10:40:57 +0000";
layers = (
{
layerId = "E91C2A68-9D13-40A3-B48F-6510F845363B";
paths = (
{
closed = 1;
nodes = (
"19 96 LINE",
"85 96 LINE",
"104 364 LINE",
"284 364 LINE",
"303 96 LINE",
"369 96 LINE",
"388 364 LINE",
"598 364 LINE",
"598 444 LINE",
"0 444 LINE",
"0 364 LINE"
);
}
);
width = 568;
}
);
},
{
color = 9;
glyphname = s.fina.v1;
lastChange = "2019-12-27 10:40:57 +0000";
layers = (
{
layerId = "E91C2A68-9D13-40A3-B48F-6510F845363B";
paths = (
{
closed = 1;
nodes = (
"80 106 LINE",
"151 106 LINE",
"194 312 OFFCURVE",
"264 478 OFFCURVE",
"383 642 CURVE",
"286 642 LINE",
"202 525 OFFCURVE",
"131 365 OFFCURVE",
"101 223 CURVE",
"97 223 LINE",
"46 284 OFFCURVE",
"37 351 OFFCURVE",
"37 444 CURVE",
"-33 444 LINE",
"-33 364 LINE SMOOTH",
"-33 278 OFFCURVE",
"17 178 OFFCURVE",
"80 106 CURVE"
);
}
);
width = 428;
}
);
},
{
color = 9;
glyphname = a.v1;
lastChange = "2019-12-27 10:42:18 +0000";
layers = (
{
layerId = "E91C2A68-9D13-40A3-B48F-6510F845363B";
paths = (
{
closed = 1;
nodes = (
"518 -264 LINE",
"600 -264 LINE",
"586 -240 OFFCURVE",
"579 -214 OFFCURVE",
"579 -187 CURVE",
"579 -124 OFFCURVE",
"598 -93 OFFCURVE",
"646 -31 CURVE",
"722 67 OFFCURVE",
"779 153 OFFCURVE",
"779 245 CURVE",
"779 373 OFFCURVE",
"702 444 OFFCURVE",
"548 444 CURVE",
"444 444 LINE SMOOTH",
"360 444 OFFCURVE",
"307 416 OFFCURVE",
"285 361 CURVE",
"281 361 LINE",
"278 445 LINE SMOOTH",
"273 575 OFFCURVE",
"248 653 OFFCURVE",
"139 653 CURVE",
"100 653 OFFCURVE",
"57 643 OFFCURVE",
"10 623 CURVE",
"10 550 LINE",
"52 567 OFFCURVE",
"88 575 OFFCURVE",
"118 575 CURVE",
"179 575 OFFCURVE",
"194 520 OFFCURVE",
"200 437 CURVE",
"226 74 LINE",
"292 74 LINE",
"302 219 LINE SMOOTH",
"310 330 OFFCURVE",
"336 364 OFFCURVE",
"445 364 CURVE",
"547 364 LINE SMOOTH",
"654 364 OFFCURVE",
"701 325 OFFCURVE",
"701 245 CURVE",
"701 175 OFFCURVE",
"657 112 OFFCURVE",
"594 28 CURVE",
"538 -46 OFFCURVE",
"499 -112 OFFCURVE",
"499 -187 CURVE",
"499 -217 OFFCURVE",
"505 -243 OFFCURVE",
"518 -264 CURVE"
);
}
);
width = 824;
}
);
},
{
color = 9;
glyphname = a.init;
lastChange = "2019-12-27 10:40:57 +0000";
layers = (
{
layerId = "E91C2A68-9D13-40A3-B48F-6510F845363B";
paths = (
{
closed = 1;
nodes = (
"226 74 LINE",
"292 74 LINE",
"302 219 LINE SMOOTH",
"309 326 OFFCURVE",
"335 364 OFFCURVE",
"445 364 CURVE",
"502 364 LINE",
"521 96 LINE",
"587 96 LINE",
"606 364 LINE",
"816 364 LINE",
"816 444 LINE",
"444 444 LINE SMOOTH",
"360 444 OFFCURVE",
"307 416 OFFCURVE",
"285 361 CURVE",
"281 361 LINE",
"278 445 LINE SMOOTH",
"273 575 OFFCURVE",
"248 653 OFFCURVE",
"139 653 CURVE",
"100 653 OFFCURVE",
"57 643 OFFCURVE",
"10 623 CURVE",
"10 550 LINE",
"52 567 OFFCURVE",
"88 575 OFFCURVE",
"118 575 CURVE",
"179 575 OFFCURVE",
"194 520 OFFCURVE",
"200 437 CURVE"
);
}
);
width = 786;
}
);
},
{
color = 9;
glyphname = cr.fina;
lastChange = "2019-12-27 13:49:55 +0000";
layers = (
{
layerId = "E91C2A68-9D13-40A3-B48F-6510F845363B";
paths = (
{
closed = 1;
nodes = (
"197 40 LINE",
"324 40 OFFCURVE",
"395 123 OFFCURVE",
"395 249 CURVE",
"395 293 OFFCURVE",
"388 331 OFFCURVE",
"373 364 CURVE",
"504 364 LINE",
"491 331 OFFCURVE",
"484 293 OFFCURVE",
"484 249 CURVE",
"484 116 OFFCURVE",
"553 40 OFFCURVE",
"681 40 CURVE",
"807 40 OFFCURVE",
"879 122 OFFCURVE",
"879 249 CURVE",
"879 294 OFFCURVE",
"872 333 OFFCURVE",
"857 364 CURVE",
"987 364 LINE",
"987 444 LINE",
"0 444 LINE",
"0 364 LINE",
"20 364 LINE",
"7 333 OFFCURVE",
"0 294 OFFCURVE",
"0 249 CURVE",
"0 116 OFFCURVE",
"69 40 OFFCURVE",
"197 40 CURVE"
);
},
{
closed = 1;
nodes = (
"197 123 LINE",
"118 123 OFFCURVE",
"79 166 OFFCURVE",
"79 251 CURVE",
"79 295 OFFCURVE",
"86 333 OFFCURVE",
"99 364 CURVE",
"296 364 LINE",
"309 333 OFFCURVE",
"316 295 OFFCURVE",
"316 251 CURVE",
"316 166 OFFCURVE",
"271 123 OFFCURVE",
"197 123 CURVE"
);
},
{
closed = 1;
nodes = (
"681 123 LINE",
"603 123 OFFCURVE",
"563 166 OFFCURVE",
"563 251 CURVE",
"563 295 OFFCURVE",
"570 333 OFFCURVE",
"583 364 CURVE",
"780 364 LINE",
"793 333 OFFCURVE",
"800 295 OFFCURVE",
"800 251 CURVE",
"800 166 OFFCURVE",
"754 123 OFFCURVE",
"681 123 CURVE"
);
}
);
width = 1032;
}
);
},
{
color = 9;
glyphname = cr.medi;
lastChange = "2019-12-27 13:49:55 +0000";
layers = (
{
layerId = "E91C2A68-9D13-40A3-B48F-6510F845363B";
paths = (
{
closed = 1;
nodes = (
"197 40 LINE",
"324 40 OFFCURVE",
"395 123 OFFCURVE",
"395 249 CURVE",
"395 293 OFFCURVE",
"388 331 OFFCURVE",
"373 364 CURVE",
"504 364 LINE",
"491 331 OFFCURVE",
"484 293 OFFCURVE",
"484 249 CURVE",
"484 116 OFFCURVE",
"553 40 OFFCURVE",
"681 40 CURVE",
"807 40 OFFCURVE",
"879 122 OFFCURVE",
"879 249 CURVE",
"879 294 OFFCURVE",
"872 333 OFFCURVE",
"857 364 CURVE",
"1087 364 LINE",
"1087 444 LINE",
"0 444 LINE",
"0 364 LINE",
"20 364 LINE",
"7 333 OFFCURVE",
"0 294 OFFCURVE",
"0 249 CURVE",
"0 116 OFFCURVE",
"69 40 OFFCURVE",
"197 40 CURVE"
);
},
{
closed = 1;
nodes = (
"197 123 LINE",
"118 123 OFFCURVE",
"79 166 OFFCURVE",
"79 251 CURVE",
"79 295 OFFCURVE",
"86 333 OFFCURVE",
"99 364 CURVE",
"296 364 LINE",
"309 333 OFFCURVE",
"316 295 OFFCURVE",
"316 251 CURVE",
"316 166 OFFCURVE",
"271 123 OFFCURVE",
"197 123 CURVE"
);
},
{
closed = 1;
nodes = (
"681 123 LINE",
"603 123 OFFCURVE",
"563 166 OFFCURVE",
"563 251 CURVE",
"563 295 OFFCURVE",
"570 333 OFFCURVE",
"583 364 CURVE",
"780 364 LINE",
"793 333 OFFCURVE",
"800 295 OFFCURVE",
"800 251 CURVE",
"800 166 OFFCURVE",
"754 123 OFFCURVE",
"681 123 CURVE"
);
}
);
width = 1057;
}
);
},
{
color = 9;
glyphname = zr.fina;
lastChange = "2019-12-27 13:49:55 +0000";
layers = (
{
layerId = "E91C2A68-9D13-40A3-B48F-6510F845363B";
paths = (
{
closed = 1;
nodes = (
"140 -182 LINE",
"409 -57 LINE",
"334 82 OFFCURVE",
"297 215 OFFCURVE",
"295 364 CURVE",
"451 364 LINE",
"451 444 LINE",
"219 444 LINE",
"219 366 LINE SMOOTH",
"219 220 OFFCURVE",
"247 93 OFFCURVE",
"303 -17 CURVE",
"179 -72 LINE",
"104 70 OFFCURVE",
"75 200 OFFCURVE",
"75 364 CURVE",
"75 444 LINE",
"0 444 LINE",
"0 364 LINE SMOOTH",
"0 166 OFFCURVE",
"45 -6 OFFCURVE",
"140 -182 CURVE"
);
}
);
width = 496;
}
);
},
{
color = 9;
glyphname = ue.isol.v1;
lastChange = "2019-12-27 10:40:57 +0000";
layers = (
{
layerId = "E91C2A68-9D13-40A3-B48F-6510F845363B";
paths = (
{
closed = 1;
nodes = (
"717 40 LINE",
"824 40 OFFCURVE",
"897 138 OFFCURVE",
"897 275 CURVE",
"897 321 OFFCURVE",
"887 404 OFFCURVE",
"874 444 CURVE",
"570 444 LINE",
"572 589 OFFCURVE",
"643 699 OFFCURVE",
"781 699 CURVE",
"920 699 OFFCURVE",
"991 566 OFFCURVE",
"1001 409 CURVE",
"1081 419 LINE",
"1070 607 OFFCURVE",
"965 782 OFFCURVE",
"781 782 CURVE",
"601 782 OFFCURVE",
"503 645 OFFCURVE",
"492 444 CURVE",
"444 444 LINE SMOOTH",
"360 444 OFFCURVE",
"307 416 OFFCURVE",
"285 361 CURVE",
"281 361 LINE",
"278 445 LINE SMOOTH",
"273 575 OFFCURVE",
"248 653 OFFCURVE",
"139 653 CURVE",
"100 653 OFFCURVE",
"57 643 OFFCURVE",
"10 623 CURVE",
"10 550 LINE",
"52 567 OFFCURVE",
"88 575 OFFCURVE",
"118 575 CURVE",
"179 575 OFFCURVE",
"194 520 OFFCURVE",
"200 437 CURVE",
"226 74 LINE",
"292 74 LINE",
"302 219 LINE SMOOTH",
"310 329 OFFCURVE",
"337 364 OFFCURVE",
"445 364 CURVE",
"491 364 LINE",
"501 141 OFFCURVE",
"577 40 OFFCURVE",
"717 40 CURVE"
);
},
{
closed = 1;
nodes = (
"710 123 LINE",
"620 123 OFFCURVE",
"573 203 OFFCURVE",
"570 364 CURVE",
"808 364 LINE",
"814 344 OFFCURVE",
"818 314 OFFCURVE",
"818 275 CURVE",
"818 190 OFFCURVE",
"783 123 OFFCURVE",
"710 123 CURVE"
);
}
);
width = 1126;
}
);
},
{
color = 9;
glyphname = oe.init;
lastChange = "2019-12-27 10:40:57 +0000";
layers = (
{
layerId = "E91C2A68-9D13-40A3-B48F-6510F845363B";
paths = (
{
closed = 1;
nodes = (
"1172 -67 LINE",
"1245 -31 LINE",
"1172 100 OFFCURVE",
"1116 231 OFFCURVE",
"1078 364 CURVE",
"1390 364 LINE",
"1390 444 LINE",
"444 444 LINE SMOOTH",
"360 444 OFFCURVE",
"307 416 OFFCURVE",
"285 361 CURVE",
"281 361 LINE",
"278 445 LINE SMOOTH",
"273 575 OFFCURVE",
"248 653 OFFCURVE",
"139 653 CURVE",
"100 653 OFFCURVE",
"57 643 OFFCURVE",
"10 623 CURVE",
"10 550 LINE",
"52 567 OFFCURVE",
"88 575 OFFCURVE",
"118 575 CURVE",
"179 575 OFFCURVE",
"194 520 OFFCURVE",
"200 437 CURVE",
"226 74 LINE",
"292 74 LINE",
"302 219 LINE SMOOTH",
"309 326 OFFCURVE",
"335 364 OFFCURVE",
"445 364 CURVE",
"512 364 LINE",
"499 333 OFFCURVE",
"492 294 OFFCURVE",
"492 249 CURVE",
"492 116 OFFCURVE",
"562 40 OFFCURVE",
"689 40 CURVE",
"816 40 OFFCURVE",
"887 123 OFFCURVE",
"887 249 CURVE",
"887 293 OFFCURVE",
"880 331 OFFCURVE",
"865 364 CURVE",
"999 364 LINE",
"1036 224 OFFCURVE",
"1093 80 OFFCURVE",
"1172 -67 CURVE"
);
},
{
closed = 1;
nodes = (
"689 123 LINE",
"610 123 OFFCURVE",
"571 166 OFFCURVE",
"571 251 CURVE",
"571 294 OFFCURVE",
"578 332 OFFCURVE",
"591 364 CURVE",
"788 364 LINE",
"801 332 OFFCURVE",
"808 294 OFFCURVE",
"808 251 CURVE",
"808 166 OFFCURVE",
"763 123 OFFCURVE",
"689 123 CURVE"
);
}
);
width = 1360;
}
);
},
{
color = 9;
glyphname = oe.medi.v2;
lastChange = "2019-12-27 10:40:57 +0000";
layers = (
{
layerId = "E91C2A68-9D13-40A3-B48F-6510F845363B";
paths = (
{
closed = 1;
nodes = (
"964 -67 LINE",
"1037 -31 LINE",
"964 100 OFFCURVE",
"908 231 OFFCURVE",
"870 364 CURVE",
"1182 364 LINE",
"1182 444 LINE",
"0 444 LINE",
"0 364 LINE",
"19 96 LINE",
"85 96 LINE",
"104 364 LINE",
"304 364 LINE",
"291 333 OFFCURVE",
"284 294 OFFCURVE",
"284 249 CURVE",
"284 116 OFFCURVE",
"354 40 OFFCURVE",
"481 40 CURVE",
"608 40 OFFCURVE",
"679 123 OFFCURVE",
"679 249 CURVE",
"679 293 OFFCURVE",
"672 331 OFFCURVE",
"657 364 CURVE",
"791 364 LINE",
"828 224 OFFCURVE",
"885 80 OFFCURVE",
"964 -67 CURVE"
);
},
{
closed = 1;
nodes = (
"481 123 LINE",
"402 123 OFFCURVE",
"363 166 OFFCURVE",
"363 251 CURVE",
"363 294 OFFCURVE",
"370 332 OFFCURVE",
"383 364 CURVE",
"580 364 LINE",
"593 332 OFFCURVE",
"600 294 OFFCURVE",
"600 251 CURVE",
"600 166 OFFCURVE",
"555 123 OFFCURVE",
"481 123 CURVE"
);
}
);
width = 1152;
}
);
},
{
color = 9;
glyphname = o.init;
lastChange = "2019-12-27 10:40:57 +0000";
layers = (
{
layerId = "E91C2A68-9D13-40A3-B48F-6510F845363B";
paths = (
{
closed = 1;
nodes = (
"689 40 LINE",
"816 40 OFFCURVE",
"887 123 OFFCURVE",
"887 249 CURVE",
"887 293 OFFCURVE",
"880 331 OFFCURVE",
"865 364 CURVE",
"1095 364 LINE",
"1095 444 LINE",
"444 444 LINE SMOOTH",
"360 444 OFFCURVE",
"307 416 OFFCURVE",
"285 361 CURVE",
"281 361 LINE",
"278 445 LINE SMOOTH",
"273 575 OFFCURVE",
"248 653 OFFCURVE",
"139 653 CURVE",
"100 653 OFFCURVE",
"57 643 OFFCURVE",
"10 623 CURVE",
"10 550 LINE",
"52 567 OFFCURVE",
"88 575 OFFCURVE",
"118 575 CURVE",
"179 575 OFFCURVE",
"194 520 OFFCURVE",
"200 437 CURVE",
"226 74 LINE",
"292 74 LINE",
"302 219 LINE SMOOTH",
"309 326 OFFCURVE",
"335 364 OFFCURVE",
"445 364 CURVE",
"512 364 LINE",
"499 333 OFFCURVE",
"492 294 OFFCURVE",
"492 249 CURVE",
"492 116 OFFCURVE",
"562 40 OFFCURVE",
"689 40 CURVE"
);
},
{
closed = 1;
nodes = (
"689 123 LINE",
"610 123 OFFCURVE",
"571 166 OFFCURVE",
"571 251 CURVE",
"571 294 OFFCURVE",
"578 332 OFFCURVE",
"591 364 CURVE",
"788 364 LINE",
"801 332 OFFCURVE",
"808 294 OFFCURVE",
"808 251 CURVE",
"808 166 OFFCURVE",
"763 123 OFFCURVE",
"689 123 CURVE"
);
}
);
width = 1065;
}
);
},
{
color = 9;
glyphname = o.medi.v1;
lastChange = "2019-12-27 10:40:57 +0000";
layers = (
{
layerId = "E91C2A68-9D13-40A3-B48F-6510F845363B";
paths = (
{
closed = 1;
nodes = (
"481 40 LINE",
"608 40 OFFCURVE",
"679 123 OFFCURVE",
"679 249 CURVE",
"679 293 OFFCURVE",
"672 331 OFFCURVE",
"657 364 CURVE",
"887 364 LINE",
"887 444 LINE",
"0 444 LINE",
"0 364 LINE",
"19 96 LINE",
"85 96 LINE",
"104 364 LINE",
"304 364 LINE",
"291 333 OFFCURVE",
"284 294 OFFCURVE",
"284 249 CURVE",
"284 116 OFFCURVE",
"354 40 OFFCURVE",
"481 40 CURVE"
);
},
{
closed = 1;
nodes = (
"481 123 LINE",
"402 123 OFFCURVE",
"363 166 OFFCURVE",
"363 251 CURVE",
"363 294 OFFCURVE",
"370 332 OFFCURVE",
"383 364 CURVE",
"580 364 LINE",
"593 332 OFFCURVE",
"600 294 OFFCURVE",
"600 251 CURVE",
"600 166 OFFCURVE",
"555 123 OFFCURVE",
"481 123 CURVE"
);
}
);
width = 857;
}
);
},
{
color = 9;
glyphname = s.fina.v2;
lastChange = "2019-12-27 10:40:57 +0000";
layers = (
{
layerId = "E91C2A68-9D13-40A3-B48F-6510F845363B";
paths = (
{
closed = 1;
nodes = (
"28 73 LINE",
"105 73 LINE",
"97 106 OFFCURVE",
"93 148 OFFCURVE",
"93 199 CURVE",
"93 350 OFFCURVE",
"123 481 OFFCURVE",
"197 617 CURVE",
"201 617 LINE",
"217 419 OFFCURVE",
"256 247 OFFCURVE",
"334 73 CURVE",
"419 73 LINE",
"373 168 OFFCURVE",
"337 265 OFFCURVE",
"313 364 CURVE",
"611 364 LINE SMOOTH",
"682 364 OFFCURVE",
"709 333 OFFCURVE",
"709 279 CURVE",
"709 235 OFFCURVE",
"702 196 OFFCURVE",
"687 162 CURVE",
"761 162 LINE",
"778 199 OFFCURVE",
"786 238 OFFCURVE",
"786 279 CURVE",
"786 389 OFFCURVE",
"728 444 OFFCURVE",
"611 444 CURVE",
"296 444 LINE",
"279 539 OFFCURVE",
"271 636 OFFCURVE",
"271 734 CURVE",
"190 734 LINE",
"125 645 OFFCURVE",
"79 548 OFFCURVE",
"50 444 CURVE",
"0 444 LINE",
"0 364 LINE SMOOTH",
"0 276 OFFCURVE",
"11 159 OFFCURVE",
"28 73 CURVE"
);
}
);
width = 831;
}
);
},
{
color = 9;
glyphname = w.fina;
lastChange = "2019-12-27 10:40:57 +0000";
layers = (
{
layerId = "E91C2A68-9D13-40A3-B48F-6510F845363B";
paths = (
{
closed = 1;
nodes = (
"309 -119 LINE",
"346 -119 OFFCURVE",
"377 -106 OFFCURVE",
"392 -85 CURVE",
"392 6 LINE",
"373 -22 OFFCURVE",
"345 -36 OFFCURVE",
"309 -36 CURVE",
"244 -36 OFFCURVE",
"202 49 OFFCURVE",
"156 152 CURVE",
"124 224 OFFCURVE",
"99 294 OFFCURVE",
"79 364 CURVE",
"488 364 LINE SMOOTH",
"559 364 OFFCURVE",
"586 333 OFFCURVE",
"586 279 CURVE",
"586 235 OFFCURVE",
"579 196 OFFCURVE",
"564 162 CURVE",
"638 162 LINE",
"655 199 OFFCURVE",
"663 238 OFFCURVE",
"663 279 CURVE",
"663 389 OFFCURVE",
"604 444 OFFCURVE",
"488 444 CURVE",
"0 444 LINE",
"0 364 LINE",
"20 292 OFFCURVE",
"42 223 OFFCURVE",
"68 157 CURVE",
"132 -6 OFFCURVE",
"187 -119 OFFCURVE",
"309 -119 CURVE"
);
}
);
width = 708;
}
);
},
{
color = 9;
glyphname = e2.init;
lastChange = "2019-12-27 10:40:57 +0000";
layers = (
{
layerId = "E91C2A68-9D13-40A3-B48F-6510F845363B";
paths = (
{
closed = 1;
nodes = (
"801 -119 LINE",
"838 -119 OFFCURVE",
"870 -106 OFFCURVE",
"884 -85 CURVE",
"884 6 LINE",
"865 -22 OFFCURVE",
"837 -36 OFFCURVE",
"801 -36 CURVE",
"736 -36 OFFCURVE",
"693 51 OFFCURVE",
"648 153 CURVE",
"617 224 OFFCURVE",
"591 294 OFFCURVE",
"571 364 CURVE",
"980 364 LINE",
"980 444 LINE",
"444 444 LINE SMOOTH",
"360 444 OFFCURVE",
"307 416 OFFCURVE",
"285 361 CURVE",
"281 361 LINE",
"278 445 LINE SMOOTH",
"273 575 OFFCURVE",
"248 653 OFFCURVE",
"139 653 CURVE",
"100 653 OFFCURVE",
"57 643 OFFCURVE",
"10 623 CURVE",
"10 550 LINE",
"52 567 OFFCURVE",
"88 575 OFFCURVE",
"118 575 CURVE",
"179 575 OFFCURVE",
"194 520 OFFCURVE",
"200 437 CURVE",
"226 74 LINE",
"292 74 LINE",
"302 219 LINE SMOOTH",
"309 326 OFFCURVE",
"335 364 OFFCURVE",
"445 364 CURVE",
"492 364 LINE",
"515 280 OFFCURVE",
"541 203 OFFCURVE",
"570 132 CURVE",
"632 -21 OFFCURVE",
"684 -119 OFFCURVE",
"801 -119 CURVE"
);
}
);
width = 950;
}
);
},
{
color = 9;
glyphname = n.medi.v3;
lastChange = "2019-12-27 10:40:57 +0000";
layers = (
{
layerId = "E91C2A68-9D13-40A3-B48F-6510F845363B";
paths = (
{
closed = 1;
nodes = (
"187 96 LINE",
"253 96 LINE",
"272 364 LINE",
"482 364 LINE",
"482 444 LINE",
"0 444 LINE",
"0 364 LINE",
"168 364 LINE"
);
},
{
closed = 1;
nodes = (
"213 -163 LINE",
"246 -128 OFFCURVE",
"292 -90 OFFCURVE",
"352 -47 CURVE",
"291 22 LINE",
"251 -17 OFFCURVE",
"211 -66 OFFCURVE",
"170 -124 CURVE"
);
}
);
width = 452;
}
);
},
{
color = 9;
glyphname = b.fina.v1;
lastChange = "2019-12-27 10:40:57 +0000";
layers = (
{
layerId = "E91C2A68-9D13-40A3-B48F-6510F845363B";
paths = (
{
closed = 1;
nodes = (
"514 -264 LINE",
"596 -264 LINE",
"582 -240 OFFCURVE",
"575 -214 OFFCURVE",
"575 -187 CURVE",
"575 -130 OFFCURVE",
"595 -91 OFFCURVE",
"642 -31 CURVE",
"718 66 OFFCURVE",
"775 153 OFFCURVE",
"775 245 CURVE",
"775 373 OFFCURVE",
"698 444 OFFCURVE",
"544 444 CURVE",
"0 444 LINE",
"0 364 LINE",
"20 364 LINE",
"7 333 OFFCURVE",
"0 294 OFFCURVE",
"0 249 CURVE",
"0 116 OFFCURVE",
"69 40 OFFCURVE",
"197 40 CURVE",
"324 40 OFFCURVE",
"395 123 OFFCURVE",
"395 249 CURVE",
"395 293 OFFCURVE",
"388 331 OFFCURVE",
"373 364 CURVE",
"543 364 LINE SMOOTH",
"650 364 OFFCURVE",
"697 325 OFFCURVE",
"697 243 CURVE",
"697 175 OFFCURVE",
"657 117 OFFCURVE",
"590 28 CURVE",
"536 -44 OFFCURVE",
"495 -109 OFFCURVE",
"495 -187 CURVE",
"495 -217 OFFCURVE",
"501 -243 OFFCURVE",
"514 -264 CURVE"
);
},
{
closed = 1;
nodes = (
"197 123 LINE",
"118 123 OFFCURVE",
"79 166 OFFCURVE",
"79 251 CURVE",
"79 295 OFFCURVE",
"86 333 OFFCURVE",
"99 364 CURVE",
"296 364 LINE",
"309 333 OFFCURVE",
"316 295 OFFCURVE",
"316 251 CURVE",
"316 166 OFFCURVE",
"271 123 OFFCURVE",
"197 123 CURVE"
);
}
);
width = 820;
}
);
},
{
color = 9;
glyphname = h.medi.v3;
lastChange = "2019-12-27 10:40:57 +0000";
layers = (
{
components = (
{
name = H.fina;
}
);
layerId = "E91C2A68-9D13-40A3-B48F-6510F845363B";
paths = (
{
closed = 1;
nodes = (
"243 -141 LINE",
"276 -106 OFFCURVE",
"322 -68 OFFCURVE",
"382 -25 CURVE",
"321 44 LINE",
"282 5 OFFCURVE",
"242 -43 OFFCURVE",
"200 -102 CURVE"
);
},
{
closed = 1;
nodes = (
"462 -196 LINE",
"495 -161 OFFCURVE",
"541 -123 OFFCURVE",
"601 -80 CURVE",
"540 -11 LINE",
"501 -50 OFFCURVE",
"461 -98 OFFCURVE",
"419 -157 CURVE"
);
}
);
width = 663;
}
);
},
{
color = 9;
glyphname = y.medi.v2;
lastChange = "2019-12-27 10:40:57 +0000";
layers = (
{
layerId = "E91C2A68-9D13-40A3-B48F-6510F845363B";
paths = (
{
closed = 1;
nodes = (
"127 42 LINE",
"199 85 LINE",
"125 188 OFFCURVE",
"77 287 OFFCURVE",
"77 407 CURVE",
"77 544 OFFCURVE",
"134 609 OFFCURVE",
"226 609 CURVE",
"342 609 OFFCURVE",
"371 514 OFFCURVE",
"381 364 CURVE",
"455 364 LINE",
"445 587 OFFCURVE",
"375 692 OFFCURVE",
"226 692 CURVE",
"77 692 OFFCURVE",
"-2 573 OFFCURVE",
"-2 407 CURVE",
"-2 292 OFFCURVE",
"41 170 OFFCURVE",
"127 42 CURVE"
);
}
);
width = 381;
}
);
},
{
color = 9;
glyphname = lh.medi;
lastChange = "2019-12-27 10:40:57 +0000";
layers = (
{
layerId = "E91C2A68-9D13-40A3-B48F-6510F845363B";
paths = (
{
closed = 1;
nodes = (
"424 -182 LINE",
"693 -57 LINE",
"619 82 OFFCURVE",
"582 215 OFFCURVE",
"579 364 CURVE",
"835 364 LINE",
"835 444 LINE",
"503 444 LINE",
"503 366 LINE SMOOTH",
"503 221 OFFCURVE",
"531 94 OFFCURVE",
"587 -17 CURVE",
"463 -72 LINE",
"388 69 OFFCURVE",
"359 199 OFFCURVE",
"359 364 CURVE",
"359 444 LINE",
"86 444 LINE",
"88 518 OFFCURVE",
"109 581 OFFCURVE",
"148 653 CURVE",
"148 719 LINE",
"28 719 LINE SMOOTH",
"-43 719 OFFCURVE",
"-103 722 OFFCURVE",
"-152 755 CURVE",
"-152 677 LINE",
"-112 642 OFFCURVE",
"-54 639 OFFCURVE",
"28 639 CURVE",
"62 639 LINE",
"34 580 OFFCURVE",
"19 515 OFFCURVE",
"16 444 CURVE",
"0 444 LINE",
"0 364 LINE",
"19 96 LINE",
"85 96 LINE",
"104 364 LINE",
"284 364 LINE",
"284 166 OFFCURVE",
"329 -6 OFFCURVE",
"424 -182 CURVE"
);
}
);
width = 805;
}
);
},
{
color = 9;
glyphname = g.init.v2;
lastChange = "2019-12-27 10:40:57 +0000";
layers = (
{
layerId = "E91C2A68-9D13-40A3-B48F-6510F845363B";
paths = (
{
closed = 1;
nodes = (
"141 70 LINE",
"215 112 LINE",
"158 206 OFFCURVE",
"124 294 OFFCURVE",
"124 400 CURVE",
"124 489 OFFCURVE",
"167 543 OFFCURVE",
"247 543 CURVE",
"319 543 OFFCURVE",
"369 485 OFFCURVE",
"377 364 CURVE",
"451 364 LINE",
"444 509 OFFCURVE",
"384 626 OFFCURVE",
"247 626 CURVE",
"124 626 OFFCURVE",
"45 537 OFFCURVE",
"45 400 CURVE",
"45 296 OFFCURVE",
"77 186 OFFCURVE",
"141 70 CURVE"
);
}
);
width = 377;
}
);
},
{
color = 9;
glyphname = g.medi.v2;
lastChange = "2019-12-27 10:40:57 +0000";
layers = (
{
components = (
{
name = H.fina;
}
);
layerId = "E91C2A68-9D13-40A3-B48F-6510F845363B";
paths = (
{
closed = 1;
nodes = (
"243 -141 LINE",
"276 -106 OFFCURVE",
"322 -68 OFFCURVE",
"382 -25 CURVE",
"321 44 LINE",
"282 5 OFFCURVE",
"242 -43 OFFCURVE",
"200 -102 CURVE"
);
},
{
closed = 1;
nodes = (
"462 -196 LINE",
"495 -161 OFFCURVE",
"541 -123 OFFCURVE",
"601 -80 CURVE",
"540 -11 LINE",
"501 -50 OFFCURVE",
"461 -98 OFFCURVE",
"419 -157 CURVE"
);
}
);
width = 663;
}
);
},
{
color = 9;
glyphname = oe.medi.v1;
lastChange = "2019-12-27 10:40:57 +0000";
layers = (
{
layerId = "E91C2A68-9D13-40A3-B48F-6510F845363B";
paths = (
{
closed = 1;
nodes = (
"680 -67 LINE",
"753 -31 LINE",
"680 100 OFFCURVE",
"624 231 OFFCURVE",
"586 364 CURVE",
"898 364 LINE",
"898 444 LINE",
"0 444 LINE",
"0 364 LINE",
"20 364 LINE",
"7 333 OFFCURVE",
"0 294 OFFCURVE",
"0 249 CURVE",
"0 116 OFFCURVE",
"69 40 OFFCURVE",
"197 40 CURVE",
"324 40 OFFCURVE",
"395 123 OFFCURVE",
"395 249 CURVE",
"395 293 OFFCURVE",
"388 331 OFFCURVE",
"373 364 CURVE",
"507 364 LINE",
"545 220 OFFCURVE",
"603 77 OFFCURVE",
"680 -67 CURVE"
);
},
{
closed = 1;
nodes = (
"197 123 LINE",
"118 123 OFFCURVE",
"79 166 OFFCURVE",
"79 251 CURVE",
"79 295 OFFCURVE",
"86 333 OFFCURVE",
"99 364 CURVE",
"296 364 LINE",
"309 333 OFFCURVE",
"316 295 OFFCURVE",
"316 251 CURVE",
"316 166 OFFCURVE",
"271 123 OFFCURVE",
"197 123 CURVE"
);
}
);
width = 868;
}
);
},
{
color = 9;
glyphname = h.isol.v2;
lastChange = "2019-12-27 10:40:57 +0000";
layers = (
{
components = (
{
name = _G.init;
}
);
layerId = "E91C2A68-9D13-40A3-B48F-6510F845363B";
paths = (
{
closed = 1;
nodes = (
"184 -196 LINE",
"217 -161 OFFCURVE",
"263 -123 OFFCURVE",
"323 -80 CURVE",
"262 -11 LINE",
"223 -50 OFFCURVE",
"183 -98 OFFCURVE",
"141 -157 CURVE"
);
},
{
closed = 1;
nodes = (
"399 -196 LINE",
"432 -161 OFFCURVE",
"478 -123 OFFCURVE",
"538 -80 CURVE",
"477 -11 LINE",
"438 -50 OFFCURVE",
"398 -98 OFFCURVE",
"356 -157 CURVE"
);
}
);
width = 706;
}
);
},
{
color = 9;
glyphname = h.init.v2;
lastChange = "2019-12-27 10:40:57 +0000";
layers = (
{
components = (
{
name = H.init;
}
);
layerId = "E91C2A68-9D13-40A3-B48F-6510F845363B";
paths = (
{
closed = 1;
nodes = (
"215 -141 LINE",
"248 -106 OFFCURVE",
"294 -68 OFFCURVE",
"354 -25 CURVE",
"293 44 LINE",
"254 5 OFFCURVE",
"214 -43 OFFCURVE",
"172 -102 CURVE"
);
},
{
closed = 1;
nodes = (
"391 -218 LINE",
"424 -183 OFFCURVE",
"470 -145 OFFCURVE",
"530 -102 CURVE",
"469 -33 LINE",
"430 -72 OFFCURVE",
"390 -120 OFFCURVE",
"348 -179 CURVE"
);
}
);
width = 788;
}
);
},
{
color = 9;
glyphname = h.medi.v2;
lastChange = "2019-12-27 10:40:57 +0000";
layers = (
{
components = (
{
name = a.medi.v1;
}
);
layerId = "E91C2A68-9D13-40A3-B48F-6510F845363B";
paths = (
{
closed = 1;
nodes = (
"45 -163 LINE",
"78 -128 OFFCURVE",
"124 -90 OFFCURVE",
"184 -47 CURVE",
"123 22 LINE",
"84 -17 OFFCURVE",
"44 -65 OFFCURVE",
"2 -124 CURVE"
);
},
{
closed = 1;
nodes = (
"328 -163 LINE",
"361 -128 OFFCURVE",
"407 -90 OFFCURVE",
"467 -47 CURVE",
"406 22 LINE",
"367 -17 OFFCURVE",
"327 -65 OFFCURVE",
"285 -124 CURVE"
);
}
);
width = 568;
}
);
},
{
color = 9;
glyphname = a.medi;
lastChange = "2019-12-27 10:40:57 +0000";
layers = (
{
layerId = "E91C2A68-9D13-40A3-B48F-6510F845363B";
paths = (
{
closed = 1;
nodes = (
"19 96 LINE",
"85 96 LINE",
"104 364 LINE",
"314 364 LINE",
"314 444 LINE",
"0 444 LINE",
"0 364 LINE"
);
}
);
width = 284;
}
);
},
{
color = 9;
glyphname = i.medi.v2;
lastChange = "2019-12-27 10:40:57 +0000";
layers = (
{
layerId = "E91C2A68-9D13-40A3-B48F-6510F845363B";
paths = (
{
closed = 1;
nodes = (
"173 -67 LINE",
"246 -31 LINE",
"173 100 OFFCURVE",
"117 231 OFFCURVE",
"79 364 CURVE",
"391 364 LINE",
"391 444 LINE",
"0 444 LINE",
"0 364 LINE",
"37 224 OFFCURVE",
"94 80 OFFCURVE",
"173 -67 CURVE"
);
},
{
closed = 1;
nodes = (
"466 -67 LINE",
"539 -31 LINE",
"466 100 OFFCURVE",
"410 231 OFFCURVE",
"372 364 CURVE",
"684 364 LINE",
"684 444 LINE",
"293 444 LINE",
"293 364 LINE",
"330 224 OFFCURVE",
"387 80 OFFCURVE",
"466 -67 CURVE"
);
}
);
width = 654;
}
);
},
{
color = 8;
glyphname = b_i.init;
lastChange = "2019-12-27 10:40:57 +0000";
layers = (
{
layerId = "E91C2A68-9D13-40A3-B48F-6510F845363B";
paths = (
{
closed = 1;
nodes = (
"729 -67 LINE",
"802 -31 LINE",
"722 113 OFFCURVE",
"668 238 OFFCURVE",
"642 364 CURVE",
"947 364 LINE",
"947 444 LINE",
"627 444 LINE",
"589 650 OFFCURVE",
"514 782 OFFCURVE",
"330 782 CURVE",
"242 782 OFFCURVE",
"172 749 OFFCURVE",
"121 683 CURVE",
"70 617 OFFCURVE",
"45 525 OFFCURVE",
"45 408 CURVE",
"45 161 OFFCURVE",
"118 40 OFFCURVE",
"272 40 CURVE",
"378 40 OFFCURVE",
"451 138 OFFCURVE",
"451 275 CURVE",
"451 312 OFFCURVE",
"440 410 OFFCURVE",
"428 444 CURVE",
"124 444 LINE",
"126 588 OFFCURVE",
"194 699 OFFCURVE",
"330 699 CURVE",
"469 699 OFFCURVE",
"523 589 OFFCURVE",
"552 418 CURVE",
"566 334 OFFCURVE",
"584 258 OFFCURVE",
"609 192 CURVE",
"634 125 OFFCURVE",
"674 39 OFFCURVE",
"729 -67 CURVE"
);
},
{
closed = 1;
nodes = (
"264 123 LINE",
"173 123 OFFCURVE",
"126 203 OFFCURVE",
"124 364 CURVE",
"362 364 LINE",
"369 345 OFFCURVE",
"372 311 OFFCURVE",
"372 271 CURVE",
"372 186 OFFCURVE",
"333 123 OFFCURVE",
"264 123 CURVE"
);
}
);
width = 917;
}
);
},
{
color = 8;
glyphname = h_i.init;
lastChange = "2019-12-27 10:40:57 +0000";
layers = (
{
layerId = "E91C2A68-9D13-40A3-B48F-6510F845363B";
paths = (
{
closed = 1;
nodes = (
"622 -67 LINE",
"695 -31 LINE",
"611 101 OFFCURVE",
"558 232 OFFCURVE",
"533 364 CURVE",
"840 364 LINE",
"840 444 LINE",
"523 444 LINE",
"501 628 OFFCURVE",
"443 760 OFFCURVE",
"287 760 CURVE",
"126 760 OFFCURVE",
"45 606 OFFCURVE",
"45 417 CURVE",
"45 299 OFFCURVE",
"88 174 OFFCURVE",
"174 42 CURVE",
"245 85 LINE",
"169 197 OFFCURVE",
"124 291 OFFCURVE",
"124 417 CURVE",
"124 557 OFFCURVE",
"170 677 OFFCURVE",
"287 677 CURVE",
"354 677 OFFCURVE",
"390 645 OFFCURVE",
"416 572 CURVE",
"429 536 OFFCURVE",
"438 485 OFFCURVE",
"447 418 CURVE",
"457 340 OFFCURVE",
"476 259 OFFCURVE",
"505 176 CURVE",
"534 92 OFFCURVE",
"574 12 OFFCURVE",
"622 -67 CURVE"
);
}
);
width = 810;
}
);
},
{
color = 8;
glyphname = b_o;
lastChange = "2019-12-27 10:38:52 +0000";
layers = (
{
layerId = "E91C2A68-9D13-40A3-B48F-6510F845363B";
paths = (
{
closed = 1;
nodes = (
"249 40 LINE",
"311 40 OFFCURVE",
"370 72 OFFCURVE",
"396 135 CURVE",
"424 71 OFFCURVE",
"474 40 OFFCURVE",
"538 40 CURVE",
"683 40 OFFCURVE",
"752 146 OFFCURVE",
"752 375 CURVE",
"752 607 OFFCURVE",
"632 782 OFFCURVE",
"405 782 CURVE",
"178 782 OFFCURVE",
"45 617 OFFCURVE",
"45 375 CURVE",
"45 155 OFFCURVE",
"107 40 OFFCURVE",
"249 40 CURVE"
);
},
{
closed = 1;
nodes = (
"249 123 LINE",
"145 123 OFFCURVE",
"124 222 OFFCURVE",
"124 364 CURVE",
"359 364 LINE",
"359 286 LINE SMOOTH",
"359 195 OFFCURVE",
"325 123 OFFCURVE",
"249 123 CURVE"
);
},
{
closed = 1;
nodes = (
"538 123 LINE",
"471 123 OFFCURVE",
"438 177 OFFCURVE",
"438 286 CURVE",
"438 364 LINE",
"673 364 LINE",
"668 188 OFFCURVE",
"638 123 OFFCURVE",
"538 123 CURVE"
);
},
{
closed = 1;
nodes = (
"127 444 LINE",
"145 605 OFFCURVE",
"236 699 OFFCURVE",
"405 699 CURVE",
"556 699 OFFCURVE",
"647 596 OFFCURVE",
"668 444 CURVE"
);
}
);
width = 797;
}
);
},
{
color = 8;
glyphname = b_o.init;
lastChange = "2019-12-27 10:40:57 +0000";
layers = (
{
layerId = "E91C2A68-9D13-40A3-B48F-6510F845363B";
paths = (
{
closed = 1;
nodes = (
"249 40 LINE",
"311 40 OFFCURVE",
"370 72 OFFCURVE",
"396 135 CURVE",
"424 71 OFFCURVE",
"474 40 OFFCURVE",
"538 40 CURVE",
"681 40 OFFCURVE",
"750 146 OFFCURVE",
"752 364 CURVE",
"963 364 LINE",
"963 444 LINE",
"748 444 LINE",
"726 652 OFFCURVE",
"597 782 OFFCURVE",
"405 782 CURVE",
"178 782 OFFCURVE",
"45 617 OFFCURVE",
"45 375 CURVE",
"45 155 OFFCURVE",
"107 40 OFFCURVE",
"249 40 CURVE"
);
},
{
closed = 1;
nodes = (
"249 123 LINE",
"145 123 OFFCURVE",
"124 222 OFFCURVE",
"124 364 CURVE",
"359 364 LINE",
"359 286 LINE SMOOTH",
"359 195 OFFCURVE",
"325 123 OFFCURVE",
"249 123 CURVE"
);
},
{
closed = 1;
nodes = (
"538 123 LINE",
"471 123 OFFCURVE",
"438 177 OFFCURVE",
"438 286 CURVE",
"438 364 LINE",
"673 364 LINE",
"668 188 OFFCURVE",
"638 123 OFFCURVE",
"538 123 CURVE"
);
},
{
closed = 1;
nodes = (
"127 444 LINE",
"145 605 OFFCURVE",
"236 699 OFFCURVE",
"405 699 CURVE",
"556 699 OFFCURVE",
"647 596 OFFCURVE",
"668 444 CURVE"
);
}
);
width = 933;
}
);
},
{
color = 8;
glyphname = b_oe.init;
lastChange = "2019-12-27 10:40:57 +0000";
layers = (
{
layerId = "E91C2A68-9D13-40A3-B48F-6510F845363B";
paths = (
{
closed = 1;
nodes = (
"1036 -67 LINE",
"1109 -31 LINE",
"1037 97 OFFCURVE",
"981 229 OFFCURVE",
"942 364 CURVE",
"1254 364 LINE",
"1254 444 LINE",
"748 444 LINE",
"726 652 OFFCURVE",
"599 782 OFFCURVE",
"405 782 CURVE",
"178 782 OFFCURVE",
"45 615 OFFCURVE",
"45 375 CURVE",
"45 155 OFFCURVE",
"107 40 OFFCURVE",
"249 40 CURVE",
"311 40 OFFCURVE",
"370 72 OFFCURVE",
"396 135 CURVE",
"424 71 OFFCURVE",
"474 40 OFFCURVE",
"538 40 CURVE",
"681 40 OFFCURVE",
"750 146 OFFCURVE",
"752 364 CURVE",
"863 364 LINE",
"901 220 OFFCURVE",
"958 77 OFFCURVE",
"1036 -67 CURVE"
);
},
{
closed = 1;
nodes = (
"248 123 LINE",
"142 123 OFFCURVE",
"124 227 OFFCURVE",
"124 364 CURVE",
"359 364 LINE",
"359 281 LINE SMOOTH",
"359 187 OFFCURVE",
"318 123 OFFCURVE",
"248 123 CURVE"
);
},
{
closed = 1;
nodes = (
"538 123 LINE",
"471 123 OFFCURVE",
"438 177 OFFCURVE",
"438 286 CURVE",
"438 364 LINE",
"673 364 LINE",
"668 188 OFFCURVE",
"638 123 OFFCURVE",
"538 123 CURVE"
);
},
{
closed = 1;
nodes = (
"127 444 LINE",
"148 605 OFFCURVE",
"233 699 OFFCURVE",
"405 699 CURVE",
"556 699 OFFCURVE",
"647 596 OFFCURVE",
"668 444 CURVE"
);
}
);
width = 1224;
}
);
},
{
color = 8;
glyphname = ng_l.medi;
lastChange = "2019-12-27 10:40:57 +0000";
layers = (
{
layerId = "E91C2A68-9D13-40A3-B48F-6510F845363B";
paths = (
{
closed = 1;
nodes = (
"338 70 LINE",
"412 112 LINE",
"356 205 OFFCURVE",
"321 292 OFFCURVE",
"321 396 CURVE",
"321 500 OFFCURVE",
"364 563 OFFCURVE",
"444 563 CURVE",
"516 563 OFFCURVE",
"564 500 OFFCURVE",
"574 365 CURVE",
"593 96 LINE",
"659 96 LINE",
"678 364 LINE",
"888 364 LINE",
"888 444 LINE",
"639 444 LINE",
"633 473 OFFCURVE",
"626 500 OFFCURVE",
"616 523 CURVE",
"616 612 OFFCURVE",
"641 682 OFFCURVE",
"688 766 CURVE",
"688 832 LINE",
"568 832 LINE SMOOTH",
"500 832 OFFCURVE",
"435 835 OFFCURVE",
"388 868 CURVE",
"388 790 LINE",
"429 754 OFFCURVE",
"491 752 OFFCURVE",
"568 752 CURVE",
"596 752 LINE",
"576 711 OFFCURVE",
"562 664 OFFCURVE",
"553 609 CURVE",
"522 634 OFFCURVE",
"486 646 OFFCURVE",
"444 646 CURVE",
"327 646 OFFCURVE",
"258 561 OFFCURVE",
"245 444 CURVE",
"0 444 LINE",
"0 364 LINE",
"19 96 LINE",
"85 96 LINE",
"104 364 LINE",
"243 364 LINE",
"249 271 OFFCURVE",
"280 173 OFFCURVE",
"338 70 CURVE"
);
}
);
width = 858;
}
);
},
{
color = 8;
glyphname = b_a.init;
lastChange = "2019-12-27 10:40:57 +0000";
layers = (
{
layerId = "E91C2A68-9D13-40A3-B48F-6510F845363B";
paths = (
{
closed = 1;
nodes = (
"271 40 LINE",
"375 40 OFFCURVE",
"451 134 OFFCURVE",
"451 275 CURVE",
"451 312 OFFCURVE",
"440 410 OFFCURVE",
"428 444 CURVE",
"124 444 LINE",
"126 592 OFFCURVE",
"204 699 OFFCURVE",
"352 699 CURVE",
"493 699 OFFCURVE",
"563 586 OFFCURVE",
"579 364 CURVE",
"598 96 LINE",
"664 96 LINE",
"683 364 LINE",
"893 364 LINE",
"893 444 LINE",
"652 444 LINE",
"625 637 OFFCURVE",
"535 782 OFFCURVE",
"352 782 CURVE",
"150 782 OFFCURVE",
"45 630 OFFCURVE",
"45 408 CURVE",
"45 161 OFFCURVE",
"119 40 OFFCURVE",
"271 40 CURVE"
);
},
{
closed = 1;
nodes = (
"264 123 LINE",
"173 123 OFFCURVE",
"126 203 OFFCURVE",
"124 364 CURVE",
"362 364 LINE",
"369 345 OFFCURVE",
"372 315 OFFCURVE",
"372 275 CURVE",
"372 190 OFFCURVE",
"337 123 OFFCURVE",
"264 123 CURVE"
);
}
);
width = 863;
}
);
},
{
color = 8;
glyphname = h_oe.v1;
lastChange = "2019-12-27 10:42:18 +0000";
layers = (
{
layerId = "E91C2A68-9D13-40A3-B48F-6510F845363B";
paths = (
{
closed = 1;
nodes = (
"509 40 LINE",
"623 40 OFFCURVE",
"704 145 OFFCURVE",
"704 302 CURVE",
"704 558 OFFCURVE",
"607 760 OFFCURVE",
"365 760 CURVE",
"170 760 OFFCURVE",
"45 616 OFFCURVE",
"45 408 CURVE",
"45 290 OFFCURVE",
"86 152 OFFCURVE",
"146 42 CURVE",
"219 73 LINE",
"152 198 OFFCURVE",
"124 313 OFFCURVE",
"124 405 CURVE",
"124 567 OFFCURVE",
"211 677 OFFCURVE",
"365 677 CURVE",
"503 677 OFFCURVE",
"586 599 OFFCURVE",
"614 444 CURVE",
"347 444 LINE",
"323 397 OFFCURVE",
"309 330 OFFCURVE",
"309 275 CURVE",
"309 132 OFFCURVE",
"376 40 OFFCURVE",
"509 40 CURVE"
);
},
{
closed = 1;
nodes = (
"502 123 LINE",
"426 123 OFFCURVE",
"388 174 OFFCURVE",
"388 275 CURVE",
"388 311 OFFCURVE",
"394 341 OFFCURVE",
"404 364 CURVE",
"623 364 LINE",
"625 344 OFFCURVE",
"625 322 OFFCURVE",
"625 301 CURVE",
"625 203 OFFCURVE",
"585 123 OFFCURVE",
"502 123 CURVE"
);
}
);
width = 749;
}
);
},
{
color = 8;
glyphname = h_oe.init.v1;
lastChange = "2019-12-27 10:40:57 +0000";
layers = (
{
layerId = "E91C2A68-9D13-40A3-B48F-6510F845363B";
paths = (
{
closed = 1;
nodes = (
"509 40 LINE",
"622 40 OFFCURVE",
"704 145 OFFCURVE",
"704 302 CURVE",
"704 323 OFFCURVE",
"704 344 OFFCURVE",
"702 364 CURVE",
"915 364 LINE",
"915 444 LINE",
"693 444 LINE",
"658 649 OFFCURVE",
"545 760 OFFCURVE",
"365 760 CURVE",
"170 760 OFFCURVE",
"45 616 OFFCURVE",
"45 408 CURVE",
"45 290 OFFCURVE",
"86 152 OFFCURVE",
"146 42 CURVE",
"219 73 LINE",
"152 198 OFFCURVE",
"124 313 OFFCURVE",
"124 405 CURVE",
"124 567 OFFCURVE",
"211 677 OFFCURVE",
"365 677 CURVE",
"503 677 OFFCURVE",
"586 599 OFFCURVE",
"614 444 CURVE",
"347 444 LINE",
"323 397 OFFCURVE",
"309 330 OFFCURVE",
"309 275 CURVE",
"309 132 OFFCURVE",
"376 40 OFFCURVE",
"509 40 CURVE"
);
},
{
closed = 1;
nodes = (
"502 123 LINE",
"426 123 OFFCURVE",
"388 174 OFFCURVE",
"388 275 CURVE",
"388 311 OFFCURVE",
"394 341 OFFCURVE",
"404 364 CURVE",
"623 364 LINE",
"625 344 OFFCURVE",
"625 324 OFFCURVE",
"625 303 CURVE",
"625 204 OFFCURVE",
"586 123 OFFCURVE",
"502 123 CURVE"
);
}
);
width = 885;
}
);
},
{
color = 8;
glyphname = h_e.init;
lastChange = "2019-12-27 10:40:57 +0000";
layers = (
{
layerId = "E91C2A68-9D13-40A3-B48F-6510F845363B";
paths = (
{
closed = 1;
nodes = (
"174 42 LINE",
"245 85 LINE",
"169 197 OFFCURVE",
"124 291 OFFCURVE",
"124 417 CURVE",
"124 571 OFFCURVE",
"183 644 OFFCURVE",
"275 644 CURVE",
"394 644 OFFCURVE",
"418 529 OFFCURVE",
"430 363 CURVE",
"449 96 LINE",
"515 96 LINE",
"534 364 LINE",
"744 364 LINE",
"744 444 LINE",
"503 444 LINE",
"482 614 OFFCURVE",
"424 727 OFFCURVE",
"274 727 CURVE",
"136 727 OFFCURVE",
"45 606 OFFCURVE",
"45 417 CURVE",
"45 299 OFFCURVE",
"88 174 OFFCURVE",
"174 42 CURVE"
);
}
);
width = 714;
}
);
},
{
color = 8;
glyphname = p_a.init;
lastChange = "2019-12-27 10:40:57 +0000";
layers = (
{
layerId = "E91C2A68-9D13-40A3-B48F-6510F845363B";
paths = (
{
closed = 1;
nodes = (
"62 42 LINE",
"109 68 OFFCURVE",
"162 73 OFFCURVE",
"231 73 CURVE",
"346 73 OFFCURVE",
"418 158 OFFCURVE",
"418 275 CURVE",
"418 332 OFFCURVE",
"411 388 OFFCURVE",
"397 444 CURVE",
"124 444 LINE",
"126 588 OFFCURVE",
"194 699 OFFCURVE",
"330 699 CURVE",
"461 699 OFFCURVE",
"530 586 OFFCURVE",
"546 364 CURVE",
"565 96 LINE",
"631 96 LINE",
"650 364 LINE",
"860 364 LINE",
"860 444 LINE",
"618 444 LINE",
"586 665 OFFCURVE",
"488 782 OFFCURVE",
"330 782 CURVE",
"138 782 OFFCURVE",
"45 624 OFFCURVE",
"45 408 CURVE",
"45 364 LINE",
"329 364 LINE",
"335 344 OFFCURVE",
"339 312 OFFCURVE",
"339 273 CURVE",
"339 201 OFFCURVE",
"298 153 OFFCURVE",
"231 153 CURVE",
"167 153 OFFCURVE",
"104 150 OFFCURVE",
"62 122 CURVE"
);
}
);
width = 830;
}
);
},
{
color = 8;
glyphname = f_o;
lastChange = "2019-12-27 10:38:52 +0000";
layers = (
{
layerId = "E91C2A68-9D13-40A3-B48F-6510F845363B";
paths = (
{
closed = 1;
nodes = (
"198 -182 LINE",
"288 -182 LINE",
"263 -148 OFFCURVE",
"250 -108 OFFCURVE",
"250 -63 CURVE",
"250 -23 OFFCURVE",
"257 11 OFFCURVE",
"271 41 CURVE",
"323 47 OFFCURVE",
"372 79 OFFCURVE",
"396 135 CURVE",
"424 71 OFFCURVE",
"474 40 OFFCURVE",
"538 40 CURVE",
"683 40 OFFCURVE",
"752 146 OFFCURVE",
"752 375 CURVE",
"752 607 OFFCURVE",
"632 782 OFFCURVE",
"405 782 CURVE",
"178 782 OFFCURVE",
"45 617 OFFCURVE",
"45 375 CURVE",
"45 173 OFFCURVE",
"97 70 OFFCURVE",
"198 45 CURVE",
"178 10 OFFCURVE",
"168 -26 OFFCURVE",
"168 -64 CURVE",
"168 -113 OFFCURVE",
"178 -152 OFFCURVE",
"198 -182 CURVE"
);
},
{
closed = 1;
nodes = (
"248 123 LINE",
"144 123 OFFCURVE",
"124 224 OFFCURVE",
"124 364 CURVE",
"359 364 LINE",
"359 281 LINE SMOOTH",
"359 189 OFFCURVE",
"320 123 OFFCURVE",
"248 123 CURVE"
);
},
{
closed = 1;
nodes = (
"538 123 LINE",
"471 123 OFFCURVE",
"438 177 OFFCURVE",
"438 286 CURVE",
"438 364 LINE",
"673 364 LINE",
"668 188 OFFCURVE",
"638 123 OFFCURVE",
"538 123 CURVE"
);
},
{
closed = 1;
nodes = (
"127 444 LINE",
"145 605 OFFCURVE",
"236 699 OFFCURVE",
"405 699 CURVE",
"556 699 OFFCURVE",
"647 596 OFFCURVE",
"668 444 CURVE"
);
}
);
width = 797;
}
);
},
{
color = 8;
glyphname = k_a.init;
lastChange = "2019-12-27 10:40:57 +0000";
layers = (
{
layerId = "E91C2A68-9D13-40A3-B48F-6510F845363B";
paths = (
{
closed = 1;
nodes = (
"174 42 LINE",
"245 85 LINE",
"183 174 OFFCURVE",
"136 262 OFFCURVE",
"126 364 CURVE",
"285 364 LINE",
"285 444 LINE",
"124 444 LINE",
"130 579 OFFCURVE",
"188 644 OFFCURVE",
"274 644 CURVE",
"394 644 OFFCURVE",
"418 530 OFFCURVE",
"430 360 CURVE",
"449 96 LINE",
"515 96 LINE",
"534 364 LINE",
"744 364 LINE",
"744 444 LINE",
"503 444 LINE",
"482 614 OFFCURVE",
"424 727 OFFCURVE",
"274 727 CURVE",
"137 727 OFFCURVE",
"45 608 OFFCURVE",
"45 417 CURVE",
"45 299 OFFCURVE",
"88 174 OFFCURVE",
"174 42 CURVE"
);
}
);
width = 714;
}
);
},
{
color = 8;
glyphname = h_oe.init;
lastChange = "2019-12-27 10:40:57 +0000";
layers = (
{
layerId = "E91C2A68-9D13-40A3-B48F-6510F845363B";
paths = (
{
closed = 1;
nodes = (
"992 -67 LINE",
"1065 -31 LINE",
"992 100 OFFCURVE",
"936 231 OFFCURVE",
"898 364 CURVE",
"1210 364 LINE",
"1210 444 LINE",
"693 444 LINE",
"658 649 OFFCURVE",
"545 760 OFFCURVE",
"365 760 CURVE",
"170 760 OFFCURVE",
"45 616 OFFCURVE",
"45 408 CURVE",
"45 290 OFFCURVE",
"86 152 OFFCURVE",
"146 42 CURVE",
"219 73 LINE",
"152 198 OFFCURVE",
"124 313 OFFCURVE",
"124 405 CURVE",
"124 567 OFFCURVE",
"211 677 OFFCURVE",
"365 677 CURVE",
"503 677 OFFCURVE",
"586 599 OFFCURVE",
"614 444 CURVE",
"347 444 LINE",
"323 397 OFFCURVE",
"309 330 OFFCURVE",
"309 275 CURVE",
"309 132 OFFCURVE",
"376 40 OFFCURVE",
"509 40 CURVE",
"619 40 OFFCURVE",
"704 141 OFFCURVE",
"704 298 CURVE",
"704 319 OFFCURVE",
"704 344 OFFCURVE",
"702 364 CURVE",
"819 364 LINE",
"857 220 OFFCURVE",
"915 77 OFFCURVE",
"992 -67 CURVE"
);
},
{
closed = 1;
nodes = (
"502 123 LINE",
"426 123 OFFCURVE",
"388 174 OFFCURVE",
"388 275 CURVE",
"388 311 OFFCURVE",
"394 341 OFFCURVE",
"404 364 CURVE",
"623 364 LINE",
"625 344 OFFCURVE",
"625 324 OFFCURVE",
"625 303 CURVE",
"625 204 OFFCURVE",
"586 123 OFFCURVE",
"502 123 CURVE"
);
}
);
width = 1180;
}
);
},
{
color = 8;
glyphname = p_o;
lastChange = "2019-12-27 10:38:52 +0000";
layers = (
{
layerId = "E91C2A68-9D13-40A3-B48F-6510F845363B";
paths = (
{
closed = 1;
nodes = (
"505 40 LINE",
"650 40 OFFCURVE",
"719 148 OFFCURVE",
"719 375 CURVE",
"719 618 OFFCURVE",
"588 782 OFFCURVE",
"372 782 CURVE",
"174 782 OFFCURVE",
"45 637 OFFCURVE",
"45 409 CURVE",
"45 364 LINE",
"326 364 LINE",
"326 275 LINE SMOOTH",
"326 195 OFFCURVE",
"284 153 OFFCURVE",
"225 153 CURVE",
"162 153 OFFCURVE",
"104 150 OFFCURVE",
"62 122 CURVE",
"62 42 LINE",
"109 68 OFFCURVE",
"159 73 OFFCURVE",
"225 73 CURVE",
"282 73 OFFCURVE",
"328 94 OFFCURVE",
"363 136 CURVE",
"388 72 OFFCURVE",
"436 40 OFFCURVE",
"505 40 CURVE"
);
},
{
closed = 1;
nodes = (
"505 123 LINE",
"438 123 OFFCURVE",
"405 177 OFFCURVE",
"405 286 CURVE",
"405 364 LINE",
"640 364 LINE",
"638 219 OFFCURVE",
"618 123 OFFCURVE",
"505 123 CURVE"
);
},
{
closed = 1;
nodes = (
"124 444 LINE",
"127 595 OFFCURVE",
"224 699 OFFCURVE",
"372 699 CURVE",
"522 699 OFFCURVE",
"614 596 OFFCURVE",
"635 444 CURVE"
);
}
);
width = 764;
}
);
},
{
color = 8;
glyphname = p_o.init;
lastChange = "2019-12-27 10:40:57 +0000";
layers = (
{
layerId = "E91C2A68-9D13-40A3-B48F-6510F845363B";
paths = (
{
closed = 1;
nodes = (
"505 40 LINE",
"647 40 OFFCURVE",
"716 144 OFFCURVE",
"719 364 CURVE",
"930 364 LINE",
"930 444 LINE",
"715 444 LINE",
"693 652 OFFCURVE",
"564 782 OFFCURVE",
"372 782 CURVE",
"178 782 OFFCURVE",
"45 637 OFFCURVE",
"45 409 CURVE",
"45 364 LINE",
"326 364 LINE",
"326 275 LINE SMOOTH",
"326 195 OFFCURVE",
"284 153 OFFCURVE",
"225 153 CURVE",
"162 153 OFFCURVE",
"104 150 OFFCURVE",
"62 122 CURVE",
"62 42 LINE",
"109 68 OFFCURVE",
"159 73 OFFCURVE",
"225 73 CURVE",
"282 73 OFFCURVE",
"328 94 OFFCURVE",
"363 136 CURVE",
"388 72 OFFCURVE",
"436 40 OFFCURVE",
"505 40 CURVE"
);
},
{
closed = 1;
nodes = (
"505 123 LINE",
"438 123 OFFCURVE",
"405 177 OFFCURVE",
"405 286 CURVE",
"405 364 LINE",
"640 364 LINE",
"636 220 OFFCURVE",
"619 123 OFFCURVE",
"505 123 CURVE"
);
},
{
closed = 1;
nodes = (
"124 444 LINE",
"127 595 OFFCURVE",
"224 699 OFFCURVE",
"372 699 CURVE",
"522 699 OFFCURVE",
"614 596 OFFCURVE",
"635 444 CURVE"
);
}
);
width = 900;
}
);
},
{
color = 8;
glyphname = p_oe.init;
lastChange = "2019-12-27 10:40:57 +0000";
layers = (
{
layerId = "E91C2A68-9D13-40A3-B48F-6510F845363B";
paths = (
{
closed = 1;
nodes = (
"1003 -67 LINE",
"1076 -31 LINE",
"1003 100 OFFCURVE",
"947 231 OFFCURVE",
"909 364 CURVE",
"1221 364 LINE",
"1221 444 LINE",
"715 444 LINE",
"693 652 OFFCURVE",
"566 782 OFFCURVE",
"371 782 CURVE",
"175 782 OFFCURVE",
"45 638 OFFCURVE",
"45 410 CURVE",
"45 364 LINE",
"326 364 LINE",
"326 275 LINE SMOOTH",
"326 195 OFFCURVE",
"284 153 OFFCURVE",
"225 153 CURVE",
"162 153 OFFCURVE",
"104 150 OFFCURVE",
"62 122 CURVE",
"62 42 LINE",
"109 68 OFFCURVE",
"159 73 OFFCURVE",
"225 73 CURVE",
"282 73 OFFCURVE",
"328 94 OFFCURVE",
"363 136 CURVE",
"388 72 OFFCURVE",
"436 40 OFFCURVE",
"505 40 CURVE",
"647 40 OFFCURVE",
"716 144 OFFCURVE",
"719 364 CURVE",
"830 364 LINE",
"868 221 OFFCURVE",
"925 78 OFFCURVE",
"1003 -67 CURVE"
);
},
{
closed = 1;
nodes = (
"505 123 LINE",
"438 123 OFFCURVE",
"405 177 OFFCURVE",
"405 286 CURVE",
"405 364 LINE",
"640 364 LINE",
"638 219 OFFCURVE",
"618 123 OFFCURVE",
"505 123 CURVE"
);
},
{
closed = 1;
nodes = (
"124 444 LINE",
"127 595 OFFCURVE",
"223 699 OFFCURVE",
"372 699 CURVE",
"522 699 OFFCURVE",
"614 596 OFFCURVE",
"635 444 CURVE"
);
}
);
width = 1191;
}
);
},
{
color = 8;
glyphname = p_i.init;
lastChange = "2019-12-27 10:40:57 +0000";
layers = (
{
layerId = "E91C2A68-9D13-40A3-B48F-6510F845363B";
paths = (
{
closed = 1;
nodes = (
"707 -67 LINE",
"780 -31 LINE",
"708 99 OFFCURVE",
"646 234 OFFCURVE",
"620 364 CURVE",
"925 364 LINE",
"925 444 LINE",
"605 444 LINE",
"571 646 OFFCURVE",
"496 782 OFFCURVE",
"319 782 CURVE",
"132 782 OFFCURVE",
"45 621 OFFCURVE",
"45 408 CURVE",
"45 364 LINE",
"329 364 LINE",
"335 344 OFFCURVE",
"339 314 OFFCURVE",
"339 275 CURVE",
"339 201 OFFCURVE",
"298 153 OFFCURVE",
"231 153 CURVE",
"166 153 OFFCURVE",
"104 150 OFFCURVE",
"62 122 CURVE",
"62 42 LINE",
"109 68 OFFCURVE",
"162 73 OFFCURVE",
"231 73 CURVE",
"346 73 OFFCURVE",
"418 158 OFFCURVE",
"418 275 CURVE",
"418 332 OFFCURVE",
"411 388 OFFCURVE",
"397 444 CURVE",
"124 444 LINE",
"126 585 OFFCURVE",
"189 699 OFFCURVE",
"319 699 CURVE",
"435 699 OFFCURVE",
"499 602 OFFCURVE",
"530 418 CURVE",
"561 231 OFFCURVE",
"609 122 OFFCURVE",
"707 -67 CURVE"
);
}
);
width = 895;
}
);
},
{
color = 8;
glyphname = h_e2.init;
lastChange = "2019-12-27 10:40:57 +0000";
layers = (
{
layerId = "E91C2A68-9D13-40A3-B48F-6510F845363B";
paths = (
{
closed = 1;
nodes = (
"737 -119 LINE",
"774 -119 OFFCURVE",
"805 -106 OFFCURVE",
"819 -85 CURVE",
"819 6 LINE",
"801 -22 OFFCURVE",
"773 -36 OFFCURVE",
"737 -36 CURVE",
"678 -36 OFFCURVE",
"637 33 OFFCURVE",
"599 117 CURVE",
"566 190 OFFCURVE",
"542 271 OFFCURVE",
"530 364 CURVE",
"915 364 LINE",
"915 444 LINE",
"521 444 LINE",
"499 627 OFFCURVE",
"443 760 OFFCURVE",
"287 760 CURVE",
"126 760 OFFCURVE",
"45 606 OFFCURVE",
"45 417 CURVE",
"45 299 OFFCURVE",
"88 174 OFFCURVE",
"174 42 CURVE",
"245 85 LINE",
"169 197 OFFCURVE",
"124 291 OFFCURVE",
"124 417 CURVE",
"124 557 OFFCURVE",
"170 677 OFFCURVE",
"287 677 CURVE",
"398 677 OFFCURVE",
"428 570 OFFCURVE",
"445 418 CURVE",
"460 280 OFFCURVE",
"493 154 OFFCURVE",
"547 41 CURVE",
"594 -58 OFFCURVE",
"644 -119 OFFCURVE",
"737 -119 CURVE"
);
}
);
width = 885;
}
);
},
{
color = 8;
glyphname = h_e2.init.v1;
lastChange = "2019-12-27 10:40:57 +0000";
layers = (
{
components = (
{
name = h_e2.init;
}
);
layerId = "E91C2A68-9D13-40A3-B48F-6510F845363B";
paths = (
{
closed = 1;
nodes = (
"162 -196 LINE",
"195 -161 OFFCURVE",
"241 -123 OFFCURVE",
"301 -80 CURVE",
"240 -11 LINE",
"201 -50 OFFCURVE",
"161 -98 OFFCURVE",
"119 -157 CURVE"
);
},
{
closed = 1;
nodes = (
"377 -196 LINE",
"410 -161 OFFCURVE",
"456 -123 OFFCURVE",
"516 -80 CURVE",
"455 -11 LINE",
"416 -50 OFFCURVE",
"376 -98 OFFCURVE",
"334 -157 CURVE"
);
}
);
width = 885;
}
);
},
{
color = 8;
glyphname = p_e2.init;
lastChange = "2019-12-27 10:40:57 +0000";
layers = (
{
layerId = "E91C2A68-9D13-40A3-B48F-6510F845363B";
paths = (
{
closed = 1;
nodes = (
"836 -119 LINE",
"873 -119 OFFCURVE",
"904 -106 OFFCURVE",
"918 -85 CURVE",
"918 6 LINE",
"899 -22 OFFCURVE",
"872 -36 OFFCURVE",
"836 -36 CURVE",
"787 -36 OFFCURVE",
"747 13 OFFCURVE",
"703 106 CURVE",
"659 199 OFFCURVE",
"633 287 OFFCURVE",
"619 364 CURVE",
"1014 364 LINE",
"1014 444 LINE",
"604 444 LINE",
"567 645 OFFCURVE",
"496 782 OFFCURVE",
"319 782 CURVE",
"132 782 OFFCURVE",
"45 621 OFFCURVE",
"45 408 CURVE",
"45 364 LINE",
"329 364 LINE",
"335 344 OFFCURVE",
"339 314 OFFCURVE",
"339 275 CURVE",
"339 201 OFFCURVE",
"298 153 OFFCURVE",
"231 153 CURVE",
"166 153 OFFCURVE",
"104 150 OFFCURVE",
"62 122 CURVE",
"62 42 LINE",
"109 68 OFFCURVE",
"162 73 OFFCURVE",
"231 73 CURVE",
"346 73 OFFCURVE",
"418 158 OFFCURVE",
"418 275 CURVE",
"418 332 OFFCURVE",
"411 388 OFFCURVE",
"397 444 CURVE",
"124 444 LINE",
"126 585 OFFCURVE",
"189 699 OFFCURVE",
"319 699 CURVE",
"453 699 OFFCURVE",
"502 585 OFFCURVE",
"530 418 CURVE",
"553 279 OFFCURVE",
"592 153 OFFCURVE",
"645 41 CURVE",
"691 -56 OFFCURVE",
"743 -119 OFFCURVE",
"836 -119 CURVE"
);
}
);
width = 984;
}
);
},
{
color = 8;
glyphname = b_e2.init;
lastChange = "2019-12-27 10:40:57 +0000";
layers = (
{
layerId = "E91C2A68-9D13-40A3-B48F-6510F845363B";
paths = (
{
closed = 1;
nodes = (
"858 -119 LINE",
"896 -119 OFFCURVE",
"926 -106 OFFCURVE",
"940 -85 CURVE",
"940 6 LINE",
"921 -22 OFFCURVE",
"891 -36 OFFCURVE",
"855 -36 CURVE",
"761 -36 OFFCURVE",
"668 218 OFFCURVE",
"641 364 CURVE",
"1036 364 LINE",
"1036 444 LINE",
"626 444 LINE",
"590 648 OFFCURVE",
"512 782 OFFCURVE",
"330 782 CURVE",
"138 782 OFFCURVE",
"45 624 OFFCURVE",
"45 408 CURVE",
"45 161 OFFCURVE",
"119 40 OFFCURVE",
"271 40 CURVE",
"378 40 OFFCURVE",
"451 138 OFFCURVE",
"451 275 CURVE",
"451 312 OFFCURVE",
"440 410 OFFCURVE",
"428 444 CURVE",
"124 444 LINE",
"126 588 OFFCURVE",
"194 699 OFFCURVE",
"330 699 CURVE",
"469 699 OFFCURVE",
"523 589 OFFCURVE",
"552 418 CURVE",
"576 279 OFFCURVE",
"614 153 OFFCURVE",
"667 41 CURVE",
"713 -56 OFFCURVE",
"765 -119 OFFCURVE",
"858 -119 CURVE"
);
},
{
closed = 1;
nodes = (
"264 123 LINE",
"173 123 OFFCURVE",
"126 203 OFFCURVE",
"124 364 CURVE",
"362 364 LINE",
"369 345 OFFCURVE",
"372 315 OFFCURVE",
"372 275 CURVE",
"372 190 OFFCURVE",
"337 123 OFFCURVE",
"264 123 CURVE"
);
}
);
width = 1006;
}
);
},
{
color = 8;
glyphname = f_a.init;
lastChange = "2019-12-27 10:40:57 +0000";
layers = (
{
layerId = "E91C2A68-9D13-40A3-B48F-6510F845363B";
paths = (
{
closed = 1;
nodes = (
"199 -182 LINE",
"289 -182 LINE",
"264 -148 OFFCURVE",
"251 -108 OFFCURVE",
"251 -63 CURVE",
"251 -25 OFFCURVE",
"258 9 OFFCURVE",
"271 40 CURVE",
"280 40 LINE SMOOTH",
"363 40 OFFCURVE",
"451 125 OFFCURVE",
"451 272 CURVE",
"451 309 OFFCURVE",
"440 410 OFFCURVE",
"428 444 CURVE",
"124 444 LINE",
"126 592 OFFCURVE",
"204 699 OFFCURVE",
"352 699 CURVE",
"493 699 OFFCURVE",
"563 586 OFFCURVE",
"579 364 CURVE",
"598 96 LINE",
"664 96 LINE",
"683 364 LINE",
"893 364 LINE",
"893 444 LINE",
"652 444 LINE",
"625 637 OFFCURVE",
"535 782 OFFCURVE",
"352 782 CURVE",
"150 782 OFFCURVE",
"45 630 OFFCURVE",
"45 408 CURVE",
"45 202 OFFCURVE",
"96 83 OFFCURVE",
"201 50 CURVE",
"180 14 OFFCURVE",
"169 -24 OFFCURVE",
"169 -64 CURVE",
"169 -113 OFFCURVE",
"179 -152 OFFCURVE",
"199 -182 CURVE"
);
},
{
closed = 1;
nodes = (
"264 123 LINE",
"173 123 OFFCURVE",
"126 203 OFFCURVE",
"124 364 CURVE",
"362 364 LINE",
"369 345 OFFCURVE",
"372 314 OFFCURVE",
"372 274 CURVE",
"372 189 OFFCURVE",
"336 123 OFFCURVE",
"264 123 CURVE"
);
}
);
width = 863;
}
);
},
{
color = 8;
glyphname = f_i.init;
lastChange = "2019-12-27 10:40:57 +0000";
layers = (
{
layerId = "E91C2A68-9D13-40A3-B48F-6510F845363B";
paths = (
{
closed = 1;
nodes = (
"199 -182 LINE",
"289 -182 LINE",
"264 -148 OFFCURVE",
"251 -108 OFFCURVE",
"251 -63 CURVE",
"251 -25 OFFCURVE",
"258 9 OFFCURVE",
"271 40 CURVE",
"276 40 LINE SMOOTH",
"375 40 OFFCURVE",
"451 137 OFFCURVE",
"451 274 CURVE",
"451 311 OFFCURVE",
"440 410 OFFCURVE",
"428 444 CURVE",
"124 444 LINE",
"126 588 OFFCURVE",
"194 699 OFFCURVE",
"330 699 CURVE",
"469 699 OFFCURVE",
"523 589 OFFCURVE",
"552 418 CURVE",
"584 231 OFFCURVE",
"631 122 OFFCURVE",
"729 -67 CURVE",
"802 -31 LINE",
"722 113 OFFCURVE",
"668 238 OFFCURVE",
"642 364 CURVE",
"947 364 LINE",
"947 444 LINE",
"627 444 LINE",
"589 650 OFFCURVE",
"514 782 OFFCURVE",
"330 782 CURVE",
"138 782 OFFCURVE",
"45 624 OFFCURVE",
"45 408 CURVE",
"45 202 OFFCURVE",
"96 83 OFFCURVE",
"201 50 CURVE",
"180 14 OFFCURVE",
"169 -24 OFFCURVE",
"169 -64 CURVE",
"169 -113 OFFCURVE",
"179 -152 OFFCURVE",
"199 -182 CURVE"
);
},
{
closed = 1;
nodes = (
"264 123 LINE",
"173 123 OFFCURVE",
"126 203 OFFCURVE",
"124 364 CURVE",
"362 364 LINE",
"369 345 OFFCURVE",
"372 315 OFFCURVE",
"372 275 CURVE",
"372 190 OFFCURVE",
"337 123 OFFCURVE",
"264 123 CURVE"
);
}
);
width = 917;
}
);
},
{
color = 8;
glyphname = h_e.init.v1;
lastChange = "2019-12-27 10:40:57 +0000";
layers = (
{
components = (
{
name = h_e.init;
}
);
layerId = "E91C2A68-9D13-40A3-B48F-6510F845363B";
paths = (
{
closed = 1;
nodes = (
"184 -196 LINE",
"217 -161 OFFCURVE",
"263 -123 OFFCURVE",
"323 -80 CURVE",
"262 -11 LINE",
"223 -50 OFFCURVE",
"183 -98 OFFCURVE",
"141 -157 CURVE"
);
},
{
closed = 1;
nodes = (
"399 -196 LINE",
"432 -161 OFFCURVE",
"478 -123 OFFCURVE",
"538 -80 CURVE",
"477 -11 LINE",
"438 -50 OFFCURVE",
"398 -98 OFFCURVE",
"356 -157 CURVE"
);
}
);
width = 714;
}
);
},
{
color = 8;
glyphname = h_e.medi.v1;
lastChange = "2019-12-27 10:40:57 +0000";
layers = (
{
components = (
{
name = h_e.init;
transform = "{1, 0, 0, 1, -48, 0}";
}
);
layerId = "E91C2A68-9D13-40A3-B48F-6510F845363B";
paths = (
{
closed = 1;
nodes = (
"136 -196 LINE",
"169 -161 OFFCURVE",
"215 -123 OFFCURVE",
"275 -80 CURVE",
"214 -11 LINE",
"175 -50 OFFCURVE",
"135 -98 OFFCURVE",
"93 -157 CURVE"
);
},
{
closed = 1;
nodes = (
"350 -196 LINE",
"383 -161 OFFCURVE",
"429 -123 OFFCURVE",
"489 -80 CURVE",
"428 -11 LINE",
"389 -50 OFFCURVE",
"349 -98 OFFCURVE",
"307 -157 CURVE"
);
}
);
width = 666;
}
);
},
{
color = 8;
glyphname = h_e2.medi.v1;
lastChange = "2019-12-27 10:40:57 +0000";
layers = (
{
components = (
{
name = h_e2.init;
transform = "{1, 0, 0, 1, -48, 0}";
}
);
layerId = "E91C2A68-9D13-40A3-B48F-6510F845363B";
paths = (
{
closed = 1;
nodes = (
"114 -196 LINE",
"147 -161 OFFCURVE",
"193 -123 OFFCURVE",
"253 -80 CURVE",
"192 -11 LINE",
"153 -50 OFFCURVE",
"113 -98 OFFCURVE",
"71 -157 CURVE"
);
},
{
closed = 1;
nodes = (
"328 -196 LINE",
"361 -161 OFFCURVE",
"407 -123 OFFCURVE",
"467 -80 CURVE",
"406 -11 LINE",
"367 -50 OFFCURVE",
"327 -98 OFFCURVE",
"285 -157 CURVE"
);
}
);
width = 837;
}
);
},
{
color = 8;
glyphname = b_oe.v1;
lastChange = "2019-12-27 10:42:18 +0000";
layers = (
{
layerId = "E91C2A68-9D13-40A3-B48F-6510F845363B";
paths = (
{
closed = 1;
nodes = (
"249 40 LINE",
"311 40 OFFCURVE",
"370 72 OFFCURVE",
"396 135 CURVE",
"424 71 OFFCURVE",
"474 40 OFFCURVE",
"538 40 CURVE",
"681 40 OFFCURVE",
"750 146 OFFCURVE",
"752 364 CURVE",
"963 364 LINE SMOOTH",
"1034 364 OFFCURVE",
"1061 333 OFFCURVE",
"1061 279 CURVE",
"1061 236 OFFCURVE",
"1054 197 OFFCURVE",
"1039 162 CURVE",
"1113 162 LINE",
"1130 198 OFFCURVE",
"1138 237 OFFCURVE",
"1138 279 CURVE",
"1138 389 OFFCURVE",
"1080 444 OFFCURVE",
"963 444 CURVE",
"748 444 LINE",
"726 652 OFFCURVE",
"598 782 OFFCURVE",
"405 782 CURVE",
"178 782 OFFCURVE",
"45 617 OFFCURVE",
"45 375 CURVE",
"45 155 OFFCURVE",
"107 40 OFFCURVE",
"249 40 CURVE"
);
},
{
closed = 1;
nodes = (
"248 123 LINE",
"144 123 OFFCURVE",
"124 222 OFFCURVE",
"124 364 CURVE",
"359 364 LINE",
"359 282 LINE SMOOTH",
"359 191 OFFCURVE",
"322 123 OFFCURVE",
"248 123 CURVE"
);
},
{
closed = 1;
nodes = (
"538 123 LINE",
"471 123 OFFCURVE",
"438 177 OFFCURVE",
"438 286 CURVE",
"438 364 LINE",
"673 364 LINE",
"668 188 OFFCURVE",
"638 123 OFFCURVE",
"538 123 CURVE"
);
},
{
closed = 1;
nodes = (
"127 444 LINE",
"145 605 OFFCURVE",
"236 699 OFFCURVE",
"405 699 CURVE",
"556 699 OFFCURVE",
"647 596 OFFCURVE",
"668 444 CURVE"
);
}
);
width = 1183;
}
);
},
{
color = 8;
glyphname = h_oe;
lastChange = "2019-12-27 10:38:52 +0000";
layers = (
{
layerId = "E91C2A68-9D13-40A3-B48F-6510F845363B";
paths = (
{
closed = 1;
nodes = (
"510 40 LINE",
"621 40 OFFCURVE",
"704 144 OFFCURVE",
"704 303 CURVE",
"704 324 OFFCURVE",
"704 344 OFFCURVE",
"702 364 CURVE",
"915 364 LINE SMOOTH",
"985 364 OFFCURVE",
"1013 333 OFFCURVE",
"1013 279 CURVE",
"1013 236 OFFCURVE",
"1006 197 OFFCURVE",
"991 162 CURVE",
"1065 162 LINE",
"1082 197 OFFCURVE",
"1090 236 OFFCURVE",
"1090 279 CURVE",
"1090 389 OFFCURVE",
"1032 444 OFFCURVE",
"915 444 CURVE",
"693 444 LINE",
"658 649 OFFCURVE",
"545 760 OFFCURVE",
"365 760 CURVE",
"170 760 OFFCURVE",
"45 616 OFFCURVE",
"45 408 CURVE",
"45 290 OFFCURVE",
"86 152 OFFCURVE",
"146 42 CURVE",
"219 73 LINE",
"152 198 OFFCURVE",
"124 313 OFFCURVE",
"124 405 CURVE",
"124 567 OFFCURVE",
"211 677 OFFCURVE",
"365 677 CURVE",
"503 677 OFFCURVE",
"586 599 OFFCURVE",
"614 444 CURVE",
"347 444 LINE",
"323 397 OFFCURVE",
"309 330 OFFCURVE",
"309 275 CURVE",
"309 131 OFFCURVE",
"377 40 OFFCURVE",
"510 40 CURVE"
);
},
{
closed = 1;
nodes = (
"502 123 LINE",
"426 123 OFFCURVE",
"388 174 OFFCURVE",
"388 275 CURVE",
"388 311 OFFCURVE",
"394 341 OFFCURVE",
"404 364 CURVE",
"623 364 LINE",
"625 344 OFFCURVE",
"625 324 OFFCURVE",
"625 303 CURVE",
"625 204 OFFCURVE",
"586 123 OFFCURVE",
"502 123 CURVE"
);
}
);
width = 1135;
}
);
},
{
color = 8;
glyphname = b_l.init;
lastChange = "2019-12-27 10:40:57 +0000";
layers = (
{
layerId = "E91C2A68-9D13-40A3-B48F-6510F845363B";
paths = (
{
closed = 1;
nodes = (
"271 40 LINE",
"377 40 OFFCURVE",
"451 138 OFFCURVE",
"451 275 CURVE",
"451 312 OFFCURVE",
"440 410 OFFCURVE",
"428 444 CURVE",
"124 444 LINE",
"126 578 OFFCURVE",
"213 659 OFFCURVE",
"348 659 CURVE",
"487 659 OFFCURVE",
"565 559 OFFCURVE",
"579 364 CURVE",
"598 96 LINE",
"664 96 LINE",
"683 364 LINE",
"893 364 LINE",
"893 444 LINE",
"652 444 LINE",
"640 510 OFFCURVE",
"621 565 OFFCURVE",
"593 611 CURVE",
"596 695 OFFCURVE",
"624 767 OFFCURVE",
"675 848 CURVE",
"675 914 LINE",
"555 914 LINE SMOOTH",
"475 914 OFFCURVE",
"423 917 OFFCURVE",
"375 950 CURVE",
"375 872 LINE",
"415 837 OFFCURVE",
"478 834 OFFCURVE",
"555 834 CURVE",
"583 834 LINE",
"557 787 OFFCURVE",
"539 736 OFFCURVE",
"530 683 CURVE",
"482 723 OFFCURVE",
"422 742 OFFCURVE",
"348 742 CURVE",
"155 742 OFFCURVE",
"45 615 OFFCURVE",
"45 408 CURVE",
"45 161 OFFCURVE",
"120 40 OFFCURVE",
"271 40 CURVE"
);
},
{
closed = 1;
nodes = (
"264 123 LINE",
"173 123 OFFCURVE",
"126 203 OFFCURVE",
"124 364 CURVE",
"362 364 LINE",
"369 345 OFFCURVE",
"372 315 OFFCURVE",
"372 275 CURVE",
"372 190 OFFCURVE",
"337 123 OFFCURVE",
"264 123 CURVE"
);
}
);
width = 863;
}
);
},
{
color = 8;
glyphname = m_m.medi;
lastChange = "2019-12-27 10:40:57 +0000";
layers = (
{
layerId = "E91C2A68-9D13-40A3-B48F-6510F845363B";
paths = (
{
closed = 1;
nodes = (
"19 96 LINE",
"85 96 LINE",
"104 364 LINE",
"284 364 LINE",
"303 96 LINE",
"369 96 LINE",
"388 364 LINE",
"598 364 LINE",
"598 444 LINE",
"368 444 LINE",
"367 500 OFFCURVE",
"363 548 OFFCURVE",
"359 589 CURVE",
"374 589 LINE SMOOTH",
"456 589 OFFCURVE",
"508 590 OFFCURVE",
"553 627 CURVE",
"553 705 LINE",
"502 671 OFFCURVE",
"452 669 OFFCURVE",
"374 669 CURVE",
"279 669 LINE",
"279 603 LINE",
"290 557 OFFCURVE",
"296 504 OFFCURVE",
"298 444 CURVE",
"84 444 LINE",
"83 527 OFFCURVE",
"73 606 OFFCURVE",
"54 679 CURVE",
"100 679 LINE SMOOTH",
"140 679 OFFCURVE",
"179 681 OFFCURVE",
"209 700 CURVE",
"209 778 LINE",
"189 765 OFFCURVE",
"152 759 OFFCURVE",
"100 759 CURVE",
"-31 759 LINE",
"-31 693 LINE",
"-3 618 OFFCURVE",
"12 535 OFFCURVE",
"14 444 CURVE",
"0 444 LINE",
"0 364 LINE"
);
}
);
width = 568;
}
);
},
{
color = 8;
glyphname = m_l.medi;
lastChange = "2019-12-27 10:40:57 +0000";
layers = (
{
layerId = "E91C2A68-9D13-40A3-B48F-6510F845363B";
paths = (
{
closed = 1;
nodes = (
"19 96 LINE",
"85 96 LINE",
"104 364 LINE",
"284 364 LINE",
"303 96 LINE",
"369 96 LINE",
"388 364 LINE",
"598 364 LINE",
"598 444 LINE",
"376 444 LINE",
"378 532 OFFCURVE",
"403 609 OFFCURVE",
"452 693 CURVE",
"452 759 LINE",
"342 759 LINE SMOOTH",
"296 759 OFFCURVE",
"254 760 OFFCURVE",
"222 781 CURVE",
"222 703 LINE",
"249 681 OFFCURVE",
"292 679 OFFCURVE",
"342 679 CURVE",
"366 679 LINE",
"329 610 OFFCURVE",
"309 532 OFFCURVE",
"306 444 CURVE",
"84 444 LINE",
"81 503 OFFCURVE",
"67 555 OFFCURVE",
"41 599 CURVE",
"63 599 LINE SMOOTH",
"118 599 OFFCURVE",
"143 603 OFFCURVE",
"162 615 CURVE",
"162 693 LINE",
"136 680 OFFCURVE",
"104 679 OFFCURVE",
"63 679 CURVE",
"-51 679 LINE",
"-51 613 LINE",
"-8 553 OFFCURVE",
"11 502 OFFCURVE",
"13 444 CURVE",
"0 444 LINE",
"0 364 LINE"
);
}
);
width = 568;
}
);
},
{
color = 8;
glyphname = l_l.medi;
lastChange = "2019-12-27 10:40:57 +0000";
layers = (
{
layerId = "E91C2A68-9D13-40A3-B48F-6510F845363B";
paths = (
{
closed = 1;
nodes = (
"19 96 LINE",
"85 96 LINE",
"104 364 LINE",
"304 364 LINE",
"323 96 LINE",
"389 96 LINE",
"408 364 LINE",
"618 364 LINE",
"618 444 LINE",
"390 444 LINE",
"392 527 OFFCURVE",
"408 610 OFFCURVE",
"441 693 CURVE",
"441 759 LINE",
"338 759 LINE SMOOTH",
"281 759 OFFCURVE",
"241 760 OFFCURVE",
"209 785 CURVE",
"209 707 LINE",
"240 683 OFFCURVE",
"286 679 OFFCURVE",
"338 679 CURVE",
"356 679 LINE",
"333 607 OFFCURVE",
"321 529 OFFCURVE",
"320 444 CURVE",
"86 444 LINE",
"87 492 OFFCURVE",
"97 545 OFFCURVE",
"117 603 CURVE",
"117 669 LINE",
"26 669 LINE SMOOTH",
"-50 669 OFFCURVE",
"-108 672 OFFCURVE",
"-153 705 CURVE",
"-153 627 LINE",
"-113 592 OFFCURVE",
"-51 589 OFFCURVE",
"26 589 CURVE",
"32 589 LINE",
"23 546 OFFCURVE",
"18 498 OFFCURVE",
"16 444 CURVE",
"0 444 LINE",
"0 364 LINE"
);
}
);
width = 588;
}
);
},
{
color = 8;
glyphname = g_l.medi;
lastChange = "2019-12-27 10:40:57 +0000";
layers = (
{
layerId = "E91C2A68-9D13-40A3-B48F-6510F845363B";
paths = (
{
closed = 1;
nodes = (
"126 42 LINE",
"197 85 LINE",
"118 199 OFFCURVE",
"76 295 OFFCURVE",
"76 417 CURVE",
"76 571 OFFCURVE",
"134 644 OFFCURVE",
"226 644 CURVE",
"344 644 OFFCURVE",
"370 534 OFFCURVE",
"382 364 CURVE",
"401 96 LINE",
"467 96 LINE",
"486 364 LINE",
"696 364 LINE",
"696 444 LINE",
"455 444 LINE",
"447 507 OFFCURVE",
"433 561 OFFCURVE",
"414 605 CURVE",
"414 691 OFFCURVE",
"441 766 OFFCURVE",
"496 848 CURVE",
"496 914 LINE",
"376 914 LINE SMOOTH",
"300 914 OFFCURVE",
"244 917 OFFCURVE",
"196 950 CURVE",
"196 872 LINE",
"237 836 OFFCURVE",
"299 834 OFFCURVE",
"376 834 CURVE",
"404 834 LINE",
"378 791 OFFCURVE",
"361 742 OFFCURVE",
"351 688 CURVE",
"317 714 OFFCURVE",
"276 727 OFFCURVE",
"226 727 CURVE",
"88 727 OFFCURVE",
"-3 608 OFFCURVE",
"-3 417 CURVE",
"-3 299 OFFCURVE",
"40 174 OFFCURVE",
"126 42 CURVE"
);
}
);
width = 666;
}
);
},
{
color = 8;
glyphname = b_i;
lastChange = "2019-12-27 10:38:52 +0000";
layers = (
{
layerId = "E91C2A68-9D13-40A3-B48F-6510F845363B";
paths = (
{
closed = 1;
nodes = (
"729 -67 LINE",
"802 -31 LINE",
"722 113 OFFCURVE",
"668 238 OFFCURVE",
"642 364 CURVE",
"947 364 LINE SMOOTH",
"1018 364 OFFCURVE",
"1045 333 OFFCURVE",
"1045 279 CURVE",
"1045 235 OFFCURVE",
"1038 196 OFFCURVE",
"1023 162 CURVE",
"1097 162 LINE",
"1114 199 OFFCURVE",
"1122 238 OFFCURVE",
"1122 279 CURVE",
"1122 389 OFFCURVE",
"1063 444 OFFCURVE",
"947 444 CURVE",
"627 444 LINE",
"589 650 OFFCURVE",
"514 782 OFFCURVE",
"330 782 CURVE",
"138 782 OFFCURVE",
"45 624 OFFCURVE",
"45 408 CURVE",
"45 161 OFFCURVE",
"119 40 OFFCURVE",
"270 40 CURVE",
"375 40 OFFCURVE",
"451 137 OFFCURVE",
"451 275 CURVE",
"451 312 OFFCURVE",
"440 410 OFFCURVE",
"428 444 CURVE",
"124 444 LINE",
"126 588 OFFCURVE",
"194 699 OFFCURVE",
"330 699 CURVE",
"469 699 OFFCURVE",
"523 589 OFFCURVE",
"552 418 CURVE",
"566 334 OFFCURVE",
"585 259 OFFCURVE",
"609 192 CURVE",
"633 125 OFFCURVE",
"674 39 OFFCURVE",
"729 -67 CURVE"
);
},
{
closed = 1;
nodes = (
"264 123 LINE",
"173 123 OFFCURVE",
"126 203 OFFCURVE",
"124 364 CURVE",
"362 364 LINE",
"369 345 OFFCURVE",
"372 315 OFFCURVE",
"372 275 CURVE",
"372 190 OFFCURVE",
"337 123 OFFCURVE",
"264 123 CURVE"
);
}
);
width = 1167;
}
);
},
{
color = 8;
glyphname = b_a;
lastChange = "2019-12-27 10:38:52 +0000";
layers = (
{
layerId = "E91C2A68-9D13-40A3-B48F-6510F845363B";
paths = (
{
closed = 1;
nodes = (
"864 -264 LINE",
"946 -264 LINE",
"932 -238 OFFCURVE",
"925 -213 OFFCURVE",
"925 -187 CURVE",
"925 -124 OFFCURVE",
"943 -95 OFFCURVE",
"992 -31 CURVE",
"1066 66 OFFCURVE",
"1125 155 OFFCURVE",
"1125 245 CURVE",
"1125 373 OFFCURVE",
"1047 444 OFFCURVE",
"894 444 CURVE",
"652 444 LINE",
"625 637 OFFCURVE",
"535 782 OFFCURVE",
"352 782 CURVE",
"150 782 OFFCURVE",
"45 630 OFFCURVE",
"45 408 CURVE",
"45 161 OFFCURVE",
"119 40 OFFCURVE",
"270 40 CURVE",
"376 40 OFFCURVE",
"451 137 OFFCURVE",
"451 275 CURVE",
"451 312 OFFCURVE",
"440 410 OFFCURVE",
"428 444 CURVE",
"124 444 LINE",
"126 592 OFFCURVE",
"204 699 OFFCURVE",
"352 699 CURVE",
"493 699 OFFCURVE",
"563 586 OFFCURVE",
"579 364 CURVE",
"598 96 LINE",
"664 96 LINE",
"683 364 LINE",
"893 364 LINE SMOOTH",
"1000 364 OFFCURVE",
"1047 325 OFFCURVE",
"1047 245 CURVE",
"1047 177 OFFCURVE",
"1008 116 OFFCURVE",
"940 28 CURVE",
"885 -44 OFFCURVE",
"845 -110 OFFCURVE",
"845 -187 CURVE",
"845 -217 OFFCURVE",
"852 -242 OFFCURVE",
"864 -264 CURVE"
);
},
{
closed = 1;
nodes = (
"264 123 LINE",
"173 123 OFFCURVE",
"126 203 OFFCURVE",
"124 364 CURVE",
"362 364 LINE",
"369 345 OFFCURVE",
"372 315 OFFCURVE",
"372 275 CURVE",
"372 190 OFFCURVE",
"337 123 OFFCURVE",
"264 123 CURVE"
);
}
);
width = 1170;
}
);
},
{
color = 8;
glyphname = b_e2;
lastChange = "2019-12-27 10:38:52 +0000";
layers = (
{
layerId = "E91C2A68-9D13-40A3-B48F-6510F845363B";
paths = (
{
closed = 1;
nodes = (
"858 -119 LINE",
"896 -119 OFFCURVE",
"926 -106 OFFCURVE",
"940 -85 CURVE",
"940 6 LINE",
"921 -22 OFFCURVE",
"894 -36 OFFCURVE",
"858 -36 CURVE",
"809 -36 OFFCURVE",
"769 13 OFFCURVE",
"725 106 CURVE",
"681 199 OFFCURVE",
"655 287 OFFCURVE",
"641 364 CURVE",
"1036 364 LINE SMOOTH",
"1106 364 OFFCURVE",
"1134 333 OFFCURVE",
"1134 279 CURVE",
"1134 235 OFFCURVE",
"1126 196 OFFCURVE",
"1112 162 CURVE",
"1186 162 LINE",
"1203 197 OFFCURVE",
"1211 236 OFFCURVE",
"1211 279 CURVE",
"1211 389 OFFCURVE",
"1153 444 OFFCURVE",
"1036 444 CURVE",
"626 444 LINE",
"589 648 OFFCURVE",
"512 782 OFFCURVE",
"330 782 CURVE",
"138 782 OFFCURVE",
"45 624 OFFCURVE",
"45 408 CURVE",
"45 161 OFFCURVE",
"120 40 OFFCURVE",
"271 40 CURVE",
"376 40 OFFCURVE",
"451 137 OFFCURVE",
"451 275 CURVE",
"451 312 OFFCURVE",
"440 410 OFFCURVE",
"428 444 CURVE",
"124 444 LINE",
"126 588 OFFCURVE",
"194 699 OFFCURVE",
"330 699 CURVE",
"469 699 OFFCURVE",
"522 589 OFFCURVE",
"552 418 CURVE",
"576 279 OFFCURVE",
"614 153 OFFCURVE",
"667 41 CURVE",
"713 -56 OFFCURVE",
"765 -119 OFFCURVE",
"858 -119 CURVE"
);
},
{
closed = 1;
nodes = (
"264 123 LINE",
"173 123 OFFCURVE",
"126 203 OFFCURVE",
"124 364 CURVE",
"362 364 LINE",
"369 345 OFFCURVE",
"372 315 OFFCURVE",
"372 275 CURVE",
"372 190 OFFCURVE",
"337 123 OFFCURVE",
"264 123 CURVE"
);
}
);
width = 1256;
}
);
},
{
color = 8;
glyphname = p_a;
lastChange = "2019-12-27 10:38:52 +0000";
layers = (
{
layerId = "E91C2A68-9D13-40A3-B48F-6510F845363B";
paths = (
{
closed = 1;
nodes = (
"831 -264 LINE",
"913 -264 LINE",
"899 -240 OFFCURVE",
"892 -214 OFFCURVE",
"892 -187 CURVE",
"892 -128 OFFCURVE",
"910 -94 OFFCURVE",
"959 -31 CURVE",
"1035 66 OFFCURVE",
"1092 153 OFFCURVE",
"1092 245 CURVE",
"1092 373 OFFCURVE",
"1015 444 OFFCURVE",
"861 444 CURVE",
"618 444 LINE",
"586 665 OFFCURVE",
"488 782 OFFCURVE",
"330 782 CURVE",
"138 782 OFFCURVE",
"45 624 OFFCURVE",
"45 408 CURVE",
"45 364 LINE",
"329 364 LINE",
"335 344 OFFCURVE",
"339 314 OFFCURVE",
"339 275 CURVE",
"339 201 OFFCURVE",
"298 153 OFFCURVE",
"231 153 CURVE",
"166 153 OFFCURVE",
"104 150 OFFCURVE",
"62 122 CURVE",
"62 42 LINE",
"109 68 OFFCURVE",
"162 73 OFFCURVE",
"231 73 CURVE",
"346 73 OFFCURVE",
"418 158 OFFCURVE",
"418 275 CURVE",
"418 332 OFFCURVE",
"411 388 OFFCURVE",
"397 444 CURVE",
"124 444 LINE",
"126 588 OFFCURVE",
"194 699 OFFCURVE",
"330 699 CURVE",
"461 699 OFFCURVE",
"530 586 OFFCURVE",
"546 364 CURVE",
"565 96 LINE",
"631 96 LINE",
"650 364 LINE",
"860 364 LINE SMOOTH",
"967 364 OFFCURVE",
"1014 325 OFFCURVE",
"1014 245 CURVE",
"1014 175 OFFCURVE",
"969 111 OFFCURVE",
"907 28 CURVE",
"851 -47 OFFCURVE",
"812 -109 OFFCURVE",
"812 -187 CURVE",
"812 -217 OFFCURVE",
"818 -243 OFFCURVE",
"831 -264 CURVE"
);
}
);
width = 1137;
}
);
},
{
color = 8;
glyphname = p_i;
lastChange = "2019-12-27 10:38:52 +0000";
layers = (
{
layerId = "E91C2A68-9D13-40A3-B48F-6510F845363B";
paths = (
{
closed = 1;
nodes = (
"707 -67 LINE",
"780 -31 LINE",
"708 99 OFFCURVE",
"646 234 OFFCURVE",
"620 364 CURVE",
"925 364 LINE SMOOTH",
"996 364 OFFCURVE",
"1023 333 OFFCURVE",
"1023 279 CURVE",
"1023 235 OFFCURVE",
"1016 196 OFFCURVE",
"1001 162 CURVE",
"1075 162 LINE",
"1092 199 OFFCURVE",
"1100 238 OFFCURVE",
"1100 279 CURVE",
"1100 389 OFFCURVE",
"1042 444 OFFCURVE",
"925 444 CURVE",
"605 444 LINE",
"571 646 OFFCURVE",
"496 782 OFFCURVE",
"319 782 CURVE",
"132 782 OFFCURVE",
"45 621 OFFCURVE",
"45 408 CURVE",
"45 364 LINE",
"329 364 LINE",
"335 344 OFFCURVE",
"339 314 OFFCURVE",
"339 275 CURVE",
"339 201 OFFCURVE",
"298 153 OFFCURVE",
"231 153 CURVE",
"166 153 OFFCURVE",
"104 150 OFFCURVE",
"62 122 CURVE",
"62 42 LINE",
"109 68 OFFCURVE",
"162 73 OFFCURVE",
"231 73 CURVE",
"346 73 OFFCURVE",
"418 158 OFFCURVE",
"418 275 CURVE",
"418 332 OFFCURVE",
"411 388 OFFCURVE",
"397 444 CURVE",
"124 444 LINE",
"126 585 OFFCURVE",
"189 699 OFFCURVE",
"319 699 CURVE",
"435 699 OFFCURVE",
"499 602 OFFCURVE",
"530 418 CURVE",
"561 231 OFFCURVE",
"609 122 OFFCURVE",
"707 -67 CURVE"
);
}
);
width = 1145;
}
);
},
{
color = 8;
glyphname = p_oe.v1;
lastChange = "2019-12-27 10:42:18 +0000";
layers = (
{
layerId = "E91C2A68-9D13-40A3-B48F-6510F845363B";
paths = (
{
closed = 1;
nodes = (
"505 40 LINE",
"647 40 OFFCURVE",
"716 144 OFFCURVE",
"719 364 CURVE",
"930 364 LINE SMOOTH",
"1000 364 OFFCURVE",
"1028 333 OFFCURVE",
"1028 279 CURVE",
"1028 235 OFFCURVE",
"1021 196 OFFCURVE",
"1006 162 CURVE",
"1080 162 LINE",
"1097 199 OFFCURVE",
"1105 238 OFFCURVE",
"1105 279 CURVE",
"1105 389 OFFCURVE",
"1047 444 OFFCURVE",
"930 444 CURVE",
"715 444 LINE",
"693 652 OFFCURVE",
"566 782 OFFCURVE",
"372 782 CURVE",
"176 782 OFFCURVE",
"45 639 OFFCURVE",
"45 412 CURVE",
"45 364 LINE",
"326 364 LINE",
"326 275 LINE SMOOTH",
"326 195 OFFCURVE",
"284 153 OFFCURVE",
"225 153 CURVE",
"162 153 OFFCURVE",
"104 150 OFFCURVE",
"62 122 CURVE",
"62 42 LINE",
"109 68 OFFCURVE",
"159 73 OFFCURVE",
"225 73 CURVE",
"282 73 OFFCURVE",
"328 94 OFFCURVE",
"363 136 CURVE",
"388 72 OFFCURVE",
"436 40 OFFCURVE",
"505 40 CURVE"
);
},
{
closed = 1;
nodes = (
"506 123 LINE",
"438 123 OFFCURVE",
"405 177 OFFCURVE",
"405 286 CURVE",
"405 364 LINE",
"640 364 LINE",
"636 219 OFFCURVE",
"619 123 OFFCURVE",
"506 123 CURVE"
);
},
{
closed = 1;
nodes = (
"124 444 LINE",
"127 595 OFFCURVE",
"223 699 OFFCURVE",
"372 699 CURVE",
"522 699 OFFCURVE",
"614 596 OFFCURVE",
"635 444 CURVE"
);
}
);
width = 1150;
}
);
},
{
color = 8;
glyphname = p_e2;
lastChange = "2019-12-27 10:38:52 +0000";
layers = (
{
layerId = "E91C2A68-9D13-40A3-B48F-6510F845363B";
paths = (
{
closed = 1;
nodes = (
"836 -119 LINE",
"873 -119 OFFCURVE",
"904 -106 OFFCURVE",
"918 -85 CURVE",
"918 6 LINE",
"899 -22 OFFCURVE",
"872 -36 OFFCURVE",
"836 -36 CURVE",
"787 -36 OFFCURVE",
"747 13 OFFCURVE",
"703 106 CURVE",
"659 199 OFFCURVE",
"633 287 OFFCURVE",
"619 364 CURVE",
"1014 364 LINE SMOOTH",
"1084 364 OFFCURVE",
"1112 333 OFFCURVE",
"1112 279 CURVE",
"1112 235 OFFCURVE",
"1104 196 OFFCURVE",
"1090 162 CURVE",
"1164 162 LINE",
"1181 199 OFFCURVE",
"1189 238 OFFCURVE",
"1189 279 CURVE",
"1189 389 OFFCURVE",
"1131 444 OFFCURVE",
"1014 444 CURVE",
"604 444 LINE",
"567 645 OFFCURVE",
"496 782 OFFCURVE",
"319 782 CURVE",
"132 782 OFFCURVE",
"45 621 OFFCURVE",
"45 408 CURVE",
"45 364 LINE",
"329 364 LINE",
"335 344 OFFCURVE",
"339 313 OFFCURVE",
"339 274 CURVE",
"339 200 OFFCURVE",
"298 153 OFFCURVE",
"231 153 CURVE",
"166 153 OFFCURVE",
"104 150 OFFCURVE",
"62 122 CURVE",
"62 42 LINE",
"109 68 OFFCURVE",
"162 73 OFFCURVE",
"231 73 CURVE",
"346 73 OFFCURVE",
"418 158 OFFCURVE",
"418 275 CURVE",
"418 332 OFFCURVE",
"411 388 OFFCURVE",
"397 444 CURVE",
"124 444 LINE",
"126 585 OFFCURVE",
"189 699 OFFCURVE",
"319 699 CURVE",
"453 699 OFFCURVE",
"502 585 OFFCURVE",
"530 418 CURVE",
"553 279 OFFCURVE",
"592 153 OFFCURVE",
"645 41 CURVE",
"691 -56 OFFCURVE",
"743 -119 OFFCURVE",
"836 -119 CURVE"
);
}
);
width = 1234;
}
);
},
{
color = 8;
glyphname = h_e;
lastChange = "2019-12-27 10:38:52 +0000";
layers = (
{
layerId = "E91C2A68-9D13-40A3-B48F-6510F845363B";
paths = (
{
closed = 1;
nodes = (
"715 -264 LINE",
"797 -264 LINE",
"783 -238 OFFCURVE",
"776 -213 OFFCURVE",
"776 -187 CURVE",
"776 -125 OFFCURVE",
"796 -92 OFFCURVE",
"843 -31 CURVE",
"917 64 OFFCURVE",
"976 155 OFFCURVE",
"976 245 CURVE",
"976 373 OFFCURVE",
"898 444 OFFCURVE",
"745 444 CURVE",
"503 444 LINE",
"482 614 OFFCURVE",
"424 727 OFFCURVE",
"274 727 CURVE",
"134 727 OFFCURVE",
"45 605 OFFCURVE",
"45 418 CURVE",
"45 300 OFFCURVE",
"88 174 OFFCURVE",
"174 42 CURVE",
"245 85 LINE",
"169 197 OFFCURVE",
"124 291 OFFCURVE",
"124 417 CURVE",
"124 571 OFFCURVE",
"182 644 OFFCURVE",
"274 644 CURVE",
"394 644 OFFCURVE",
"418 531 OFFCURVE",
"430 361 CURVE",
"449 96 LINE",
"515 96 LINE",
"534 364 LINE",
"744 364 LINE SMOOTH",
"851 364 OFFCURVE",
"898 324 OFFCURVE",
"898 244 CURVE",
"898 176 OFFCURVE",
"859 116 OFFCURVE",
"791 28 CURVE",
"736 -44 OFFCURVE",
"696 -108 OFFCURVE",
"696 -187 CURVE",
"696 -216 OFFCURVE",
"702 -242 OFFCURVE",
"715 -264 CURVE"
);
}
);
width = 1021;
}
);
},
{
color = 8;
glyphname = h_e.v1;
lastChange = "2019-12-27 10:42:18 +0000";
layers = (
{
components = (
{
name = h_e;
}
);
layerId = "E91C2A68-9D13-40A3-B48F-6510F845363B";
paths = (
{
closed = 1;
nodes = (
"184 -196 LINE",
"217 -161 OFFCURVE",
"263 -123 OFFCURVE",
"323 -80 CURVE",
"262 -11 LINE",
"223 -50 OFFCURVE",
"183 -98 OFFCURVE",
"141 -157 CURVE"
);
},
{
closed = 1;
nodes = (
"399 -196 LINE",
"432 -161 OFFCURVE",
"478 -123 OFFCURVE",
"538 -80 CURVE",
"477 -11 LINE",
"438 -50 OFFCURVE",
"398 -98 OFFCURVE",
"356 -157 CURVE"
);
}
);
width = 1021;
}
);
},
{
color = 8;
glyphname = h_e.fina.v1;
lastChange = "2019-12-27 10:40:57 +0000";
layers = (
{
components = (
{
name = h_e;
transform = "{1, 0, 0, 1, -48, 0}";
}
);
layerId = "E91C2A68-9D13-40A3-B48F-6510F845363B";
paths = (
{
closed = 1;
nodes = (
"136 -196 LINE",
"169 -161 OFFCURVE",
"215 -123 OFFCURVE",
"275 -80 CURVE",
"214 -11 LINE",
"175 -50 OFFCURVE",
"135 -98 OFFCURVE",
"93 -157 CURVE"
);
},
{
closed = 1;
nodes = (
"351 -196 LINE",
"384 -161 OFFCURVE",
"430 -123 OFFCURVE",
"490 -80 CURVE",
"429 -11 LINE",
"390 -50 OFFCURVE",
"350 -98 OFFCURVE",
"308 -157 CURVE"
);
}
);
width = 973;
}
);
},
{
color = 8;
glyphname = h_i;
lastChange = "2019-12-27 10:38:52 +0000";
layers = (
{
layerId = "E91C2A68-9D13-40A3-B48F-6510F845363B";
paths = (
{
closed = 1;
nodes = (
"622 -67 LINE",
"695 -31 LINE",
"611 101 OFFCURVE",
"558 232 OFFCURVE",
"533 364 CURVE",
"840 364 LINE SMOOTH",
"911 364 OFFCURVE",
"938 333 OFFCURVE",
"938 279 CURVE",
"938 236 OFFCURVE",
"931 197 OFFCURVE",
"916 162 CURVE",
"990 162 LINE",
"1007 199 OFFCURVE",
"1015 238 OFFCURVE",
"1015 279 CURVE",
"1015 389 OFFCURVE",
"957 444 OFFCURVE",
"840 444 CURVE",
"523 444 LINE",
"501 628 OFFCURVE",
"443 760 OFFCURVE",
"287 760 CURVE",
"127 760 OFFCURVE",
"45 608 OFFCURVE",
"45 417 CURVE",
"45 299 OFFCURVE",
"88 174 OFFCURVE",
"174 42 CURVE",
"245 85 LINE",
"169 197 OFFCURVE",
"124 291 OFFCURVE",
"124 417 CURVE",
"124 557 OFFCURVE",
"170 677 OFFCURVE",
"287 677 CURVE",
"400 677 OFFCURVE",
"426 577 OFFCURVE",
"447 418 CURVE",
"469 253 OFFCURVE",
"529 82 OFFCURVE",
"622 -67 CURVE"
);
}
);
width = 1060;
}
);
},
{
color = 8;
glyphname = h_i.v1;
lastChange = "2019-12-27 10:42:18 +0000";
layers = (
{
components = (
{
name = h_i;
}
);
layerId = "E91C2A68-9D13-40A3-B48F-6510F845363B";
paths = (
{
closed = 1;
nodes = (
"184 -196 LINE",
"217 -161 OFFCURVE",
"263 -123 OFFCURVE",
"323 -80 CURVE",
"262 -11 LINE",
"223 -50 OFFCURVE",
"183 -98 OFFCURVE",
"141 -157 CURVE"
);
},
{
closed = 1;
nodes = (
"399 -196 LINE",
"432 -161 OFFCURVE",
"478 -123 OFFCURVE",
"538 -80 CURVE",
"477 -11 LINE",
"438 -50 OFFCURVE",
"398 -98 OFFCURVE",
"356 -157 CURVE"
);
}
);
width = 1060;
}
);
},
{
color = 8;
glyphname = h_i.medi.v1;
lastChange = "2019-12-27 10:40:57 +0000";
layers = (
{
components = (
{
name = h_i.init;
transform = "{1, 0, 0, 1, -48, 0}";
}
);
layerId = "E91C2A68-9D13-40A3-B48F-6510F845363B";
paths = (
{
closed = 1;
nodes = (
"114 -196 LINE",
"147 -161 OFFCURVE",
"193 -123 OFFCURVE",
"253 -80 CURVE",
"192 -11 LINE",
"153 -50 OFFCURVE",
"113 -98 OFFCURVE",
"71 -157 CURVE"
);
},
{
closed = 1;
nodes = (
"329 -196 LINE",
"362 -161 OFFCURVE",
"408 -123 OFFCURVE",
"468 -80 CURVE",
"407 -11 LINE",
"368 -50 OFFCURVE",
"328 -98 OFFCURVE",
"286 -157 CURVE"
);
}
);
width = 762;
}
);
},
{
color = 8;
glyphname = h_i.fina.v1;
lastChange = "2019-12-27 10:40:57 +0000";
layers = (
{
components = (
{
name = h_i;
transform = "{1, 0, 0, 1, -48, 0}";
}
);
layerId = "E91C2A68-9D13-40A3-B48F-6510F845363B";
paths = (
{
closed = 1;
nodes = (
"114 -196 LINE",
"147 -161 OFFCURVE",
"193 -123 OFFCURVE",
"253 -80 CURVE",
"192 -11 LINE",
"153 -50 OFFCURVE",
"113 -98 OFFCURVE",
"71 -157 CURVE"
);
},
{
closed = 1;
nodes = (
"329 -196 LINE",
"362 -161 OFFCURVE",
"408 -123 OFFCURVE",
"468 -80 CURVE",
"407 -11 LINE",
"368 -50 OFFCURVE",
"328 -98 OFFCURVE",
"286 -157 CURVE"
);
}
);
width = 1012;
}
);
},
{
color = 8;
glyphname = k_a;
lastChange = "2019-12-27 10:38:52 +0000";
layers = (
{
layerId = "E91C2A68-9D13-40A3-B48F-6510F845363B";
paths = (
{
closed = 1;
nodes = (
"715 -264 LINE",
"797 -264 LINE",
"783 -238 OFFCURVE",
"776 -213 OFFCURVE",
"776 -187 CURVE",
"776 -125 OFFCURVE",
"795 -92 OFFCURVE",
"843 -31 CURVE",
"916 63 OFFCURVE",
"976 155 OFFCURVE",
"976 245 CURVE",
"976 373 OFFCURVE",
"898 444 OFFCURVE",
"745 444 CURVE",
"503 444 LINE",
"482 614 OFFCURVE",
"424 727 OFFCURVE",
"274 727 CURVE",
"135 727 OFFCURVE",
"45 606 OFFCURVE",
"45 417 CURVE",
"45 299 OFFCURVE",
"88 174 OFFCURVE",
"174 42 CURVE",
"245 85 LINE",
"183 174 OFFCURVE",
"136 262 OFFCURVE",
"126 364 CURVE",
"285 364 LINE",
"285 444 LINE",
"124 444 LINE",
"130 579 OFFCURVE",
"188 644 OFFCURVE",
"274 644 CURVE",
"394 644 OFFCURVE",
"418 533 OFFCURVE",
"430 363 CURVE",
"449 96 LINE",
"515 96 LINE",
"534 364 LINE",
"744 364 LINE SMOOTH",
"851 364 OFFCURVE",
"898 325 OFFCURVE",
"898 243 CURVE",
"898 175 OFFCURVE",
"859 116 OFFCURVE",
"791 28 CURVE",
"736 -44 OFFCURVE",
"696 -108 OFFCURVE",
"696 -187 CURVE",
"696 -216 OFFCURVE",
"702 -242 OFFCURVE",
"715 -264 CURVE"
);
}
);
width = 1021;
}
);
},
{
color = 8;
glyphname = k_i.init;
lastChange = "2019-12-27 10:40:57 +0000";
layers = (
{
layerId = "E91C2A68-9D13-40A3-B48F-6510F845363B";
paths = (
{
closed = 1;
nodes = (
"622 -67 LINE",
"695 -31 LINE",
"611 101 OFFCURVE",
"558 232 OFFCURVE",
"533 364 CURVE",
"840 364 LINE",
"840 444 LINE",
"523 444 LINE",
"501 628 OFFCURVE",
"444 760 OFFCURVE",
"287 760 CURVE",
"126 760 OFFCURVE",
"45 606 OFFCURVE",
"45 417 CURVE",
"45 299 OFFCURVE",
"88 174 OFFCURVE",
"174 42 CURVE",
"245 85 LINE",
"183 174 OFFCURVE",
"136 262 OFFCURVE",
"126 364 CURVE",
"285 364 LINE",
"285 444 LINE",
"124 444 LINE",
"129 572 OFFCURVE",
"177 677 OFFCURVE",
"287 677 CURVE",
"400 677 OFFCURVE",
"428 573 OFFCURVE",
"447 418 CURVE",
"467 253 OFFCURVE",
"531 82 OFFCURVE",
"622 -67 CURVE"
);
}
);
width = 810;
}
);
},
{
color = 8;
glyphname = k_i;
lastChange = "2019-12-27 10:38:52 +0000";
layers = (
{
layerId = "E91C2A68-9D13-40A3-B48F-6510F845363B";
paths = (
{
closed = 1;
nodes = (
"622 -67 LINE",
"695 -31 LINE",
"611 101 OFFCURVE",
"558 232 OFFCURVE",
"533 364 CURVE",
"840 364 LINE SMOOTH",
"911 364 OFFCURVE",
"938 333 OFFCURVE",
"938 279 CURVE",
"938 236 OFFCURVE",
"931 197 OFFCURVE",
"916 162 CURVE",
"990 162 LINE",
"1007 199 OFFCURVE",
"1015 238 OFFCURVE",
"1015 279 CURVE",
"1015 389 OFFCURVE",
"957 444 OFFCURVE",
"840 444 CURVE",
"523 444 LINE",
"501 628 OFFCURVE",
"443 760 OFFCURVE",
"288 760 CURVE",
"127 760 OFFCURVE",
"45 606 OFFCURVE",
"45 417 CURVE",
"45 299 OFFCURVE",
"88 174 OFFCURVE",
"174 42 CURVE",
"245 85 LINE",
"183 174 OFFCURVE",
"136 262 OFFCURVE",
"126 364 CURVE",
"285 364 LINE",
"285 444 LINE",
"124 444 LINE",
"129 572 OFFCURVE",
"177 677 OFFCURVE",
"287 677 CURVE",
"400 677 OFFCURVE",
"426 577 OFFCURVE",
"447 418 CURVE",
"469 253 OFFCURVE",
"528 85 OFFCURVE",
"622 -67 CURVE"
);
}
);
width = 1060;
}
);
},
{
color = 8;
glyphname = k_o.init;
lastChange = "2019-12-27 10:40:57 +0000";
layers = (
{
layerId = "E91C2A68-9D13-40A3-B48F-6510F845363B";
paths = (
{
closed = 1;
nodes = (
"519 40 LINE",
"624 40 OFFCURVE",
"704 145 OFFCURVE",
"704 303 CURVE",
"704 324 OFFCURVE",
"704 344 OFFCURVE",
"702 364 CURVE",
"915 364 LINE",
"915 444 LINE",
"693 444 LINE",
"658 649 OFFCURVE",
"545 760 OFFCURVE",
"365 760 CURVE",
"170 760 OFFCURVE",
"45 616 OFFCURVE",
"45 408 CURVE",
"45 290 OFFCURVE",
"86 152 OFFCURVE",
"146 42 CURVE",
"219 73 LINE",
"164 174 OFFCURVE",
"133 271 OFFCURVE",
"126 364 CURVE",
"263 364 LINE",
"263 444 LINE",
"125 444 LINE",
"138 588 OFFCURVE",
"226 677 OFFCURVE",
"365 677 CURVE",
"503 677 OFFCURVE",
"586 599 OFFCURVE",
"614 444 CURVE",
"367 444 LINE",
"342 397 OFFCURVE",
"329 330 OFFCURVE",
"329 275 CURVE",
"329 134 OFFCURVE",
"391 40 OFFCURVE",
"519 40 CURVE"
);
},
{
closed = 1;
nodes = (
"512 123 LINE",
"443 123 OFFCURVE",
"408 174 OFFCURVE",
"408 275 CURVE",
"408 312 OFFCURVE",
"414 342 OFFCURVE",
"424 364 CURVE",
"623 364 LINE",
"625 344 OFFCURVE",
"625 324 OFFCURVE",
"625 303 CURVE",
"625 183 OFFCURVE",
"579 123 OFFCURVE",
"512 123 CURVE"
);
}
);
width = 885;
}
);
},
{
color = 8;
glyphname = k_o;
lastChange = "2019-12-27 10:38:52 +0000";
layers = (
{
layerId = "E91C2A68-9D13-40A3-B48F-6510F845363B";
paths = (
{
closed = 1;
nodes = (
"519 40 LINE",
"626 40 OFFCURVE",
"704 148 OFFCURVE",
"704 303 CURVE",
"704 561 OFFCURVE",
"606 760 OFFCURVE",
"365 760 CURVE",
"170 760 OFFCURVE",
"45 616 OFFCURVE",
"45 408 CURVE",
"45 290 OFFCURVE",
"86 152 OFFCURVE",
"146 42 CURVE",
"219 73 LINE",
"164 174 OFFCURVE",
"133 271 OFFCURVE",
"126 364 CURVE",
"263 364 LINE",
"263 444 LINE",
"125 444 LINE",
"138 588 OFFCURVE",
"227 677 OFFCURVE",
"365 677 CURVE",
"503 677 OFFCURVE",
"586 599 OFFCURVE",
"614 444 CURVE",
"367 444 LINE",
"343 397 OFFCURVE",
"329 330 OFFCURVE",
"329 275 CURVE",
"329 132 OFFCURVE",
"391 40 OFFCURVE",
"519 40 CURVE"
);
},
{
closed = 1;
nodes = (
"512 123 LINE",
"443 123 OFFCURVE",
"408 174 OFFCURVE",
"408 275 CURVE",
"408 312 OFFCURVE",
"414 342 OFFCURVE",
"424 364 CURVE",
"623 364 LINE",
"625 344 OFFCURVE",
"625 324 OFFCURVE",
"625 303 CURVE",
"625 183 OFFCURVE",
"579 123 OFFCURVE",
"512 123 CURVE"
);
}
);
width = 749;
}
);
},
{
color = 8;
glyphname = k_oe.v1;
lastChange = "2019-12-27 10:42:18 +0000";
layers = (
{
layerId = "E91C2A68-9D13-40A3-B48F-6510F845363B";
paths = (
{
closed = 1;
nodes = (
"518 40 LINE",
"628 40 OFFCURVE",
"704 148 OFFCURVE",
"704 303 CURVE",
"704 324 OFFCURVE",
"704 344 OFFCURVE",
"702 364 CURVE",
"915 364 LINE SMOOTH",
"985 364 OFFCURVE",
"1013 333 OFFCURVE",
"1013 279 CURVE",
"1013 236 OFFCURVE",
"1006 197 OFFCURVE",
"991 162 CURVE",
"1065 162 LINE",
"1082 197 OFFCURVE",
"1090 236 OFFCURVE",
"1090 279 CURVE",
"1090 389 OFFCURVE",
"1032 444 OFFCURVE",
"915 444 CURVE",
"693 444 LINE",
"658 649 OFFCURVE",
"545 760 OFFCURVE",
"365 760 CURVE",
"171 760 OFFCURVE",
"45 617 OFFCURVE",
"45 408 CURVE",
"45 290 OFFCURVE",
"86 152 OFFCURVE",
"146 42 CURVE",
"219 73 LINE",
"164 174 OFFCURVE",
"133 271 OFFCURVE",
"126 364 CURVE",
"263 364 LINE",
"263 444 LINE",
"125 444 LINE",
"138 588 OFFCURVE",
"227 677 OFFCURVE",
"365 677 CURVE",
"503 677 OFFCURVE",
"586 599 OFFCURVE",
"614 444 CURVE",
"367 444 LINE",
"343 397 OFFCURVE",
"329 330 OFFCURVE",
"329 275 CURVE",
"329 134 OFFCURVE",
"390 40 OFFCURVE",
"518 40 CURVE"
);
},
{
closed = 1;
nodes = (
"512 123 LINE",
"443 123 OFFCURVE",
"408 174 OFFCURVE",
"408 275 CURVE",
"408 312 OFFCURVE",
"414 342 OFFCURVE",
"424 364 CURVE",
"623 364 LINE",
"625 344 OFFCURVE",
"625 324 OFFCURVE",
"625 303 CURVE",
"625 183 OFFCURVE",
"579 123 OFFCURVE",
"512 123 CURVE"
);
}
);
width = 1135;
}
);
},
{
color = 8;
glyphname = k_oe.init;
lastChange = "2019-12-27 10:40:57 +0000";
layers = (
{
layerId = "E91C2A68-9D13-40A3-B48F-6510F845363B";
paths = (
{
closed = 1;
nodes = (
"988 -67 LINE",
"1061 -31 LINE",
"988 100 OFFCURVE",
"932 231 OFFCURVE",
"894 364 CURVE",
"1206 364 LINE",
"1206 444 LINE",
"693 444 LINE",
"658 649 OFFCURVE",
"545 760 OFFCURVE",
"365 760 CURVE",
"170 760 OFFCURVE",
"45 616 OFFCURVE",
"45 408 CURVE",
"45 290 OFFCURVE",
"86 152 OFFCURVE",
"146 42 CURVE",
"219 73 LINE",
"164 174 OFFCURVE",
"133 271 OFFCURVE",
"126 364 CURVE",
"263 364 LINE",
"263 444 LINE",
"125 444 LINE",
"138 588 OFFCURVE",
"226 677 OFFCURVE",
"365 677 CURVE",
"503 677 OFFCURVE",
"586 599 OFFCURVE",
"614 444 CURVE",
"367 444 LINE",
"343 397 OFFCURVE",
"329 330 OFFCURVE",
"329 275 CURVE",
"329 134 OFFCURVE",
"391 40 OFFCURVE",
"519 40 CURVE",
"627 40 OFFCURVE",
"704 148 OFFCURVE",
"704 303 CURVE",
"704 324 OFFCURVE",
"704 344 OFFCURVE",
"702 364 CURVE",
"815 364 LINE",
"853 221 OFFCURVE",
"910 78 OFFCURVE",
"988 -67 CURVE"
);
},
{
closed = 1;
nodes = (
"512 123 LINE",
"443 123 OFFCURVE",
"408 174 OFFCURVE",
"408 275 CURVE",
"408 312 OFFCURVE",
"414 342 OFFCURVE",
"424 364 CURVE",
"623 364 LINE",
"625 344 OFFCURVE",
"625 324 OFFCURVE",
"625 303 CURVE",
"625 183 OFFCURVE",
"579 123 OFFCURVE",
"512 123 CURVE"
);
}
);
width = 1176;
}
);
},
{
color = 8;
glyphname = f_a;
lastChange = "2019-12-27 10:38:52 +0000";
layers = (
{
layerId = "E91C2A68-9D13-40A3-B48F-6510F845363B";
paths = (
{
closed = 1;
nodes = (
"864 -264 LINE",
"946 -264 LINE",
"932 -238 OFFCURVE",
"925 -213 OFFCURVE",
"925 -187 CURVE",
"925 -124 OFFCURVE",
"943 -95 OFFCURVE",
"992 -31 CURVE",
"1066 66 OFFCURVE",
"1125 155 OFFCURVE",
"1125 245 CURVE",
"1125 373 OFFCURVE",
"1047 444 OFFCURVE",
"894 444 CURVE",
"652 444 LINE",
"625 637 OFFCURVE",
"535 782 OFFCURVE",
"352 782 CURVE",
"151 782 OFFCURVE",
"45 630 OFFCURVE",
"45 408 CURVE",
"45 202 OFFCURVE",
"96 83 OFFCURVE",
"201 50 CURVE",
"180 14 OFFCURVE",
"169 -24 OFFCURVE",
"169 -64 CURVE",
"169 -113 OFFCURVE",
"179 -152 OFFCURVE",
"199 -182 CURVE",
"289 -182 LINE",
"264 -148 OFFCURVE",
"251 -108 OFFCURVE",
"251 -63 CURVE",
"251 -25 OFFCURVE",
"258 9 OFFCURVE",
"271 40 CURVE",
"275 40 LINE SMOOTH",
"376 40 OFFCURVE",
"451 138 OFFCURVE",
"451 273 CURVE",
"451 310 OFFCURVE",
"440 410 OFFCURVE",
"428 444 CURVE",
"124 444 LINE",
"126 592 OFFCURVE",
"204 699 OFFCURVE",
"352 699 CURVE",
"493 699 OFFCURVE",
"563 586 OFFCURVE",
"579 364 CURVE",
"598 96 LINE",
"664 96 LINE",
"683 364 LINE",
"893 364 LINE SMOOTH",
"1000 364 OFFCURVE",
"1047 325 OFFCURVE",
"1047 243 CURVE",
"1047 175 OFFCURVE",
"1008 116 OFFCURVE",
"940 28 CURVE",
"885 -44 OFFCURVE",
"845 -110 OFFCURVE",
"845 -187 CURVE",
"845 -217 OFFCURVE",
"852 -242 OFFCURVE",
"864 -264 CURVE"
);
},
{
closed = 1;
nodes = (
"264 123 LINE",
"173 123 OFFCURVE",
"126 203 OFFCURVE",
"124 364 CURVE",
"362 364 LINE",
"369 345 OFFCURVE",
"372 311 OFFCURVE",
"372 271 CURVE",
"372 186 OFFCURVE",
"334 123 OFFCURVE",
"264 123 CURVE"
);
}
);
width = 1170;
}
);
},
{
color = 8;
glyphname = f_i;
lastChange = "2019-12-27 10:38:52 +0000";
layers = (
{
layerId = "E91C2A68-9D13-40A3-B48F-6510F845363B";
paths = (
{
closed = 1;
nodes = (
"199 -182 LINE",
"289 -182 LINE",
"264 -148 OFFCURVE",
"251 -108 OFFCURVE",
"251 -63 CURVE",
"251 -25 OFFCURVE",
"258 9 OFFCURVE",
"271 40 CURVE",
"277 40 LINE SMOOTH",
"375 40 OFFCURVE",
"451 138 OFFCURVE",
"451 273 CURVE",
"451 310 OFFCURVE",
"440 410 OFFCURVE",
"428 444 CURVE",
"124 444 LINE",
"126 588 OFFCURVE",
"194 699 OFFCURVE",
"330 699 CURVE",
"469 699 OFFCURVE",
"523 589 OFFCURVE",
"552 418 CURVE",
"584 231 OFFCURVE",
"631 122 OFFCURVE",
"729 -67 CURVE",
"802 -31 LINE",
"722 113 OFFCURVE",
"668 238 OFFCURVE",
"642 364 CURVE",
"947 364 LINE SMOOTH",
"1018 364 OFFCURVE",
"1045 333 OFFCURVE",
"1045 279 CURVE",
"1045 235 OFFCURVE",
"1038 196 OFFCURVE",
"1023 162 CURVE",
"1097 162 LINE",
"1114 199 OFFCURVE",
"1122 238 OFFCURVE",
"1122 279 CURVE",
"1122 389 OFFCURVE",
"1063 444 OFFCURVE",
"947 444 CURVE",
"627 444 LINE",
"589 650 OFFCURVE",
"514 782 OFFCURVE",
"330 782 CURVE",
"138 782 OFFCURVE",
"45 624 OFFCURVE",
"45 408 CURVE",
"45 202 OFFCURVE",
"96 83 OFFCURVE",
"201 50 CURVE",
"180 14 OFFCURVE",
"169 -24 OFFCURVE",
"169 -64 CURVE",
"169 -113 OFFCURVE",
"179 -152 OFFCURVE",
"199 -182 CURVE"
);
},
{
closed = 1;
nodes = (
"264 123 LINE",
"173 123 OFFCURVE",
"126 203 OFFCURVE",
"124 364 CURVE",
"362 364 LINE",
"369 345 OFFCURVE",
"372 315 OFFCURVE",
"372 275 CURVE",
"372 189 OFFCURVE",
"337 123 OFFCURVE",
"264 123 CURVE"
);
}
);
width = 1167;
}
);
},
{
color = 8;
glyphname = f_o.init;
lastChange = "2019-12-27 10:40:57 +0000";
layers = (
{
layerId = "E91C2A68-9D13-40A3-B48F-6510F845363B";
paths = (
{
closed = 1;
nodes = (
"198 -182 LINE",
"288 -182 LINE",
"263 -148 OFFCURVE",
"250 -108 OFFCURVE",
"250 -63 CURVE",
"250 -23 OFFCURVE",
"257 11 OFFCURVE",
"271 41 CURVE",
"323 47 OFFCURVE",
"372 79 OFFCURVE",
"396 135 CURVE",
"424 71 OFFCURVE",
"474 40 OFFCURVE",
"538 40 CURVE",
"681 40 OFFCURVE",
"750 146 OFFCURVE",
"752 364 CURVE",
"963 364 LINE",
"963 444 LINE",
"748 444 LINE",
"726 652 OFFCURVE",
"598 782 OFFCURVE",
"405 782 CURVE",
"178 782 OFFCURVE",
"45 617 OFFCURVE",
"45 375 CURVE",
"45 173 OFFCURVE",
"97 70 OFFCURVE",
"198 45 CURVE",
"178 10 OFFCURVE",
"168 -26 OFFCURVE",
"168 -64 CURVE",
"168 -113 OFFCURVE",
"178 -152 OFFCURVE",
"198 -182 CURVE"
);
},
{
closed = 1;
nodes = (
"249 123 LINE",
"145 123 OFFCURVE",
"124 222 OFFCURVE",
"124 364 CURVE",
"359 364 LINE",
"359 285 LINE SMOOTH",
"359 194 OFFCURVE",
"325 123 OFFCURVE",
"249 123 CURVE"
);
},
{
closed = 1;
nodes = (
"538 123 LINE",
"471 123 OFFCURVE",
"438 177 OFFCURVE",
"438 286 CURVE",
"438 364 LINE",
"673 364 LINE",
"668 188 OFFCURVE",
"638 123 OFFCURVE",
"538 123 CURVE"
);
},
{
closed = 1;
nodes = (
"127 444 LINE",
"147 605 OFFCURVE",
"234 699 OFFCURVE",
"405 699 CURVE",
"556 699 OFFCURVE",
"647 596 OFFCURVE",
"668 444 CURVE"
);
}
);
width = 933;
}
);
},
{
color = 8;
glyphname = f_oe.v1;
lastChange = "2019-12-27 10:42:18 +0000";
layers = (
{
layerId = "E91C2A68-9D13-40A3-B48F-6510F845363B";
paths = (
{
closed = 1;
nodes = (
"198 -182 LINE",
"288 -182 LINE",
"263 -148 OFFCURVE",
"250 -108 OFFCURVE",
"250 -63 CURVE",
"250 -23 OFFCURVE",
"257 11 OFFCURVE",
"271 41 CURVE",
"323 47 OFFCURVE",
"372 79 OFFCURVE",
"396 135 CURVE",
"424 71 OFFCURVE",
"474 40 OFFCURVE",
"538 40 CURVE",
"681 40 OFFCURVE",
"750 146 OFFCURVE",
"752 364 CURVE",
"963 364 LINE SMOOTH",
"1034 364 OFFCURVE",
"1061 333 OFFCURVE",
"1061 279 CURVE",
"1061 236 OFFCURVE",
"1054 197 OFFCURVE",
"1039 162 CURVE",
"1113 162 LINE",
"1130 198 OFFCURVE",
"1138 237 OFFCURVE",
"1138 279 CURVE",
"1138 389 OFFCURVE",
"1080 444 OFFCURVE",
"963 444 CURVE",
"748 444 LINE",
"726 652 OFFCURVE",
"597 782 OFFCURVE",
"405 782 CURVE",
"178 782 OFFCURVE",
"45 617 OFFCURVE",
"45 375 CURVE",
"45 173 OFFCURVE",
"97 70 OFFCURVE",
"198 45 CURVE",
"178 10 OFFCURVE",
"168 -26 OFFCURVE",
"168 -64 CURVE",
"168 -113 OFFCURVE",
"178 -152 OFFCURVE",
"198 -182 CURVE"
);
},
{
closed = 1;
nodes = (
"249 123 LINE",
"145 123 OFFCURVE",
"124 222 OFFCURVE",
"124 364 CURVE",
"359 364 LINE",
"359 286 LINE SMOOTH",
"359 195 OFFCURVE",
"325 123 OFFCURVE",
"249 123 CURVE"
);
},
{
closed = 1;
nodes = (
"538 123 LINE",
"471 123 OFFCURVE",
"438 177 OFFCURVE",
"438 286 CURVE",
"438 364 LINE",
"673 364 LINE",
"668 188 OFFCURVE",
"638 123 OFFCURVE",
"538 123 CURVE"
);
},
{
closed = 1;
nodes = (
"127 444 LINE",
"145 605 OFFCURVE",
"236 699 OFFCURVE",
"405 699 CURVE",
"556 699 OFFCURVE",
"647 596 OFFCURVE",
"668 444 CURVE"
);
}
);
width = 1183;
}
);
},
{
color = 8;
glyphname = f_oe.init;
lastChange = "2019-12-27 10:40:57 +0000";
layers = (
{
layerId = "E91C2A68-9D13-40A3-B48F-6510F845363B";
paths = (
{
closed = 1;
nodes = (
"198 -182 LINE",
"288 -182 LINE",
"263 -148 OFFCURVE",
"250 -108 OFFCURVE",
"250 -63 CURVE",
"250 -23 OFFCURVE",
"257 11 OFFCURVE",
"271 41 CURVE",
"323 47 OFFCURVE",
"372 79 OFFCURVE",
"396 135 CURVE",
"424 71 OFFCURVE",
"474 40 OFFCURVE",
"538 40 CURVE",
"681 40 OFFCURVE",
"750 146 OFFCURVE",
"752 364 CURVE",
"863 364 LINE",
"901 220 OFFCURVE",
"958 77 OFFCURVE",
"1036 -67 CURVE",
"1109 -31 LINE",
"1037 97 OFFCURVE",
"981 229 OFFCURVE",
"942 364 CURVE",
"1254 364 LINE",
"1254 444 LINE",
"748 444 LINE",
"726 652 OFFCURVE",
"598 782 OFFCURVE",
"406 782 CURVE",
"179 782 OFFCURVE",
"45 617 OFFCURVE",
"45 375 CURVE",
"45 173 OFFCURVE",
"97 70 OFFCURVE",
"198 45 CURVE",
"178 10 OFFCURVE",
"168 -26 OFFCURVE",
"168 -64 CURVE",
"168 -113 OFFCURVE",
"178 -152 OFFCURVE",
"198 -182 CURVE"
);
},
{
closed = 1;
nodes = (
"249 123 LINE",
"145 123 OFFCURVE",
"124 222 OFFCURVE",
"124 364 CURVE",
"359 364 LINE",
"359 286 LINE SMOOTH",
"359 195 OFFCURVE",
"325 123 OFFCURVE",
"249 123 CURVE"
);
},
{
closed = 1;
nodes = (
"538 123 LINE",
"471 123 OFFCURVE",
"438 177 OFFCURVE",
"438 286 CURVE",
"438 364 LINE",
"673 364 LINE",
"668 188 OFFCURVE",
"638 123 OFFCURVE",
"538 123 CURVE"
);
},
{
closed = 1;
nodes = (
"127 444 LINE",
"147 605 OFFCURVE",
"235 699 OFFCURVE",
"405 699 CURVE",
"556 699 OFFCURVE",
"647 596 OFFCURVE",
"668 444 CURVE"
);
}
);
width = 1224;
}
);
},
{
color = 8;
glyphname = h_oe.init.v3;
lastChange = "2019-12-27 10:40:57 +0000";
layers = (
{
components = (
{
name = h_oe.init.v1;
}
);
layerId = "E91C2A68-9D13-40A3-B48F-6510F845363B";
paths = (
{
closed = 1;
nodes = (
"184 -196 LINE",
"217 -161 OFFCURVE",
"263 -123 OFFCURVE",
"323 -80 CURVE",
"262 -11 LINE",
"223 -50 OFFCURVE",
"183 -98 OFFCURVE",
"141 -157 CURVE"
);
},
{
closed = 1;
nodes = (
"443 -196 LINE",
"476 -161 OFFCURVE",
"522 -123 OFFCURVE",
"582 -80 CURVE",
"521 -11 LINE",
"482 -50 OFFCURVE",
"442 -98 OFFCURVE",
"400 -157 CURVE"
);
}
);
width = 885;
}
);
},
{
color = 8;
glyphname = h_oe.init.v2;
lastChange = "2019-12-27 10:40:57 +0000";
layers = (
{
components = (
{
name = h_oe.init;
}
);
layerId = "E91C2A68-9D13-40A3-B48F-6510F845363B";
paths = (
{
closed = 1;
nodes = (
"184 -196 LINE",
"217 -161 OFFCURVE",
"263 -123 OFFCURVE",
"323 -80 CURVE",
"262 -11 LINE",
"223 -50 OFFCURVE",
"183 -98 OFFCURVE",
"141 -157 CURVE"
);
},
{
closed = 1;
nodes = (
"443 -196 LINE",
"476 -161 OFFCURVE",
"522 -123 OFFCURVE",
"582 -80 CURVE",
"521 -11 LINE",
"482 -50 OFFCURVE",
"442 -98 OFFCURVE",
"400 -157 CURVE"
);
}
);
width = 1180;
}
);
},
{
color = 8;
glyphname = h_oe.medi.v3;
lastChange = "2019-12-27 10:40:57 +0000";
layers = (
{
components = (
{
name = h_oe.init;
transform = "{1, 0, 0, 1, -47, 0}";
}
);
layerId = "E91C2A68-9D13-40A3-B48F-6510F845363B";
paths = (
{
closed = 1;
nodes = (
"137 -196 LINE",
"170 -161 OFFCURVE",
"216 -123 OFFCURVE",
"276 -80 CURVE",
"215 -11 LINE",
"176 -50 OFFCURVE",
"136 -98 OFFCURVE",
"94 -157 CURVE"
);
},
{
closed = 1;
nodes = (
"396 -196 LINE",
"429 -161 OFFCURVE",
"475 -123 OFFCURVE",
"535 -80 CURVE",
"474 -11 LINE",
"435 -50 OFFCURVE",
"395 -98 OFFCURVE",
"353 -157 CURVE"
);
}
);
width = 1133;
}
);
},
{
color = 8;
glyphname = h_oe.fina.v2;
lastChange = "2019-12-27 10:40:57 +0000";
layers = (
{
components = (
{
name = h_oe.v1;
transform = "{1, 0, 0, 1, -47, 0}";
}
);
layerId = "E91C2A68-9D13-40A3-B48F-6510F845363B";
paths = (
{
closed = 1;
nodes = (
"137 -196 LINE",
"170 -161 OFFCURVE",
"216 -123 OFFCURVE",
"276 -80 CURVE",
"215 -11 LINE",
"176 -50 OFFCURVE",
"136 -98 OFFCURVE",
"94 -157 CURVE"
);
},
{
closed = 1;
nodes = (
"395 -196 LINE",
"428 -161 OFFCURVE",
"474 -123 OFFCURVE",
"534 -80 CURVE",
"473 -11 LINE",
"434 -50 OFFCURVE",
"394 -98 OFFCURVE",
"352 -157 CURVE"
);
}
);
width = 702;
}
);
},
{
color = 8;
glyphname = h_oe.fina.v3;
lastChange = "2019-12-27 10:40:57 +0000";
layers = (
{
components = (
{
name = h_oe;
transform = "{1, 0, 0, 1, -47, 0}";
}
);
layerId = "E91C2A68-9D13-40A3-B48F-6510F845363B";
paths = (
{
closed = 1;
nodes = (
"137 -196 LINE",
"170 -161 OFFCURVE",
"216 -123 OFFCURVE",
"276 -80 CURVE",
"215 -11 LINE",
"176 -50 OFFCURVE",
"136 -98 OFFCURVE",
"94 -157 CURVE"
);
},
{
closed = 1;
nodes = (
"396 -196 LINE",
"429 -161 OFFCURVE",
"475 -123 OFFCURVE",
"535 -80 CURVE",
"474 -11 LINE",
"435 -50 OFFCURVE",
"395 -98 OFFCURVE",
"353 -157 CURVE"
);
}
);
width = 1088;
}
);
},
{
color = 8;
glyphname = h_ue.v3;
lastChange = "2019-12-27 10:42:18 +0000";
layers = (
{
components = (
{
name = h_oe;
}
);
layerId = "E91C2A68-9D13-40A3-B48F-6510F845363B";
paths = (
{
closed = 1;
nodes = (
"184 -196 LINE",
"217 -161 OFFCURVE",
"263 -123 OFFCURVE",
"323 -80 CURVE",
"262 -11 LINE",
"223 -50 OFFCURVE",
"183 -98 OFFCURVE",
"141 -157 CURVE"
);
},
{
closed = 1;
nodes = (
"443 -196 LINE",
"476 -161 OFFCURVE",
"522 -123 OFFCURVE",
"582 -80 CURVE",
"521 -11 LINE",
"482 -50 OFFCURVE",
"442 -98 OFFCURVE",
"400 -157 CURVE"
);
}
);
width = 1135;
}
);
},
{
color = 8;
glyphname = h_ue.init.v3;
lastChange = "2019-12-27 10:40:57 +0000";
layers = (
{
components = (
{
name = h_oe.init.v1;
}
);
layerId = "E91C2A68-9D13-40A3-B48F-6510F845363B";
paths = (
{
closed = 1;
nodes = (
"184 -196 LINE",
"217 -161 OFFCURVE",
"263 -123 OFFCURVE",
"323 -80 CURVE",
"262 -11 LINE",
"223 -50 OFFCURVE",
"183 -98 OFFCURVE",
"141 -157 CURVE"
);
},
{
closed = 1;
nodes = (
"443 -196 LINE",
"476 -161 OFFCURVE",
"522 -123 OFFCURVE",
"582 -80 CURVE",
"521 -11 LINE",
"482 -50 OFFCURVE",
"442 -98 OFFCURVE",
"400 -157 CURVE"
);
}
);
width = 885;
}
);
},
{
color = 8;
glyphname = h_ue.medi.v2;
lastChange = "2019-12-27 10:40:57 +0000";
layers = (
{
components = (
{
name = h_oe.init.v1;
transform = "{1, 0, 0, 1, -47, 0}";
}
);
layerId = "E91C2A68-9D13-40A3-B48F-6510F845363B";
paths = (
{
closed = 1;
nodes = (
"137 -196 LINE",
"170 -161 OFFCURVE",
"216 -123 OFFCURVE",
"276 -80 CURVE",
"215 -11 LINE",
"176 -50 OFFCURVE",
"136 -98 OFFCURVE",
"94 -157 CURVE"
);
},
{
closed = 1;
nodes = (
"396 -196 LINE",
"429 -161 OFFCURVE",
"475 -123 OFFCURVE",
"535 -80 CURVE",
"474 -11 LINE",
"435 -50 OFFCURVE",
"395 -98 OFFCURVE",
"353 -157 CURVE"
);
}
);
width = 838;
}
);
},
{
color = 8;
glyphname = h_ue.medi.v3;
lastChange = "2019-12-27 10:40:57 +0000";
layers = (
{
components = (
{
name = h_oe.init;
transform = "{1, 0, 0, 1, -47, 0}";
}
);
layerId = "E91C2A68-9D13-40A3-B48F-6510F845363B";
paths = (
{
closed = 1;
nodes = (
"137 -196 LINE",
"170 -161 OFFCURVE",
"216 -123 OFFCURVE",
"276 -80 CURVE",
"215 -11 LINE",
"176 -50 OFFCURVE",
"136 -98 OFFCURVE",
"94 -157 CURVE"
);
},
{
closed = 1;
nodes = (
"396 -196 LINE",
"429 -161 OFFCURVE",
"475 -123 OFFCURVE",
"535 -80 CURVE",
"474 -11 LINE",
"435 -50 OFFCURVE",
"395 -98 OFFCURVE",
"353 -157 CURVE"
);
}
);
width = 1133;
}
);
},
{
color = 8;
glyphname = h_ue.fina.v2;
lastChange = "2019-12-27 10:40:57 +0000";
layers = (
{
components = (
{
name = h_oe.v1;
transform = "{1, 0, 0, 1, -47, 0}";
}
);
layerId = "E91C2A68-9D13-40A3-B48F-6510F845363B";
paths = (
{
closed = 1;
nodes = (
"137 -196 LINE",
"170 -161 OFFCURVE",
"216 -123 OFFCURVE",
"276 -80 CURVE",
"215 -11 LINE",
"176 -50 OFFCURVE",
"136 -98 OFFCURVE",
"94 -157 CURVE"
);
},
{
closed = 1;
nodes = (
"395 -196 LINE",
"428 -161 OFFCURVE",
"474 -123 OFFCURVE",
"534 -80 CURVE",
"473 -11 LINE",
"434 -50 OFFCURVE",
"394 -98 OFFCURVE",
"352 -157 CURVE"
);
}
);
width = 702;
}
);
},
{
color = 8;
glyphname = h_ue.fina.v3;
lastChange = "2019-12-27 10:40:57 +0000";
layers = (
{
components = (
{
name = h_oe;
transform = "{1, 0, 0, 1, -47, 0}";
}
);
layerId = "E91C2A68-9D13-40A3-B48F-6510F845363B";
paths = (
{
closed = 1;
nodes = (
"137 -196 LINE",
"170 -161 OFFCURVE",
"216 -123 OFFCURVE",
"276 -80 CURVE",
"215 -11 LINE",
"176 -50 OFFCURVE",
"136 -98 OFFCURVE",
"94 -157 CURVE"
);
},
{
closed = 1;
nodes = (
"396 -196 LINE",
"429 -161 OFFCURVE",
"475 -123 OFFCURVE",
"535 -80 CURVE",
"474 -11 LINE",
"435 -50 OFFCURVE",
"395 -98 OFFCURVE",
"353 -157 CURVE"
);
}
);
width = 1088;
}
);
},
{
color = 8;
glyphname = h_e2;
lastChange = "2019-12-27 10:38:52 +0000";
layers = (
{
layerId = "E91C2A68-9D13-40A3-B48F-6510F845363B";
paths = (
{
closed = 1;
nodes = (
"737 -119 LINE",
"774 -119 OFFCURVE",
"805 -106 OFFCURVE",
"819 -85 CURVE",
"819 6 LINE",
"801 -22 OFFCURVE",
"773 -36 OFFCURVE",
"737 -36 CURVE",
"678 -36 OFFCURVE",
"637 33 OFFCURVE",
"599 117 CURVE",
"566 190 OFFCURVE",
"542 271 OFFCURVE",
"530 364 CURVE",
"915 364 LINE SMOOTH",
"985 364 OFFCURVE",
"1013 333 OFFCURVE",
"1013 279 CURVE",
"1013 236 OFFCURVE",
"1006 197 OFFCURVE",
"991 162 CURVE",
"1065 162 LINE",
"1082 197 OFFCURVE",
"1090 236 OFFCURVE",
"1090 279 CURVE",
"1090 389 OFFCURVE",
"1032 444 OFFCURVE",
"915 444 CURVE",
"521 444 LINE",
"499 627 OFFCURVE",
"443 760 OFFCURVE",
"287 760 CURVE",
"126 760 OFFCURVE",
"45 606 OFFCURVE",
"45 417 CURVE",
"45 299 OFFCURVE",
"88 174 OFFCURVE",
"174 42 CURVE",
"245 85 LINE",
"169 197 OFFCURVE",
"124 291 OFFCURVE",
"124 417 CURVE",
"124 557 OFFCURVE",
"170 677 OFFCURVE",
"287 677 CURVE",
"336 677 OFFCURVE",
"372 657 OFFCURVE",
"395 616 CURVE",
"418 576 OFFCURVE",
"435 510 OFFCURVE",
"445 418 CURVE",
"460 280 OFFCURVE",
"493 154 OFFCURVE",
"547 41 CURVE",
"594 -58 OFFCURVE",
"644 -119 OFFCURVE",
"737 -119 CURVE"
);
}
);
width = 1135;
}
);
},
{
color = 8;
glyphname = h_e2.v1;
lastChange = "2019-12-27 10:42:18 +0000";
layers = (
{
components = (
{
name = h_e2;
}
);
layerId = "E91C2A68-9D13-40A3-B48F-6510F845363B";
paths = (
{
closed = 1;
nodes = (
"162 -196 LINE",
"195 -161 OFFCURVE",
"241 -123 OFFCURVE",
"301 -80 CURVE",
"240 -11 LINE",
"201 -50 OFFCURVE",
"161 -98 OFFCURVE",
"119 -157 CURVE"
);
},
{
closed = 1;
nodes = (
"376 -196 LINE",
"409 -161 OFFCURVE",
"455 -123 OFFCURVE",
"515 -80 CURVE",
"454 -11 LINE",
"415 -50 OFFCURVE",
"375 -98 OFFCURVE",
"333 -157 CURVE"
);
}
);
width = 1135;
}
);
},
{
color = 8;
glyphname = h_e2.fina.v1;
lastChange = "2019-12-27 10:40:57 +0000";
layers = (
{
components = (
{
name = h_e2;
transform = "{1, 0, 0, 1, -48, 0}";
}
);
layerId = "E91C2A68-9D13-40A3-B48F-6510F845363B";
paths = (
{
closed = 1;
nodes = (
"114 -196 LINE",
"147 -161 OFFCURVE",
"193 -123 OFFCURVE",
"253 -80 CURVE",
"192 -11 LINE",
"153 -50 OFFCURVE",
"113 -98 OFFCURVE",
"71 -157 CURVE"
);
},
{
closed = 1;
nodes = (
"328 -196 LINE",
"361 -161 OFFCURVE",
"407 -123 OFFCURVE",
"467 -80 CURVE",
"406 -11 LINE",
"367 -50 OFFCURVE",
"327 -98 OFFCURVE",
"285 -157 CURVE"
);
}
);
width = 1087;
}
);
},
{
color = 8;
glyphname = g_e.v1;
lastChange = "2019-12-27 10:42:18 +0000";
layers = (
{
components = (
{
name = h_e;
}
);
layerId = "E91C2A68-9D13-40A3-B48F-6510F845363B";
paths = (
{
closed = 1;
nodes = (
"184 -196 LINE",
"217 -161 OFFCURVE",
"263 -123 OFFCURVE",
"323 -80 CURVE",
"262 -11 LINE",
"223 -50 OFFCURVE",
"183 -98 OFFCURVE",
"141 -157 CURVE"
);
},
{
closed = 1;
nodes = (
"399 -196 LINE",
"432 -161 OFFCURVE",
"478 -123 OFFCURVE",
"538 -80 CURVE",
"477 -11 LINE",
"438 -50 OFFCURVE",
"398 -98 OFFCURVE",
"356 -157 CURVE"
);
}
);
width = 1021;
}
);
},
{
color = 8;
glyphname = g_e.init.v1;
lastChange = "2019-12-27 10:40:57 +0000";
layers = (
{
components = (
{
name = h_e.init;
}
);
layerId = "E91C2A68-9D13-40A3-B48F-6510F845363B";
paths = (
{
closed = 1;
nodes = (
"184 -196 LINE",
"217 -161 OFFCURVE",
"263 -123 OFFCURVE",
"323 -80 CURVE",
"262 -11 LINE",
"223 -50 OFFCURVE",
"183 -98 OFFCURVE",
"141 -157 CURVE"
);
},
{
closed = 1;
nodes = (
"398 -196 LINE",
"431 -161 OFFCURVE",
"477 -123 OFFCURVE",
"537 -80 CURVE",
"476 -11 LINE",
"437 -50 OFFCURVE",
"397 -98 OFFCURVE",
"355 -157 CURVE"
);
}
);
width = 714;
}
);
},
{
color = 8;
glyphname = g_e.medi.v1;
lastChange = "2019-12-27 10:40:57 +0000";
layers = (
{
components = (
{
name = h_e.init;
transform = "{1, 0, 0, 1, -48, 0}";
}
);
layerId = "E91C2A68-9D13-40A3-B48F-6510F845363B";
paths = (
{
closed = 1;
nodes = (
"136 -196 LINE",
"169 -161 OFFCURVE",
"215 -123 OFFCURVE",
"275 -80 CURVE",
"214 -11 LINE",
"175 -50 OFFCURVE",
"135 -98 OFFCURVE",
"93 -157 CURVE"
);
},
{
closed = 1;
nodes = (
"350 -196 LINE",
"383 -161 OFFCURVE",
"429 -123 OFFCURVE",
"489 -80 CURVE",
"428 -11 LINE",
"389 -50 OFFCURVE",
"349 -98 OFFCURVE",
"307 -157 CURVE"
);
}
);
width = 666;
}
);
},
{
color = 8;
glyphname = g_e.fina.v1;
lastChange = "2019-12-27 10:40:57 +0000";
layers = (
{
components = (
{
name = h_e;
transform = "{1, 0, 0, 1, -48, 0}";
}
);
layerId = "E91C2A68-9D13-40A3-B48F-6510F845363B";
paths = (
{
closed = 1;
nodes = (
"136 -196 LINE",
"169 -161 OFFCURVE",
"215 -123 OFFCURVE",
"275 -80 CURVE",
"214 -11 LINE",
"175 -50 OFFCURVE",
"135 -98 OFFCURVE",
"93 -157 CURVE"
);
},
{
closed = 1;
nodes = (
"351 -196 LINE",
"384 -161 OFFCURVE",
"430 -123 OFFCURVE",
"490 -80 CURVE",
"429 -11 LINE",
"390 -50 OFFCURVE",
"350 -98 OFFCURVE",
"308 -157 CURVE"
);
}
);
width = 973;
}
);
},
{
color = 8;
glyphname = g_i.v1;
lastChange = "2019-12-27 10:42:18 +0000";
layers = (
{
components = (
{
name = h_i;
}
);
layerId = "E91C2A68-9D13-40A3-B48F-6510F845363B";
paths = (
{
closed = 1;
nodes = (
"162 -196 LINE",
"195 -161 OFFCURVE",
"241 -123 OFFCURVE",
"301 -80 CURVE",
"240 -11 LINE",
"201 -50 OFFCURVE",
"161 -98 OFFCURVE",
"119 -157 CURVE"
);
},
{
closed = 1;
nodes = (
"377 -196 LINE",
"410 -161 OFFCURVE",
"456 -123 OFFCURVE",
"516 -80 CURVE",
"455 -11 LINE",
"416 -50 OFFCURVE",
"376 -98 OFFCURVE",
"334 -157 CURVE"
);
}
);
width = 1060;
}
);
},
{
color = 8;
glyphname = g_i.init.v1;
lastChange = "2019-12-27 10:40:57 +0000";
layers = (
{
components = (
{
name = h_i.init;
}
);
layerId = "E91C2A68-9D13-40A3-B48F-6510F845363B";
paths = (
{
closed = 1;
nodes = (
"162 -196 LINE",
"195 -161 OFFCURVE",
"241 -123 OFFCURVE",
"301 -80 CURVE",
"240 -11 LINE",
"201 -50 OFFCURVE",
"161 -98 OFFCURVE",
"119 -157 CURVE"
);
},
{
closed = 1;
nodes = (
"377 -196 LINE",
"410 -161 OFFCURVE",
"456 -123 OFFCURVE",
"516 -80 CURVE",
"455 -11 LINE",
"416 -50 OFFCURVE",
"376 -98 OFFCURVE",
"334 -157 CURVE"
);
}
);
width = 810;
}
);
},
{
color = 8;
glyphname = g_i.medi.v1;
lastChange = "2019-12-27 10:40:57 +0000";
layers = (
{
components = (
{
name = h_i.init;
transform = "{1, 0, 0, 1, -48, 0}";
}
);
layerId = "E91C2A68-9D13-40A3-B48F-6510F845363B";
paths = (
{
closed = 1;
nodes = (
"114 -196 LINE",
"147 -161 OFFCURVE",
"193 -123 OFFCURVE",
"253 -80 CURVE",
"192 -11 LINE",
"153 -50 OFFCURVE",
"113 -98 OFFCURVE",
"71 -157 CURVE"
);
},
{
closed = 1;
nodes = (
"329 -196 LINE",
"362 -161 OFFCURVE",
"408 -123 OFFCURVE",
"468 -80 CURVE",
"407 -11 LINE",
"368 -50 OFFCURVE",
"328 -98 OFFCURVE",
"286 -157 CURVE"
);
}
);
width = 762;
}
);
},
{
color = 8;
glyphname = g_i.fina.v1;
lastChange = "2019-12-27 10:40:57 +0000";
layers = (
{
components = (
{
name = h_e2;
transform = "{1, 0, 0, 1, -48, 0}";
}
);
layerId = "E91C2A68-9D13-40A3-B48F-6510F845363B";
paths = (
{
closed = 1;
nodes = (
"114 -196 LINE",
"147 -161 OFFCURVE",
"193 -123 OFFCURVE",
"253 -80 CURVE",
"192 -11 LINE",
"153 -50 OFFCURVE",
"113 -98 OFFCURVE",
"71 -157 CURVE"
);
},
{
closed = 1;
nodes = (
"328 -196 LINE",
"361 -161 OFFCURVE",
"407 -123 OFFCURVE",
"467 -80 CURVE",
"406 -11 LINE",
"367 -50 OFFCURVE",
"327 -98 OFFCURVE",
"285 -157 CURVE"
);
}
);
width = 1087;
}
);
},
{
color = 8;
glyphname = g_oe.v2;
lastChange = "2019-12-27 10:42:18 +0000";
layers = (
{
components = (
{
name = h_oe.v1;
}
);
layerId = "E91C2A68-9D13-40A3-B48F-6510F845363B";
paths = (
{
closed = 1;
nodes = (
"184 -196 LINE",
"217 -161 OFFCURVE",
"263 -123 OFFCURVE",
"323 -80 CURVE",
"262 -11 LINE",
"223 -50 OFFCURVE",
"183 -98 OFFCURVE",
"141 -157 CURVE"
);
},
{
closed = 1;
nodes = (
"442 -196 LINE",
"475 -161 OFFCURVE",
"521 -123 OFFCURVE",
"581 -80 CURVE",
"520 -11 LINE",
"481 -50 OFFCURVE",
"441 -98 OFFCURVE",
"399 -157 CURVE"
);
}
);
width = 749;
}
);
},
{
color = 8;
glyphname = g_oe.v3;
lastChange = "2019-12-27 10:42:18 +0000";
layers = (
{
components = (
{
name = h_oe;
}
);
layerId = "E91C2A68-9D13-40A3-B48F-6510F845363B";
paths = (
{
closed = 1;
nodes = (
"184 -196 LINE",
"217 -161 OFFCURVE",
"263 -123 OFFCURVE",
"323 -80 CURVE",
"262 -11 LINE",
"223 -50 OFFCURVE",
"183 -98 OFFCURVE",
"141 -157 CURVE"
);
},
{
closed = 1;
nodes = (
"443 -196 LINE",
"476 -161 OFFCURVE",
"522 -123 OFFCURVE",
"582 -80 CURVE",
"521 -11 LINE",
"482 -50 OFFCURVE",
"442 -98 OFFCURVE",
"400 -157 CURVE"
);
}
);
width = 1135;
}
);
},
{
color = 8;
glyphname = g_oe.init.v1;
lastChange = "2019-12-27 10:40:57 +0000";
layers = (
{
components = (
{
name = h_oe.init;
}
);
layerId = "E91C2A68-9D13-40A3-B48F-6510F845363B";
paths = (
{
closed = 1;
nodes = (
"184 -196 LINE",
"217 -161 OFFCURVE",
"263 -123 OFFCURVE",
"323 -80 CURVE",
"262 -11 LINE",
"223 -50 OFFCURVE",
"183 -98 OFFCURVE",
"141 -157 CURVE"
);
},
{
closed = 1;
nodes = (
"443 -196 LINE",
"476 -161 OFFCURVE",
"522 -123 OFFCURVE",
"582 -80 CURVE",
"521 -11 LINE",
"482 -50 OFFCURVE",
"442 -98 OFFCURVE",
"400 -157 CURVE"
);
}
);
width = 1180;
}
);
},
{
color = 8;
glyphname = g_oe.medi.v2;
lastChange = "2019-12-27 10:40:57 +0000";
layers = (
{
components = (
{
name = h_oe.init.v1;
transform = "{1, 0, 0, 1, -47, 0}";
}
);
layerId = "E91C2A68-9D13-40A3-B48F-6510F845363B";
paths = (
{
closed = 1;
nodes = (
"137 -196 LINE",
"170 -161 OFFCURVE",
"216 -123 OFFCURVE",
"276 -80 CURVE",
"215 -11 LINE",
"176 -50 OFFCURVE",
"136 -98 OFFCURVE",
"94 -157 CURVE"
);
},
{
closed = 1;
nodes = (
"396 -196 LINE",
"429 -161 OFFCURVE",
"475 -123 OFFCURVE",
"535 -80 CURVE",
"474 -11 LINE",
"435 -50 OFFCURVE",
"395 -98 OFFCURVE",
"353 -157 CURVE"
);
}
);
width = 838;
}
);
},
{
color = 8;
glyphname = g_oe.medi.v3;
lastChange = "2019-12-27 10:40:57 +0000";
layers = (
{
components = (
{
name = h_oe.init;
transform = "{1, 0, 0, 1, -47, 0}";
}
);
layerId = "E91C2A68-9D13-40A3-B48F-6510F845363B";
paths = (
{
closed = 1;
nodes = (
"137 -196 LINE",
"170 -161 OFFCURVE",
"216 -123 OFFCURVE",
"276 -80 CURVE",
"215 -11 LINE",
"176 -50 OFFCURVE",
"136 -98 OFFCURVE",
"94 -157 CURVE"
);
},
{
closed = 1;
nodes = (
"396 -196 LINE",
"429 -161 OFFCURVE",
"475 -123 OFFCURVE",
"535 -80 CURVE",
"474 -11 LINE",
"435 -50 OFFCURVE",
"395 -98 OFFCURVE",
"353 -157 CURVE"
);
}
);
width = 1133;
}
);
},
{
color = 8;
glyphname = g_oe.fina.v2;
lastChange = "2019-12-27 10:40:57 +0000";
layers = (
{
components = (
{
name = h_oe.v1;
transform = "{1, 0, 0, 1, -47, 0}";
}
);
layerId = "E91C2A68-9D13-40A3-B48F-6510F845363B";
paths = (
{
closed = 1;
nodes = (
"137 -196 LINE",
"170 -161 OFFCURVE",
"216 -123 OFFCURVE",
"276 -80 CURVE",
"215 -11 LINE",
"176 -50 OFFCURVE",
"136 -98 OFFCURVE",
"94 -157 CURVE"
);
},
{
closed = 1;
nodes = (
"395 -196 LINE",
"428 -161 OFFCURVE",
"474 -123 OFFCURVE",
"534 -80 CURVE",
"473 -11 LINE",
"434 -50 OFFCURVE",
"394 -98 OFFCURVE",
"352 -157 CURVE"
);
}
);
width = 702;
}
);
},
{
color = 8;
glyphname = g_oe.fina.v3;
lastChange = "2019-12-27 10:40:57 +0000";
layers = (
{
components = (
{
name = h_oe;
transform = "{1, 0, 0, 1, -47, 0}";
}
);
layerId = "E91C2A68-9D13-40A3-B48F-6510F845363B";
paths = (
{
closed = 1;
nodes = (
"137 -196 LINE",
"170 -161 OFFCURVE",
"216 -123 OFFCURVE",
"276 -80 CURVE",
"215 -11 LINE",
"176 -50 OFFCURVE",
"136 -98 OFFCURVE",
"94 -157 CURVE"
);
},
{
closed = 1;
nodes = (
"396 -196 LINE",
"429 -161 OFFCURVE",
"475 -123 OFFCURVE",
"535 -80 CURVE",
"474 -11 LINE",
"435 -50 OFFCURVE",
"395 -98 OFFCURVE",
"353 -157 CURVE"
);
}
);
width = 1088;
}
);
},
{
color = 8;
glyphname = g_ue.v2;
lastChange = "2019-12-27 10:42:18 +0000";
layers = (
{
components = (
{
name = h_oe.v1;
}
);
layerId = "E91C2A68-9D13-40A3-B48F-6510F845363B";
paths = (
{
closed = 1;
nodes = (
"184 -196 LINE",
"217 -161 OFFCURVE",
"263 -123 OFFCURVE",
"323 -80 CURVE",
"262 -11 LINE",
"223 -50 OFFCURVE",
"183 -98 OFFCURVE",
"141 -157 CURVE"
);
},
{
closed = 1;
nodes = (
"442 -196 LINE",
"475 -161 OFFCURVE",
"521 -123 OFFCURVE",
"581 -80 CURVE",
"520 -11 LINE",
"481 -50 OFFCURVE",
"441 -98 OFFCURVE",
"399 -157 CURVE"
);
}
);
width = 749;
}
);
},
{
color = 8;
glyphname = g_ue.v3;
lastChange = "2019-12-27 10:42:18 +0000";
layers = (
{
components = (
{
name = h_oe;
}
);
layerId = "E91C2A68-9D13-40A3-B48F-6510F845363B";
paths = (
{
closed = 1;
nodes = (
"184 -196 LINE",
"217 -161 OFFCURVE",
"263 -123 OFFCURVE",
"323 -80 CURVE",
"262 -11 LINE",
"223 -50 OFFCURVE",
"183 -98 OFFCURVE",
"141 -157 CURVE"
);
},
{
closed = 1;
nodes = (
"443 -196 LINE",
"476 -161 OFFCURVE",
"522 -123 OFFCURVE",
"582 -80 CURVE",
"521 -11 LINE",
"482 -50 OFFCURVE",
"442 -98 OFFCURVE",
"400 -157 CURVE"
);
}
);
width = 1135;
}
);
},
{
color = 8;
glyphname = g_ue.init.v1;
lastChange = "2019-12-27 10:40:57 +0000";
layers = (
{
components = (
{
name = h_oe.init;
}
);
layerId = "E91C2A68-9D13-40A3-B48F-6510F845363B";
paths = (
{
closed = 1;
nodes = (
"184 -196 LINE",
"217 -161 OFFCURVE",
"263 -123 OFFCURVE",
"323 -80 CURVE",
"262 -11 LINE",
"223 -50 OFFCURVE",
"183 -98 OFFCURVE",
"141 -157 CURVE"
);
},
{
closed = 1;
nodes = (
"443 -196 LINE",
"476 -161 OFFCURVE",
"522 -123 OFFCURVE",
"582 -80 CURVE",
"521 -11 LINE",
"482 -50 OFFCURVE",
"442 -98 OFFCURVE",
"400 -157 CURVE"
);
}
);
width = 1180;
}
);
},
{
color = 8;
glyphname = g_ue.medi.v2;
lastChange = "2019-12-27 10:40:57 +0000";
layers = (
{
components = (
{
name = h_oe.init.v1;
transform = "{1, 0, 0, 1, -47, 0}";
}
);
layerId = "E91C2A68-9D13-40A3-B48F-6510F845363B";
paths = (
{
closed = 1;
nodes = (
"137 -196 LINE",
"170 -161 OFFCURVE",
"216 -123 OFFCURVE",
"276 -80 CURVE",
"215 -11 LINE",
"176 -50 OFFCURVE",
"136 -98 OFFCURVE",
"94 -157 CURVE"
);
},
{
closed = 1;
nodes = (
"396 -196 LINE",
"429 -161 OFFCURVE",
"475 -123 OFFCURVE",
"535 -80 CURVE",
"474 -11 LINE",
"435 -50 OFFCURVE",
"395 -98 OFFCURVE",
"353 -157 CURVE"
);
}
);
width = 838;
}
);
},
{
color = 8;
glyphname = g_ue.medi.v3;
lastChange = "2019-12-27 10:40:57 +0000";
layers = (
{
components = (
{
name = h_oe.init;
transform = "{1, 0, 0, 1, -47, 0}";
}
);
layerId = "E91C2A68-9D13-40A3-B48F-6510F845363B";
paths = (
{
closed = 1;
nodes = (
"137 -196 LINE",
"170 -161 OFFCURVE",
"216 -123 OFFCURVE",
"276 -80 CURVE",
"215 -11 LINE",
"176 -50 OFFCURVE",
"136 -98 OFFCURVE",
"94 -157 CURVE"
);
},
{
closed = 1;
nodes = (
"396 -196 LINE",
"429 -161 OFFCURVE",
"475 -123 OFFCURVE",
"535 -80 CURVE",
"474 -11 LINE",
"435 -50 OFFCURVE",
"395 -98 OFFCURVE",
"353 -157 CURVE"
);
}
);
width = 1133;
}
);
},
{
color = 8;
glyphname = g_ue.fina.v2;
lastChange = "2019-12-27 10:40:57 +0000";
layers = (
{
components = (
{
name = h_oe.v1;
transform = "{1, 0, 0, 1, -47, 0}";
}
);
layerId = "E91C2A68-9D13-40A3-B48F-6510F845363B";
paths = (
{
closed = 1;
nodes = (
"137 -196 LINE",
"170 -161 OFFCURVE",
"216 -123 OFFCURVE",
"276 -80 CURVE",
"215 -11 LINE",
"176 -50 OFFCURVE",
"136 -98 OFFCURVE",
"94 -157 CURVE"
);
},
{
closed = 1;
nodes = (
"395 -196 LINE",
"428 -161 OFFCURVE",
"474 -123 OFFCURVE",
"534 -80 CURVE",
"473 -11 LINE",
"434 -50 OFFCURVE",
"394 -98 OFFCURVE",
"352 -157 CURVE"
);
}
);
width = 702;
}
);
},
{
color = 8;
glyphname = g_ue.fina.v3;
lastChange = "2019-12-27 10:40:57 +0000";
layers = (
{
components = (
{
name = h_oe;
transform = "{1, 0, 0, 1, -47, 0}";
}
);
layerId = "E91C2A68-9D13-40A3-B48F-6510F845363B";
paths = (
{
closed = 1;
nodes = (
"137 -196 LINE",
"170 -161 OFFCURVE",
"216 -123 OFFCURVE",
"276 -80 CURVE",
"215 -11 LINE",
"176 -50 OFFCURVE",
"136 -98 OFFCURVE",
"94 -157 CURVE"
);
},
{
closed = 1;
nodes = (
"396 -196 LINE",
"429 -161 OFFCURVE",
"475 -123 OFFCURVE",
"535 -80 CURVE",
"474 -11 LINE",
"435 -50 OFFCURVE",
"395 -98 OFFCURVE",
"353 -157 CURVE"
);
}
);
width = 1088;
}
);
},
{
color = 8;
glyphname = g_e2.v1;
lastChange = "2019-12-27 10:42:18 +0000";
layers = (
{
components = (
{
name = h_e2;
}
);
layerId = "E91C2A68-9D13-40A3-B48F-6510F845363B";
paths = (
{
closed = 1;
nodes = (
"162 -196 LINE",
"195 -161 OFFCURVE",
"241 -123 OFFCURVE",
"301 -80 CURVE",
"240 -11 LINE",
"201 -50 OFFCURVE",
"161 -98 OFFCURVE",
"119 -157 CURVE"
);
},
{
closed = 1;
nodes = (
"376 -196 LINE",
"409 -161 OFFCURVE",
"455 -123 OFFCURVE",
"515 -80 CURVE",
"454 -11 LINE",
"415 -50 OFFCURVE",
"375 -98 OFFCURVE",
"333 -157 CURVE"
);
}
);
width = 1135;
}
);
},
{
color = 8;
glyphname = g_e2.init.v1;
lastChange = "2019-12-27 10:40:57 +0000";
layers = (
{
components = (
{
name = h_e2.init;
}
);
layerId = "E91C2A68-9D13-40A3-B48F-6510F845363B";
paths = (
{
closed = 1;
nodes = (
"162 -196 LINE",
"195 -161 OFFCURVE",
"241 -123 OFFCURVE",
"301 -80 CURVE",
"240 -11 LINE",
"201 -50 OFFCURVE",
"161 -98 OFFCURVE",
"119 -157 CURVE"
);
},
{
closed = 1;
nodes = (
"376 -196 LINE",
"409 -161 OFFCURVE",
"455 -123 OFFCURVE",
"515 -80 CURVE",
"454 -11 LINE",
"415 -50 OFFCURVE",
"375 -98 OFFCURVE",
"333 -157 CURVE"
);
}
);
width = 885;
}
);
},
{
color = 8;
glyphname = g_e2.medi.v1;
lastChange = "2019-12-27 10:40:57 +0000";
layers = (
{
components = (
{
name = h_e2.init;
transform = "{1, 0, 0, 1, -48, 0}";
}
);
layerId = "E91C2A68-9D13-40A3-B48F-6510F845363B";
paths = (
{
closed = 1;
nodes = (
"114 -196 LINE",
"147 -161 OFFCURVE",
"193 -123 OFFCURVE",
"253 -80 CURVE",
"192 -11 LINE",
"153 -50 OFFCURVE",
"113 -98 OFFCURVE",
"71 -157 CURVE"
);
},
{
closed = 1;
nodes = (
"328 -196 LINE",
"361 -161 OFFCURVE",
"407 -123 OFFCURVE",
"467 -80 CURVE",
"406 -11 LINE",
"367 -50 OFFCURVE",
"327 -98 OFFCURVE",
"285 -157 CURVE"
);
}
);
width = 837;
}
);
},
{
color = 8;
glyphname = g_e2.fina.v1;
lastChange = "2019-12-27 10:40:57 +0000";
layers = (
{
components = (
{
name = h_e2;
transform = "{1, 0, 0, 1, -48, 0}";
}
);
layerId = "E91C2A68-9D13-40A3-B48F-6510F845363B";
paths = (
{
closed = 1;
nodes = (
"114 -196 LINE",
"147 -161 OFFCURVE",
"193 -123 OFFCURVE",
"253 -80 CURVE",
"192 -11 LINE",
"153 -50 OFFCURVE",
"113 -98 OFFCURVE",
"71 -157 CURVE"
);
},
{
closed = 1;
nodes = (
"328 -196 LINE",
"361 -161 OFFCURVE",
"407 -123 OFFCURVE",
"467 -80 CURVE",
"406 -11 LINE",
"367 -50 OFFCURVE",
"327 -98 OFFCURVE",
"285 -157 CURVE"
);
}
);
width = 1087;
}
);
},
{
color = 8;
glyphname = k_e2.init;
lastChange = "2019-12-27 10:40:57 +0000";
layers = (
{
layerId = "E91C2A68-9D13-40A3-B48F-6510F845363B";
paths = (
{
closed = 1;
nodes = (
"737 -119 LINE",
"774 -119 OFFCURVE",
"805 -106 OFFCURVE",
"819 -85 CURVE",
"819 6 LINE",
"801 -22 OFFCURVE",
"773 -36 OFFCURVE",
"737 -36 CURVE",
"678 -36 OFFCURVE",
"637 33 OFFCURVE",
"599 117 CURVE",
"566 190 OFFCURVE",
"542 271 OFFCURVE",
"530 364 CURVE",
"915 364 LINE",
"915 444 LINE",
"521 444 LINE",
"499 627 OFFCURVE",
"443 760 OFFCURVE",
"287 760 CURVE",
"126 760 OFFCURVE",
"45 606 OFFCURVE",
"45 417 CURVE",
"45 299 OFFCURVE",
"88 174 OFFCURVE",
"174 42 CURVE",
"245 85 LINE",
"183 174 OFFCURVE",
"136 262 OFFCURVE",
"126 364 CURVE",
"285 364 LINE",
"285 444 LINE",
"124 444 LINE",
"129 572 OFFCURVE",
"177 677 OFFCURVE",
"287 677 CURVE",
"398 677 OFFCURVE",
"428 570 OFFCURVE",
"445 418 CURVE",
"460 280 OFFCURVE",
"493 154 OFFCURVE",
"547 41 CURVE",
"594 -58 OFFCURVE",
"644 -119 OFFCURVE",
"737 -119 CURVE"
);
}
);
width = 885;
}
);
},
{
color = 8;
glyphname = k_e2;
lastChange = "2019-12-27 10:38:52 +0000";
layers = (
{
layerId = "E91C2A68-9D13-40A3-B48F-6510F845363B";
paths = (
{
closed = 1;
nodes = (
"737 -119 LINE",
"774 -119 OFFCURVE",
"805 -106 OFFCURVE",
"819 -85 CURVE",
"819 6 LINE",
"801 -22 OFFCURVE",
"773 -36 OFFCURVE",
"737 -36 CURVE",
"678 -36 OFFCURVE",
"637 33 OFFCURVE",
"599 117 CURVE",
"566 190 OFFCURVE",
"542 271 OFFCURVE",
"530 364 CURVE",
"915 364 LINE SMOOTH",
"985 364 OFFCURVE",
"1013 333 OFFCURVE",
"1013 279 CURVE",
"1013 236 OFFCURVE",
"1006 197 OFFCURVE",
"991 162 CURVE",
"1065 162 LINE",
"1082 197 OFFCURVE",
"1090 236 OFFCURVE",
"1090 279 CURVE",
"1090 389 OFFCURVE",
"1032 444 OFFCURVE",
"915 444 CURVE",
"521 444 LINE",
"499 627 OFFCURVE",
"443 760 OFFCURVE",
"287 760 CURVE",
"126 760 OFFCURVE",
"45 606 OFFCURVE",
"45 417 CURVE",
"45 299 OFFCURVE",
"88 174 OFFCURVE",
"174 42 CURVE",
"245 85 LINE",
"183 174 OFFCURVE",
"136 262 OFFCURVE",
"126 364 CURVE",
"285 364 LINE",
"285 444 LINE",
"124 444 LINE",
"129 572 OFFCURVE",
"177 677 OFFCURVE",
"287 677 CURVE",
"398 677 OFFCURVE",
"428 570 OFFCURVE",
"445 418 CURVE",
"460 280 OFFCURVE",
"493 154 OFFCURVE",
"547 41 CURVE",
"594 -58 OFFCURVE",
"644 -119 OFFCURVE",
"737 -119 CURVE"
);
}
);
width = 1135;
}
);
},
{
color = 8;
glyphname = h_i.init.v2;
lastChange = "2019-12-27 10:40:57 +0000";
layers = (
{
components = (
{
name = h_i.init;
}
);
layerId = "E91C2A68-9D13-40A3-B48F-6510F845363B";
paths = (
{
closed = 1;
nodes = (
"162 -196 LINE",
"195 -161 OFFCURVE",
"241 -123 OFFCURVE",
"301 -80 CURVE",
"240 -11 LINE",
"201 -50 OFFCURVE",
"161 -98 OFFCURVE",
"119 -157 CURVE"
);
},
{
closed = 1;
nodes = (
"377 -196 LINE",
"410 -161 OFFCURVE",
"456 -123 OFFCURVE",
"516 -80 CURVE",
"455 -11 LINE",
"416 -50 OFFCURVE",
"376 -98 OFFCURVE",
"334 -157 CURVE"
);
}
);
width = 810;
}
);
},
{
color = 8;
glyphname = f_e2.init;
lastChange = "2019-12-27 10:40:57 +0000";
layers = (
{
layerId = "E91C2A68-9D13-40A3-B48F-6510F845363B";
paths = (
{
closed = 1;
nodes = (
"199 -182 LINE",
"289 -182 LINE",
"264 -148 OFFCURVE",
"251 -108 OFFCURVE",
"251 -63 CURVE",
"251 -25 OFFCURVE",
"258 9 OFFCURVE",
"271 40 CURVE",
"277 40 LINE SMOOTH",
"374 40 OFFCURVE",
"451 137 OFFCURVE",
"451 273 CURVE",
"451 310 OFFCURVE",
"440 410 OFFCURVE",
"428 444 CURVE",
"124 444 LINE",
"126 588 OFFCURVE",
"194 699 OFFCURVE",
"330 699 CURVE",
"469 699 OFFCURVE",
"522 589 OFFCURVE",
"552 418 CURVE",
"576 279 OFFCURVE",
"614 153 OFFCURVE",
"667 41 CURVE",
"713 -56 OFFCURVE",
"765 -119 OFFCURVE",
"858 -119 CURVE",
"896 -119 OFFCURVE",
"926 -106 OFFCURVE",
"940 -85 CURVE",
"940 6 LINE",
"921 -22 OFFCURVE",
"894 -36 OFFCURVE",
"858 -36 CURVE",
"809 -36 OFFCURVE",
"769 13 OFFCURVE",
"725 106 CURVE",
"681 199 OFFCURVE",
"655 287 OFFCURVE",
"641 364 CURVE",
"1036 364 LINE",
"1036 444 LINE",
"626 444 LINE",
"590 648 OFFCURVE",
"512 782 OFFCURVE",
"330 782 CURVE",
"138 782 OFFCURVE",
"45 624 OFFCURVE",
"45 408 CURVE",
"45 202 OFFCURVE",
"96 83 OFFCURVE",
"201 50 CURVE",
"180 14 OFFCURVE",
"169 -24 OFFCURVE",
"169 -64 CURVE",
"169 -113 OFFCURVE",
"179 -152 OFFCURVE",
"199 -182 CURVE"
);
},
{
closed = 1;
nodes = (
"264 123 LINE",
"173 123 OFFCURVE",
"126 203 OFFCURVE",
"124 364 CURVE",
"362 364 LINE",
"369 345 OFFCURVE",
"372 315 OFFCURVE",
"372 275 CURVE",
"372 190 OFFCURVE",
"337 123 OFFCURVE",
"264 123 CURVE"
);
}
);
width = 1006;
}
);
},
